<svg width="29" height="29" viewBox="0 0 29 29" fill="none" xmlns="http://www.w3.org/2000/svg">
<g clip-path="url(#clip0_0_338)">
<path d="M19.895 4.5818C21.211 3.21992 22.5253 1.85749 23.8418 0.495605C23.8423 1.76396 23.8418 3.03177 23.8418 4.30013C24.2286 4.69082 24.6209 5.07653 25.0066 5.46888C25.0542 5.51094 25.0985 5.57568 25.1716 5.56793C26.4189 5.5707 27.6668 5.56738 28.9147 5.56904C27.5517 6.93258 26.1898 8.29723 24.824 9.65801C23.7455 9.74932 22.6675 9.84616 21.5889 9.93802C20.2254 11.2993 18.8635 12.6623 17.5016 14.0253C17.7009 14.4448 17.6522 14.9329 17.5625 15.375C17.3699 16.1741 16.8116 16.8819 16.0722 17.2444C15.4287 17.5908 14.6412 17.6367 13.9506 17.4104C13.2677 17.1757 12.6673 16.6849 12.3358 16.0391C12.0082 15.4658 11.9301 14.7658 12.069 14.1249C12.2954 13.1023 13.1327 12.2484 14.1487 11.9972C14.5986 11.8798 15.0662 11.9214 15.5255 11.9136C16.8879 10.5517 18.2481 9.18874 19.6111 7.82741C19.7074 6.74554 19.7982 5.66367 19.895 4.5818Z" fill="white"/>
<path d="M8.95609 1.92642C12.635 0.212035 17.0599 0.211481 20.7465 1.90373C20.0769 2.57278 19.4095 3.24459 18.7372 3.91086C18.6641 3.97284 18.6365 4.06581 18.6093 4.1538C17.7699 3.88153 16.9127 3.6552 16.0355 3.54342C13.5425 3.22134 10.9605 3.85386 8.84541 5.19582C6.24007 6.81835 4.35746 9.54654 3.76257 12.5575C3.38626 14.491 3.50635 16.5336 4.17262 18.3913C5.15101 21.2529 7.33633 23.6772 10.0833 24.9439C12.2836 25.9981 14.8375 26.2704 17.2187 25.7502C19.5595 25.23 21.7249 23.9495 23.2982 22.1383C25.2024 19.974 26.2599 17.0554 26.0762 14.1684C26.033 13.0705 25.8 11.9908 25.5383 10.9267C26.2422 10.2676 26.9489 9.61184 27.6528 8.95276C28.7867 11.2559 29.1093 13.9039 28.8149 16.4378C28.5393 18.7233 27.6826 20.9352 26.3529 22.8145C25.1415 24.5383 23.5411 25.9865 21.705 27.0191C19.6713 28.1735 17.3438 28.7938 15.0063 28.8281H14.6084C12.6682 28.7911 10.7358 28.3605 8.9738 27.5454C5.72321 26.0601 3.08246 23.2971 1.75101 19.9795C0.93532 17.9696 0.601629 15.7677 0.777052 13.6056C0.974057 11.0982 1.86833 8.65006 3.33093 6.60419C4.75534 4.58987 6.71654 2.96015 8.95609 1.92642Z" fill="white"/>
<path d="M12.6079 6.58006C14.0655 6.17166 15.6333 6.18771 17.092 6.58338C17.5225 6.68022 17.9348 6.83905 18.3526 6.9796C18.3526 7.01336 18.3526 7.08198 18.3532 7.11574C17.6492 7.82352 16.9415 8.52687 16.2376 9.23354C15.8186 9.21916 15.4097 9.11623 14.9908 9.09907C13.941 9.06587 12.884 9.33813 11.9804 9.87381C10.862 10.5301 9.97822 11.5816 9.53717 12.8023C9.08173 14.0242 9.07841 15.4082 9.52721 16.6329C9.9594 17.8459 10.8271 18.8951 11.9311 19.5564C13.0185 20.2221 14.34 20.4888 15.6017 20.3101C16.6935 20.1629 17.7334 19.6759 18.5562 18.9449C19.6852 17.9549 20.394 16.4956 20.4538 14.9932C20.4665 14.4348 20.4804 13.8637 20.3254 13.3214C20.9519 12.6479 21.5816 11.9778 22.2064 11.3027C22.2612 11.2279 22.3436 11.1964 22.4349 11.1958C22.5882 11.5672 22.7802 11.9247 22.8904 12.3131C23.6496 14.5942 23.2667 17.1957 21.9806 19.215C20.8257 21.0616 18.9337 22.439 16.812 22.9426C14.4153 23.5397 11.7634 23.0034 9.79671 21.506C7.83883 20.0694 6.55165 17.7501 6.39947 15.323C6.30982 14.095 6.49466 12.8472 6.9429 11.7C7.88255 9.22801 10.0507 7.26128 12.6079 6.58006Z" fill="white"/>
</g>
<defs>
<clipPath id="clip0_0_338">
<rect width="28.3333" height="28.3333" fill="white" transform="translate(0.666763 0.498901)"/>
</clipPath>
</defs>
</svg>
