<svg width="26" height="27" viewBox="0 0 26 27" fill="none" xmlns="http://www.w3.org/2000/svg">
<path fill-rule="evenodd" clip-rule="evenodd" d="M12.8338 14.8227C11.8691 14.8227 9.49975 14.8258 9.49975 14.8258V12.4761H15.4225C15.835 15.3192 14.5907 19.5839 9.49975 19.5839C6.0938 19.5839 3.33275 16.9276 3.33275 13.651C3.33275 10.3743 6.0938 7.71802 9.49975 7.71802C11.0979 7.71802 12.5541 8.30285 13.6497 9.26223C12.8007 10.0336 12.5285 10.3276 12.2972 10.5774C12.1769 10.7074 12.0677 10.8254 11.8941 10.9924C11.2604 10.4882 10.5695 10.1264 9.49975 10.1264C7.47643 10.1264 5.89725 11.7044 5.89725 13.651C5.89725 15.5975 7.47643 17.1755 9.49975 17.1755C11.4991 17.1755 12.3114 16.346 12.8338 14.8227ZM20.6138 10.5377V12.5936H22.7509V14.0622H20.6138V16.1769H19.0873V14.0622H16.8892V12.5936H19.0873V10.5377H20.6138Z" fill="white"/>
</svg>
