<svg width="27" height="27" viewBox="0 0 27 27" fill="none" xmlns="http://www.w3.org/2000/svg">
<path fill-rule="evenodd" clip-rule="evenodd" d="M6.00525 10.391C6.00525 6.21635 9.38163 2.83997 13.5563 2.83997C17.7309 2.83997 21.1073 6.21635 21.1073 10.391C21.1073 14.8892 16.3394 21.0919 14.3869 23.4543C13.9554 23.972 13.1679 23.972 12.7364 23.4543C10.7732 21.0919 6.00525 14.8892 6.00525 10.391ZM10.8586 10.39C10.8586 11.8786 12.0668 13.0868 13.5554 13.0868C15.044 13.0868 16.2522 11.8786 16.2522 10.39C16.2522 8.90139 15.044 7.69322 13.5554 7.69322C12.0668 7.69322 10.8586 8.90139 10.8586 10.39Z" fill="white"/>
</svg>
