<svg width="27" height="27" viewBox="0 0 27 27" fill="none" xmlns="http://www.w3.org/2000/svg">
<path d="M13.819 3.39697C8.45761 3.39697 4.11002 7.74343 4.11002 13.106C4.11002 17.0803 6.50074 20.4962 9.92242 21.9976C9.89501 21.3205 9.91785 20.5054 10.0902 19.7678C10.2775 18.9801 11.3393 14.4783 11.3393 14.4783C11.3393 14.4783 11.0299 13.8584 11.0299 12.9416C11.0299 11.5031 11.8644 10.4287 12.9023 10.4287C13.7848 10.4287 14.2118 11.092 14.2118 11.8867C14.2118 12.7738 13.6455 14.1016 13.3544 15.3312C13.1112 16.3621 13.8704 17.2013 14.8865 17.2013C16.7258 17.2013 17.9646 14.8391 17.9646 12.0396C17.9646 9.91266 16.5317 8.31999 13.9252 8.31999C10.9808 8.31999 9.14606 10.5155 9.14606 12.9679C9.14606 13.815 9.39495 14.411 9.78541 14.8722C9.9658 15.0857 9.98978 15.1702 9.9247 15.4145C9.87903 15.5915 9.77171 16.023 9.72718 16.1932C9.66211 16.4386 9.46345 16.5277 9.24196 16.4363C7.88448 15.8826 7.25312 14.3973 7.25312 12.727C7.25312 9.96975 9.57876 6.6611 14.1912 6.6611C17.8983 6.6611 20.3382 9.34523 20.3382 12.2235C20.3382 16.0322 18.2214 18.8773 15.0989 18.8773C14.0519 18.8773 13.0655 18.311 12.7276 17.6682C12.7276 17.6682 12.1636 19.9048 12.0448 20.3364C11.8393 21.0842 11.4363 21.8332 11.0675 22.4154C11.9409 22.6735 12.8634 22.8139 13.819 22.8139C19.1805 22.8139 23.5269 18.4674 23.5269 13.106C23.5269 7.74343 19.1805 3.39697 13.819 3.39697Z" fill="white"/>
</svg>
