<svg width="27" height="27" viewBox="0 0 27 27" fill="none" xmlns="http://www.w3.org/2000/svg">
<path fill-rule="evenodd" clip-rule="evenodd" d="M23.3149 22.8166H19.6167C19.6167 14.149 12.5656 7.09789 3.89816 7.09789V3.39966C14.6044 3.39966 23.3149 12.1102 23.3149 22.8166ZM3.89818 20.0393C3.89818 18.5075 5.14016 17.2655 6.672 17.2655C8.20384 17.2655 9.44581 18.5075 9.44581 20.0393C9.44581 21.5712 8.20384 22.8132 6.672 22.8132C5.14016 22.8132 3.89818 21.5712 3.89818 20.0393ZM13.1447 22.8156H16.8429C16.8429 15.6778 11.0359 9.87078 3.89818 9.87078V13.5697C8.99645 13.5697 13.1447 17.7173 13.1447 22.8156Z" fill="white"/>
</svg>
