<svg width="27" height="27" viewBox="0 0 27 27" fill="none" xmlns="http://www.w3.org/2000/svg">
<path fill-rule="evenodd" clip-rule="evenodd" d="M22.235 7.68358C22.8169 8.28857 23.0068 9.66243 23.0068 9.66243C23.0068 9.66243 23.201 11.2762 23.201 12.8893V14.4021C23.201 16.0158 23.0068 17.6289 23.0068 17.6289C23.0068 17.6289 22.8169 19.0028 22.235 19.6078C21.5697 20.3235 20.832 20.3974 20.4151 20.4392C20.3692 20.4438 20.3272 20.448 20.2896 20.4527C17.5725 20.6545 13.4925 20.6608 13.4925 20.6608C13.4925 20.6608 8.44412 20.6134 6.89077 20.4601C6.81717 20.446 6.72796 20.435 6.62693 20.4226C6.13489 20.362 5.36261 20.2669 4.74945 19.6078C4.16755 19.0028 3.97823 17.6289 3.97823 17.6289C3.97823 17.6289 3.78407 16.0158 3.78407 14.4021V12.8893C3.78407 11.2762 3.97823 9.66243 3.97823 9.66243C3.97823 9.66243 4.16755 8.28857 4.74945 7.68358C5.41621 6.96687 6.15459 6.89373 6.57159 6.85242C6.6168 6.84794 6.65823 6.84383 6.69539 6.83932C9.41254 6.63745 13.4883 6.63745 13.4883 6.63745H13.4968C13.4968 6.63745 17.5725 6.63745 20.2896 6.83932C20.3268 6.84384 20.3683 6.84795 20.4135 6.85244C20.8302 6.89375 21.5689 6.96699 22.235 7.68358ZM11.4834 10.6356L11.484 16.2376L16.7296 13.4463L11.4834 10.6356Z" fill="white"/>
</svg>
