<svg width="123" height="44" viewBox="0 0 123 44" fill="none" xmlns="http://www.w3.org/2000/svg">
<g clip-path="url(#clip0_0_446)">
<path d="M50.5021 0.25531H70.7637C70.8002 6.91982 70.8529 13.5843 70.7393 20.2488C64.0031 20.3572 57.2424 20.4976 50.494 20.289C50.4494 13.6124 50.4453 6.93185 50.5021 0.25531ZM51.297 1.0979C51.3294 7.23278 51.3254 13.3717 51.297 19.5106C55.5067 19.4744 59.7123 19.4865 63.926 19.3782C65.9173 19.4223 67.9004 19.2016 69.8958 19.2618C69.9566 13.2874 69.9728 7.31303 69.8877 1.34266C67.0569 1.41087 64.2342 1.04173 61.4075 1.31858C58.0576 0.925372 54.6631 1.23432 51.297 1.0979Z" fill="white"/>
<path d="M51.2939 1.0993C54.66 1.23572 58.0545 0.926773 61.4043 1.31998C58.1356 1.44437 54.8627 1.27184 51.594 1.38819C51.4764 7.32647 51.4845 13.2688 51.5899 19.203C55.6982 19.3956 59.8186 19.0586 63.9229 19.3796C59.7091 19.4879 55.5035 19.4759 51.2939 19.512C51.3222 13.3731 51.3263 7.23418 51.2939 1.0993Z" fill="white"/>
<path d="M61.4137 1.32004C64.2404 1.04319 67.0631 1.41232 69.8938 1.34411C69.979 7.31448 69.9628 13.2889 69.902 19.2632C67.9066 19.2031 65.9235 19.4237 63.9322 19.3796C59.828 19.0586 55.7075 19.3957 51.5992 19.2031C51.4938 13.2688 51.4857 7.32652 51.6033 1.38825C54.8721 1.27189 58.1449 1.44442 61.4137 1.32004ZM60.3673 3.40646C59.5927 5.48485 62.2045 5.63331 63.628 5.73763C62.2856 7.38269 61.1582 9.18022 60.0794 11.0018C59.6617 10.5845 59.244 10.1673 58.8262 9.75399C58.2625 10.7852 58.6478 11.8043 59.3129 12.675C58.4207 13.983 57.6055 16.0373 55.6751 15.8648C54.2191 15.9531 54.0569 14.2719 53.8014 13.2487C51.6236 15.1586 54.5355 18.2722 56.8796 17.1487C60.1118 16.5068 59.9983 11.371 63.628 12.017C63.5875 13.4975 63.1251 15.1666 63.9322 16.5268C65.0191 17.9994 67.3835 17.0524 67.9715 15.5679C67.1036 15.5438 66.0573 16.0574 65.303 15.4997C65.0028 14.2197 65.1853 12.8997 65.3354 11.6157C65.8788 11.692 66.4223 11.7682 66.9698 11.8444C67.4321 10.7049 66.6251 9.93053 65.5463 9.73393C65.9883 7.71171 66.544 5.70954 67.4483 3.83979C67.2334 3.71942 66.8035 3.48269 66.5886 3.36232C64.8487 4.72652 61.9287 5.32436 60.3673 3.40646Z" fill="white"/>
<path d="M6.08196 28.1752C6.33746 28.1672 6.84441 28.1551 7.09991 28.1471C7.08774 28.9817 7.07963 29.8122 7.07963 30.6468C7.97185 30.6428 8.86407 30.6428 9.7563 30.6468C9.75224 29.8162 9.74413 28.9897 9.73196 28.1631C9.99152 28.1591 10.5066 28.1551 10.7621 28.1551C10.6931 30.1332 10.6972 32.1153 10.7661 34.0974C10.5025 34.0974 9.97935 34.0934 9.7198 34.0894C9.74819 33.0702 9.76846 32.0511 9.78063 31.032C8.86813 31.028 7.95969 31.032 7.05124 31.04C7.06341 32.0591 7.08369 33.0823 7.11207 34.1014C6.85252 34.0974 6.33341 34.0894 6.07385 34.0854C6.13469 32.1153 6.13063 30.1452 6.08196 28.1752Z" fill="white"/>
<path d="M31.21 28.1537C31.4614 28.1577 31.9684 28.1657 32.2239 28.1697C32.1874 30.1398 32.1793 32.1139 32.236 34.0839C31.9765 34.0879 31.4614 34.092 31.2059 34.096C31.2668 32.1139 31.2627 30.1358 31.21 28.1537Z" fill="white"/>
<path d="M85.9595 28.1636C86.215 28.1636 86.726 28.1636 86.9815 28.1676C86.9288 29.9933 86.9409 31.8189 86.9369 33.6485C87.6993 33.6525 88.4658 33.6646 89.2283 33.7127C88.2184 34.3306 86.9896 34.0417 85.8743 34.1059C86.0284 32.1278 86.0163 30.1417 85.9595 28.1636Z" fill="white"/>
<path d="M60.3639 3.40186C61.9253 5.31976 64.8453 4.72192 66.5851 3.35773C66.8001 3.4781 67.23 3.71483 67.4449 3.8352C66.5405 5.70495 65.9849 7.70711 65.5429 9.72933C66.6216 9.92594 67.4287 10.7003 66.9664 11.8398C66.4189 11.7636 65.8754 11.6874 65.332 11.6111C65.1819 12.8951 64.9994 14.2151 65.2995 15.4951C66.0539 16.0528 67.1002 15.5392 67.9681 15.5633C67.38 17.0478 65.0156 17.9948 63.9288 16.5222C63.1217 15.162 63.584 13.4929 63.6246 12.0124C59.9949 11.3664 60.1084 16.5022 56.8761 17.1441C54.532 18.2676 51.6201 15.154 53.798 13.2441C54.0535 14.2673 54.2157 15.9485 55.6716 15.8602C57.6021 16.0327 58.4173 13.9784 59.3095 12.6704C58.6444 11.7997 58.2591 10.7806 58.8228 9.74939C59.2405 10.1627 59.6583 10.5799 60.076 10.9972C61.1548 9.17563 62.2822 7.3781 63.6246 5.73304C62.2011 5.62871 59.5893 5.48026 60.3639 3.40186ZM62.1119 10.596C62.6837 10.5238 63.2596 10.4475 63.8314 10.3753C64.1802 9.1355 64.4762 7.87563 64.5857 6.59168C63.5719 7.80341 62.7486 9.15557 62.1119 10.596Z" fill="white"/>
<path d="M62.1143 10.5974C62.7511 9.15697 63.5743 7.80481 64.5882 6.59308C64.4787 7.87703 64.1827 9.13691 63.8339 10.3767C63.2621 10.4489 62.6862 10.5252 62.1143 10.5974Z" fill="white"/>
<path d="M12.0619 28.1434C13.2502 28.1635 14.5074 27.9789 15.6024 28.5407C14.7223 28.5768 13.8382 28.5647 12.9541 28.5487C12.9785 29.2428 12.9987 29.9329 13.0231 30.6271C13.6395 30.6632 14.2519 30.7113 14.8602 30.7715C14.2641 30.9962 13.6395 31.1487 13.019 31.2971C12.9947 32.0956 12.9785 32.89 12.9622 33.6845C13.895 33.6644 14.8278 33.6403 15.7606 33.6845C14.6534 34.3866 13.2745 34.0015 12.0416 34.0978C12.1552 32.1116 12.1511 30.1255 12.0619 28.1434Z" fill="white"/>
<path d="M18.8854 28.1205C19.1166 28.1246 19.587 28.1286 19.8182 28.1286C20.0413 29.9301 18.707 33.6977 21.5905 33.6696C24.1049 32.9554 21.4364 28.7866 23.5088 28.0604C23.894 30.0665 23.5818 32.1249 23.7156 34.1551C23.3993 34.0668 22.7706 33.8903 22.4584 33.802C21.3674 34.2033 19.6398 34.6446 19.0193 33.3085C18.7678 31.5952 18.9544 29.8499 18.8854 28.1205Z" fill="white"/>
<path d="M24.9991 27.9713C27.1648 28.5732 27.5947 31.2454 29.1844 32.6176C29.2372 31.133 29.2209 29.6485 29.1601 28.1639C29.3345 28.1599 29.6792 28.1479 29.8496 28.1438C29.5738 30.2102 30.2146 32.425 29.3588 34.379C28.0246 32.7621 27.0472 30.8803 25.5831 29.3636C25.1005 30.7719 26.378 33.6849 24.918 34.0661C25.0275 32.0358 25.0843 30.0056 24.9991 27.9713Z" fill="white"/>
<path d="M32.9609 28.0703C33.188 28.1064 33.6463 28.1826 33.8734 28.2187C34.4696 29.7795 34.9157 31.4045 35.666 32.9051C36.3352 31.3764 36.8908 29.7996 37.2882 28.1786C37.5194 28.1585 37.9817 28.1144 38.2129 28.0943C37.2314 30.1848 36.4001 32.3394 35.374 34.4098C34.1573 32.4838 33.8004 30.1687 32.9609 28.0703Z" fill="white"/>
<path d="M38.8581 28.1489C40.0221 28.165 41.259 27.9844 42.3338 28.5381C41.4537 28.5742 40.5696 28.5622 39.6855 28.5502C39.7139 29.2483 39.7382 29.9424 39.7666 30.6366C40.3911 30.6687 41.0116 30.7168 41.6321 30.777C41.0157 30.9816 40.383 31.1421 39.7463 31.2946C39.726 32.1131 39.7139 32.9356 39.7017 33.7582C40.5939 33.6819 41.4821 33.5616 42.3621 33.385C42.2973 33.5576 42.1675 33.9026 42.1026 34.0711C41.0157 34.0792 39.9247 34.0872 38.8379 34.0992C38.9595 32.1171 38.9555 30.131 38.8581 28.1489Z" fill="white"/>
<path d="M43.3163 28.146C44.5005 28.2343 46.3539 27.5321 46.9217 28.9806C47.1934 29.9275 46.1917 30.4972 45.6685 31.1191C46.216 31.8614 46.7635 32.6077 47.3151 33.35C48.5561 33.3781 50.5027 34.5738 50.9488 32.7522C50.7461 31.2636 48.7264 31.1753 48.26 29.9516C47.8342 28.0657 50.7177 27.3676 51.764 28.5472C50.9407 28.6636 49.3631 27.9614 49.2171 29.1772C49.0224 30.9506 52.3115 30.7701 51.7599 32.7682C50.9569 34.9549 48.2722 33.996 46.581 33.7232C45.8267 32.8083 45.2346 31.7531 44.2774 31.0148C44.2288 32.0299 44.2288 33.0451 44.2491 34.0602C44.0138 34.0762 43.5434 34.1003 43.3082 34.1124C43.3974 32.1262 43.3974 30.1361 43.3163 28.146ZM44.3464 28.3466C44.2734 29.2093 44.2288 30.0719 44.2044 30.9386C46.4837 31.2636 46.7148 28.0296 44.3464 28.3466Z" fill="white"/>
<path d="M52.9887 28.1272C53.2239 28.1272 53.6862 28.1232 53.9215 28.1232C53.885 30.1293 53.8728 32.1355 53.9458 34.1417C53.7227 34.0695 53.2726 33.925 53.0495 33.8528C52.9522 31.9469 53.0941 30.033 52.9887 28.1272Z" fill="white"/>
<path d="M54.659 28.5272C56.188 27.7327 58.0495 28.3346 59.7122 28.1581C61.3669 27.7889 61.4521 29.8031 61.9712 30.8383C63.0905 30.1442 62.977 28.4991 64.1693 27.9053C64.0152 29.5784 62.2105 30.6176 62.3565 32.363C62.2267 33.0932 62.689 34.4534 61.4399 34.1204C61.7116 32.0902 61.2128 30.096 59.988 28.4469C59.1769 28.5352 58.3699 28.6074 57.5587 28.6797C57.0964 30.3648 58.455 33.4102 56.8369 34.1565C56.4151 32.3911 56.8247 30.4812 56.6665 28.6636C55.9974 28.6315 55.3282 28.5874 54.659 28.5272Z" fill="white"/>
<path d="M68.7842 28.1723C70.5727 27.4782 72.8641 28.6779 72.6248 30.7402C72.9979 32.7062 71.254 34.6562 69.206 34.1868C66.1967 33.8658 66.0994 29.063 68.7842 28.1723ZM69.5628 28.4572C66.9551 28.9266 67.3891 34.2309 70.2645 33.7535C72.5761 33.0032 72.2314 28.2927 69.5628 28.4572Z" fill="white"/>
<path d="M73.6303 28.1452C74.7456 28.2495 76.0596 27.8202 77.0126 28.5785C76.1813 28.5865 75.3458 28.5584 74.5144 28.5263C74.5185 29.2927 74.5225 30.0591 74.5266 30.8254C75.3012 30.8615 76.0758 30.9017 76.8504 30.9699C76.0839 31.1745 75.3012 31.3229 74.5185 31.4554C74.5225 32.3461 74.5347 33.2368 74.5509 34.1236C74.3238 34.1276 73.8655 34.1276 73.6384 34.1316C73.6546 32.1375 73.6628 30.1393 73.6303 28.1452Z" fill="white"/>
<path d="M81.9871 28.2005C82.3237 28.1804 82.6603 28.1564 82.9969 28.1363C83.5688 30.2067 84.3434 32.2128 85.2437 34.1668C83.7432 34.1909 83.7391 32.4415 83.2565 31.4344C82.5549 31.4264 81.8492 31.4224 81.1476 31.4184C80.592 32.3934 80.6974 34.1307 79.2496 34.1749C80.2513 32.2289 81.3666 30.315 81.9871 28.2005ZM82.2102 29.023C81.9141 29.669 81.6262 30.319 81.3463 30.969C81.9628 30.969 82.5792 30.977 83.1997 30.9851C82.8834 30.323 82.563 29.665 82.2102 29.023Z" fill="white"/>
<path d="M92.0167 28.1232C92.3493 28.1513 92.6778 28.1834 93.0103 28.2155C93.639 30.2337 94.4744 32.1837 95.1152 34.1979C93.3672 34.0534 94.1459 30.984 92.1506 31.3932C90.1147 30.9519 91.1123 34.3584 89.2671 34.1417C90.2485 32.1636 91.3597 30.2377 92.0167 28.1232ZM92.2438 28.9778C91.9316 29.6559 91.6436 30.346 91.3719 31.0401C91.9194 31.0442 92.4669 31.0442 93.0184 31.0442C92.8481 30.3259 92.6088 29.6238 92.2438 28.9778Z" fill="white"/>
<path d="M95.8841 28.1099C96.9628 28.138 98.0903 27.9294 99.1366 28.2584C100.045 28.9244 99.4002 29.9115 98.8406 30.5494C99.3759 31.1433 100.264 31.8053 99.8707 32.7201C99.384 34.5136 97.0926 34.0402 95.6853 34.1003C95.9652 32.1142 95.9124 30.1081 95.8841 28.1099ZM96.7641 28.3908C96.8047 30.1361 96.7884 31.8775 96.7357 33.6229C98.9257 34.5537 99.8463 31.1713 97.5347 30.8503C98.2809 30.3488 98.7635 29.6226 98.6662 28.6917C98.0294 28.5914 97.3968 28.4911 96.7641 28.3908Z" fill="white"/>
<path d="M102.674 28.195C103.003 28.175 103.331 28.1589 103.664 28.1429C104.325 30.1932 105.156 32.1793 105.911 34.1975C104.511 34.0731 104.479 32.4 103.944 31.429C103.238 31.425 102.532 31.421 101.827 31.417C101.275 32.396 101.377 34.1333 99.9247 34.1775C100.939 32.2275 102.05 30.3095 102.674 28.195ZM102.893 29.0216C102.597 29.6676 102.309 30.3176 102.029 30.9676C102.646 30.9676 103.262 30.9756 103.883 30.9836C103.562 30.3216 103.246 29.6636 102.893 29.0216Z" fill="white"/>
<path d="M106.769 28.1045C107.028 28.1125 107.555 28.1246 107.819 28.1326C108.391 29.557 108.865 31.0215 109.397 32.4619C110.309 31.1499 110.78 29.6172 111.465 28.1888C111.692 28.1567 112.146 28.0925 112.377 28.0604C112.576 30.0505 112.418 32.0607 112.682 34.0508C112.39 34.0628 111.806 34.0869 111.518 34.0989C111.55 32.5141 111.583 30.9292 111.506 29.3443C110.609 30.8168 110.025 32.4378 109.356 34.0107C108.508 32.5101 108.103 30.8048 107.174 29.3443C106.793 30.865 107.604 33.0397 106.732 34.1551C106.294 32.3736 106.809 30.0826 106.769 28.1045Z" fill="white"/>
<path d="M115.945 28.1654C116.152 28.1534 116.566 28.1253 116.777 28.1133C117.482 30.1556 118.289 32.1617 119.084 34.1719C117.211 34.3003 118.034 31.0182 116.083 31.3954C114.064 30.9701 115.029 34.3204 113.204 34.1599C114.161 32.1818 115.28 30.2719 115.945 28.1654ZM115.3 31.0343C115.824 31.0423 116.351 31.0503 116.878 31.0583C116.72 30.3722 116.554 29.6861 116.375 29.008C115.872 29.6019 115.548 30.308 115.3 31.0343Z" fill="white"/>
<path d="M0.505737 28.1881C2.09146 28.1199 3.68935 28.0958 5.2629 28.3606C4.60185 28.497 3.94079 28.6254 3.27974 28.7458C3.26352 30.5273 3.26757 32.3088 3.28379 34.0943C3.05263 34.0862 2.59435 34.0742 2.36724 34.0702C2.43213 32.2767 2.42807 30.4832 2.42402 28.6936C1.78324 28.6535 1.14652 28.6174 0.505737 28.5813V28.1881Z" fill="white"/>
<path opacity="0.66" d="M119.676 29.5338C119.376 28.0493 121.197 28.1335 122.166 28.2298V30.4446C121.282 30.5851 119.713 30.8419 119.676 29.5338Z" fill="#6C1424"/>
<path opacity="0.31" d="M11.8849 40.5654C12.2661 40.9666 12.6432 41.3718 13.0164 41.7811C13.4503 40.7941 14.0384 40.8141 14.6021 41.7089C14.9387 41.3678 15.2712 41.0308 15.6119 40.6938C15.4254 41.6607 15.2307 42.6237 15.036 43.5907H12.7C12.3594 42.5996 12.112 41.5845 11.8849 40.5654Z" fill="white"/>
<path opacity="0.31" d="M17.9426 40.6809C18.697 41.8646 19.577 41.8365 20.376 40.701C20.3881 41.6639 20.4044 42.6269 20.4246 43.5899H17.894C17.9143 42.6189 17.9345 41.6479 17.9426 40.6809Z" fill="white"/>
<path opacity="0.31" d="M27.2731 40.6974C27.926 40.7336 28.579 40.7737 29.236 40.8138C29.2441 41.7407 29.2482 42.6635 29.2603 43.5903H27.2244C27.2406 42.6274 27.2569 41.6604 27.2731 40.6974Z" fill="white"/>
<path opacity="0.31" d="M57.4063 40.6473C57.9659 41.0486 58.5256 41.4538 59.0853 41.859C59.3124 41.4377 59.5395 41.0165 59.7707 40.5952C59.8153 41.5942 59.8518 42.5933 59.8842 43.5924H57.3089C57.3373 42.6094 57.3698 41.6303 57.4063 40.6473Z" fill="white"/>
<path opacity="0.31" d="M74.1276 43.5914C74.6021 42.5402 75.1171 41.505 75.7822 40.5621C76.2121 41.5652 76.5974 42.5883 77.0354 43.5914H74.1276Z" fill="white"/>
<path opacity="0.31" d="M79.1976 40.7238C79.8708 40.7318 80.544 40.7358 81.2172 40.7438C81.2132 41.6947 81.2132 42.6417 81.2091 43.5886H79.1327C79.153 42.6336 79.1732 41.6787 79.1976 40.7238Z" fill="white"/>
<path opacity="0.31" d="M97.5831 40.8726C98.7511 40.8605 98.6578 42.7864 99.2662 43.5889H96.407C96.8004 42.6861 97.1046 41.7392 97.5831 40.8726Z" fill="white"/>
<path opacity="0.31" d="M101.487 40.6612C102.282 40.7374 103.081 40.8217 103.884 40.9059C103.872 41.8047 103.827 42.7035 103.665 43.5902H101.439C101.451 42.6112 101.467 41.6362 101.487 40.6612Z" fill="white"/>
<path opacity="0.58" d="M22.9215 40.7795C23.5906 40.7715 24.2598 40.7594 24.9249 40.7514C24.4301 41.0363 23.9354 41.3171 23.4446 41.602C23.8745 41.8026 24.3044 42.0033 24.7343 42.2039C24.2801 42.4005 23.8218 42.5971 23.3676 42.7937C23.9435 43.0625 24.5234 43.3313 25.1074 43.5841H22.8728C22.889 42.6492 22.9052 41.7144 22.9215 40.7795Z" fill="white"/>
<path opacity="0.58" d="M31.8201 40.774C32.4893 40.766 33.1625 40.762 33.8317 40.758C33.3734 41.0188 32.9151 41.2796 32.4568 41.5404C32.7448 41.7811 33.0327 42.0219 33.3207 42.2666C33.0855 42.4151 32.615 42.716 32.3838 42.8685C32.9313 43.1132 33.4788 43.358 34.0344 43.5867H31.7674C31.7836 42.6478 31.7998 41.7129 31.8201 40.774Z" fill="white"/>
<path opacity="0.58" d="M43.5227 40.7514C44.2122 40.7554 44.9016 40.7634 45.587 40.7715C45.1125 41.0242 44.638 41.281 44.1635 41.5338C44.4636 41.7665 44.7637 41.9992 45.0639 42.232C44.8124 42.3884 44.3095 42.6934 44.0581 42.8458C44.6299 43.0986 45.2017 43.3474 45.7817 43.5841H43.4619C43.4822 42.6372 43.5025 41.6943 43.5227 40.7514Z" fill="white"/>
<path opacity="0.58" d="M48.2536 43.5879C47.0694 41.7623 48.7565 39.8163 50.6424 41.1564C49.9164 41.2407 49.1905 41.3169 48.4645 41.3851C48.4807 41.9067 48.4929 42.4284 48.5091 42.95C48.9836 43.0302 49.4541 43.1105 49.9286 43.1907C49.7258 42.7614 49.519 42.3361 49.3162 41.9067C49.5636 41.9429 50.0584 42.0111 50.3057 42.0432C50.3787 42.5608 50.4558 43.0743 50.5288 43.5879H48.2536Z" fill="white"/>
<path opacity="0.58" d="M52.9751 40.797C53.6484 40.777 54.3175 40.7609 54.9907 40.7449C54.5162 41.0017 54.0417 41.2544 53.5713 41.5112C53.9769 41.768 54.3824 42.0208 54.788 42.2776C54.4595 42.3739 53.7944 42.5705 53.4659 42.6668C54.0053 42.9637 54.5365 43.2767 55.0719 43.5856H52.9508C52.9589 42.6548 52.967 41.7279 52.9751 40.797Z" fill="white"/>
<path opacity="0.58" d="M62.4689 40.6182C64.375 40.2932 65.3524 42.0947 64.2818 43.5873H62.4C62.4162 42.5963 62.4405 41.6092 62.4689 40.6182ZM62.984 41.1639C62.9921 41.854 63.0043 42.5441 63.0205 43.2383C63.4098 43.0737 63.7992 42.9052 64.1885 42.7407C64.1358 42.2793 64.079 41.8179 64.0263 41.3605C63.7667 41.3083 63.2436 41.212 62.984 41.1639Z" fill="white"/>
<path opacity="0.58" d="M67.4261 40.7612C67.7383 40.7372 68.3589 40.693 68.6711 40.6689C68.4643 40.9338 68.2615 41.2026 68.0547 41.4674C68.4967 42.1696 68.9226 42.8757 69.3443 43.5859H67.2598C67.2395 43.4335 67.1949 43.1325 67.1706 42.9801C67.5842 42.956 67.9938 42.9319 68.4075 42.9038C67.9736 42.4424 67.5356 41.985 67.1016 41.5236C67.1827 41.331 67.345 40.9498 67.4261 40.7612Z" fill="white"/>
<path opacity="0.58" d="M83.7667 40.7955C84.4318 40.7795 85.0929 40.7634 85.762 40.7514C85.2672 41.0403 84.7765 41.3292 84.2858 41.6181C84.7279 41.8187 85.1699 42.0153 85.616 42.2159C85.1415 42.4045 84.667 42.5931 84.1966 42.7857C84.7765 43.0585 85.3565 43.3313 85.9486 43.5881H83.7221C83.7342 42.6573 83.7505 41.7264 83.7667 40.7955Z" fill="white"/>
<path opacity="0.58" d="M91.344 40.7019C91.8022 41.0791 92.2605 41.4562 92.7188 41.8374C93.2095 41.4643 93.7002 41.0951 94.195 40.726C94.2031 41.6769 94.2112 42.6318 94.2153 43.5868H93.757C93.757 43.1013 93.753 42.6158 93.753 42.1303C93.4447 42.2747 93.1406 42.4192 92.8364 42.5636C92.4876 42.4392 92.1429 42.3149 91.7941 42.1865C91.7941 42.6519 91.7901 43.1213 91.786 43.5868H91.3156C91.3237 42.6238 91.3318 41.6649 91.344 40.7019Z" fill="white"/>
<path opacity="0.75" d="M39.3313 43.5855C39.3881 42.5865 39.457 41.5914 39.5909 40.6003C39.7287 41.4148 39.8504 42.2334 39.9559 43.0519C40.402 43.2324 40.8521 43.413 41.3064 43.5855H39.3313Z" fill="white"/>
<path opacity="0.75" d="M106.387 40.7968C106.955 40.7848 107.522 40.7768 108.094 40.7687C107.6 41.0456 107.109 41.3184 106.618 41.5993C107.072 41.8079 107.531 42.0206 107.989 42.2292C107.636 42.3456 106.926 42.5783 106.573 42.6947C107.226 43.0156 107.887 43.3206 108.569 43.5854H106.302C106.33 42.6545 106.359 41.7237 106.387 40.7968Z" fill="white"/>
</g>
<defs>
<clipPath id="clip0_0_446">
<rect width="121.667" height="43.3333" fill="white" transform="translate(0.500183 0.254578)"/>
</clipPath>
</defs>
</svg>
