<svg width="177" height="55" viewBox="0 0 177 55" fill="none" xmlns="http://www.w3.org/2000/svg">
<path d="M2.93776 39.7543V14.7813H6.79073V39.7543H2.93776ZM12.3528 39.7543V14.7813H19.595L25.0533 37.1856H25.6241L31.0825 14.7813H38.3247V39.7543H34.5787V17.4926H34.0079L28.5852 39.7543H22.0923L16.6696 17.4926H16.0987V39.7543H12.3528ZM43.8909 39.7543V14.7813H53.8088C55.3309 14.7813 56.6866 15.0905 57.8758 15.7089C59.0888 16.3035 60.0282 17.1597 60.6942 18.2775C61.3839 19.3716 61.7288 20.6916 61.7288 22.2375V22.7013C61.7288 24.2472 61.372 25.5791 60.6585 26.697C59.9688 27.8148 59.0293 28.671 57.8401 29.2656C56.6509 29.8602 55.3071 30.1575 53.8088 30.1575H47.7439V39.7543H43.8909ZM47.7439 26.6613H53.4163C54.772 26.6613 55.8542 26.3045 56.6628 25.591C57.4715 24.8775 57.8758 23.9024 57.8758 22.6656V22.3089C57.8758 21.0483 57.4715 20.0613 56.6628 19.3478C55.8542 18.6343 54.772 18.2775 53.4163 18.2775H47.7439V26.6613ZM65.7437 39.7543V14.7813H76.2323C77.7783 14.7813 79.1339 15.0548 80.2994 15.6018C81.4885 16.1251 82.4042 16.8862 83.0464 17.8851C83.7123 18.884 84.0453 20.0732 84.0453 21.4526V21.8451C84.0453 23.4148 83.6648 24.6754 82.9037 25.6267C82.1664 26.5543 81.2626 27.2083 80.1923 27.5889V28.1597C81.0961 28.2072 81.8215 28.5164 82.3685 29.0872C82.9156 29.6343 83.1891 30.431 83.1891 31.4775V39.7543H79.3004V32.0127C79.3004 31.3705 79.1339 30.8591 78.801 30.4786C78.468 30.0981 77.9329 29.9078 77.1956 29.9078H69.5966V39.7543H65.7437ZM69.5966 26.4116H75.8042C77.1837 26.4116 78.2539 26.0667 79.015 25.377C79.7761 24.6635 80.1567 23.7002 80.1567 22.4872V22.2018C80.1567 20.9889 79.7761 20.0375 79.015 19.3478C78.2777 18.6343 77.2075 18.2775 75.8042 18.2775H69.5966V26.4116ZM140.54 39.7543L133.583 14.7813H137.579L143.643 37.3283H144.107L150.136 14.7813H154.132L147.211 39.7543H140.54ZM157.883 39.7543V14.7813H173.616V18.2775H161.736V25.4483H172.617V28.9445H161.736V36.2581H173.794V39.7543H157.883Z" fill="white"/>
<path fill-rule="evenodd" clip-rule="evenodd" d="M92.502 38.5532C94.4884 40.435 97.1673 41.3759 100.539 41.3759C103.91 41.3759 106.589 40.435 108.576 38.5532C108.735 38.4017 108.889 38.2449 109.036 38.0829C109.181 38.2449 109.333 38.4017 109.49 38.5532C111.477 40.435 114.156 41.3759 117.527 41.3759C120.899 41.3759 123.578 40.435 125.564 38.5532C127.577 36.6453 128.583 33.901 128.583 30.3203V23.8909C128.583 20.3102 127.577 17.579 125.564 15.6972C123.578 13.7893 120.899 12.8353 117.527 12.8353C114.156 12.8353 111.477 13.7893 109.49 15.6972C109.333 15.8466 109.181 16.0014 109.036 16.1616C108.889 16.0014 108.735 15.8466 108.576 15.6972C106.589 13.7893 103.91 12.8353 100.539 12.8353C97.1673 12.8353 94.4884 13.7893 92.502 15.6972C90.5157 17.579 89.5225 20.3102 89.5225 23.8909V30.3203C89.5225 33.901 90.5157 36.6453 92.502 38.5532ZM111.262 33.6097C111.484 32.6054 111.594 31.5089 111.594 30.3203V23.8909C111.594 22.704 111.484 21.6105 111.263 20.6102C111.562 19.8252 111.99 19.1415 112.548 18.5591C113.751 17.2785 115.41 16.6381 117.527 16.6381C119.697 16.6381 121.369 17.2785 122.545 18.5591C123.722 19.8136 124.31 21.5386 124.31 23.7341V30.4771C124.31 32.6726 123.722 34.4106 122.545 35.6913C121.369 36.9458 119.697 37.5731 117.527 37.5731C115.41 37.5731 113.751 36.9458 112.548 35.6913C111.99 35.0962 111.561 34.4023 111.262 33.6097ZM106.83 20.6506C106.536 19.8486 106.112 19.1514 105.557 18.5591C104.381 17.2785 102.708 16.6381 100.539 16.6381C98.4218 16.6381 96.7622 17.2785 95.56 18.5591C94.3577 19.8136 93.7566 21.5386 93.7566 23.7341V30.4771C93.7566 32.6726 94.3577 34.4106 95.56 35.6913C96.7622 36.9458 98.4218 37.5731 100.539 37.5731C102.708 37.5731 104.381 36.9458 105.557 35.6913C106.113 35.086 106.537 34.3786 106.83 33.569C106.617 32.5758 106.511 31.4929 106.511 30.3203V23.8909C106.511 22.7199 106.617 21.6399 106.83 20.6506Z" fill="#FEBB0E"/>
</svg>
