<svg width="27" height="27" viewBox="0 0 27 27" fill="none" xmlns="http://www.w3.org/2000/svg">
<path fill-rule="evenodd" clip-rule="evenodd" d="M13.2591 3.40576C10.6224 3.40576 10.2918 3.41694 9.2563 3.46419C8.22295 3.51132 7.51721 3.67545 6.89968 3.91546C6.26126 4.16353 5.71984 4.49549 5.18008 5.03522C4.64036 5.57498 4.3084 6.11639 4.06033 6.75481C3.82032 7.37234 3.65618 8.07808 3.60905 9.11143C3.5618 10.1469 3.55063 10.4776 3.55063 13.1142C3.55063 15.7509 3.5618 16.0815 3.60905 17.117C3.65618 18.1504 3.82032 18.8561 4.06033 19.4736C4.3084 20.112 4.64036 20.6535 5.18008 21.1932C5.71984 21.7329 6.26126 22.0649 6.89968 22.313C7.51721 22.553 8.22295 22.7171 9.2563 22.7642C10.2918 22.8115 10.6224 22.8227 13.2591 22.8227C15.8957 22.8227 16.2264 22.8115 17.2619 22.7642C18.2952 22.7171 19.001 22.553 19.6185 22.313C20.2569 22.0649 20.7983 21.7329 21.3381 21.1932C21.8778 20.6535 22.2098 20.112 22.4579 19.4736C22.6978 18.8561 22.862 18.1504 22.9091 17.117C22.9564 16.0815 22.9675 15.7509 22.9675 13.1142C22.9675 10.4776 22.9564 10.1469 22.9091 9.11143C22.862 8.07808 22.6978 7.37234 22.4579 6.75481C22.2098 6.11639 21.8778 5.57498 21.3381 5.03522C20.7983 4.49549 20.2569 4.16353 19.6185 3.91546C19.001 3.67545 18.2952 3.51132 17.2619 3.46419C16.2264 3.41694 15.8957 3.40576 13.2591 3.40576ZM13.2595 5.15519C15.8518 5.15519 16.1589 5.1651 17.1826 5.2118C18.1291 5.25497 18.6432 5.41313 18.9853 5.54608C19.4385 5.7222 19.7619 5.93258 20.1016 6.27233C20.4413 6.61204 20.6517 6.93544 20.8278 7.38861C20.9608 7.73071 21.1189 8.24477 21.1621 9.19133C21.2088 10.215 21.2187 10.5221 21.2187 13.1144C21.2187 15.7066 21.2088 16.0137 21.1621 17.0374C21.1189 17.984 20.9608 18.498 20.8278 18.8401C20.6517 19.2933 20.4413 19.6167 20.1016 19.9564C19.7619 20.2962 19.4385 20.5066 18.9853 20.6827C18.6432 20.8156 18.1291 20.9738 17.1826 21.017C16.159 21.0637 15.852 21.0736 13.2595 21.0736C10.6671 21.0736 10.3601 21.0637 9.33648 21.017C8.38992 20.9738 7.87586 20.8156 7.53376 20.6827C7.0806 20.5066 6.75719 20.2962 6.41748 19.9564C6.07776 19.6167 5.86735 19.2933 5.69123 18.8401C5.55828 18.498 5.40012 17.984 5.35695 17.0374C5.31025 16.0137 5.30034 15.7066 5.30034 13.1144C5.30034 10.5221 5.31025 10.215 5.35695 9.19133C5.40012 8.24477 5.55828 7.73071 5.69123 7.38861C5.86735 6.93544 6.07773 6.61204 6.41748 6.27233C6.75719 5.93258 7.0806 5.7222 7.53376 5.54608C7.87586 5.41313 8.38992 5.25497 9.33648 5.2118C10.3602 5.1651 10.6673 5.15519 13.2595 5.15519ZM8.27197 13.1158C8.27197 10.3624 10.504 8.13037 13.2574 8.13037C16.0108 8.13037 18.2428 10.3624 18.2428 13.1158C18.2428 15.8692 16.0108 18.1012 13.2574 18.1012C10.504 18.1012 8.27197 15.8692 8.27197 13.1158ZM13.2579 16.3495C11.4706 16.3495 10.0217 14.9006 10.0217 13.1134C10.0217 11.3261 11.4706 9.8772 13.2579 9.8772C15.0451 9.8772 16.494 11.3261 16.494 13.1134C16.494 14.9006 15.0451 16.3495 13.2579 16.3495ZM18.4373 9.09629C19.0808 9.09629 19.6024 8.57472 19.6024 7.93129C19.6024 7.28786 19.0808 6.76625 18.4373 6.76625C17.7939 6.76625 17.2723 7.28786 17.2723 7.93129C17.2723 8.57472 17.7939 9.09629 18.4373 9.09629Z" fill="white"/>
</svg>
