<svg width="123" height="42" viewBox="0 0 123 42" fill="none" xmlns="http://www.w3.org/2000/svg">
<g clip-path="url(#clip0_0_350)">
<path d="M56.7222 0.696028C58.0595 0.680632 59.3967 0.682556 60.734 0.707576C60.7269 0.813426 60.7208 0.919277 60.7146 1.02609C61.2986 1.00588 61.8804 1.06266 62.4643 1.07805C62.4562 1.18198 62.449 1.28591 62.4429 1.38983C62.8278 1.38406 63.2116 1.42544 63.5944 1.47163C63.621 1.83152 63.672 2.18948 63.6894 2.5513C63.7986 2.54457 63.9088 2.53783 64.0201 2.53109C64.0232 2.69757 64.0262 2.86308 64.0313 3.02859C64.1487 3.02955 64.2661 3.02955 64.3835 3.02955C64.3958 3.54052 64.4774 4.04765 64.5132 4.55765C64.3662 4.54707 64.2202 4.53841 64.0752 4.53071C64.062 4.39022 64.0497 4.25069 64.0375 4.11116C63.9099 4.11019 63.7822 4.10923 63.6557 4.11019C63.6506 3.98413 63.6465 3.85808 63.6444 3.73298C63.5117 3.73009 63.379 3.72624 63.2483 3.7224C63.2412 3.5973 63.2351 3.4722 63.231 3.34711C63.084 3.34037 62.938 3.3346 62.7931 3.32786C62.7941 3.21527 62.7971 3.10365 62.8002 2.99106C62.6532 2.99106 62.5072 2.9901 62.3623 2.98914C62.3623 2.8727 62.3643 2.75627 62.3674 2.64079C62.0918 2.62059 61.8171 2.58498 61.5446 2.55226C61.5507 2.45026 61.5589 2.34826 61.567 2.24626C61.1781 2.21547 60.7912 2.16543 60.4023 2.15388C60.4084 2.05188 60.4155 1.94892 60.4237 1.84691C58.8894 1.77282 57.35 1.77186 55.8157 1.84306C55.8218 1.94603 55.8279 2.04899 55.8351 2.15292C55.4441 2.15388 55.0562 2.19141 54.6693 2.23567C54.6734 2.33864 54.6785 2.4416 54.6836 2.54457C54.4151 2.58017 54.1486 2.61962 53.8791 2.64272C53.8791 2.76108 53.8791 2.8804 53.8791 2.99876C53.7424 2.99972 53.6066 2.99972 53.4708 2.99876C53.432 3.23067 53.3902 3.46258 53.3636 3.69545C53.235 3.69641 53.1064 3.69834 52.9798 3.70123C52.9767 3.83306 52.9757 3.96489 52.9757 4.09672C52.8604 4.08902 52.745 4.08229 52.6307 4.07555C52.6276 4.23433 52.6245 4.3931 52.6215 4.55188C52.4939 4.54899 52.3673 4.54611 52.2407 4.54226C52.2346 4.80881 52.2203 5.07536 52.208 5.34191C52.0927 5.34383 51.9773 5.34576 51.863 5.34768C51.8283 6.32632 51.8109 7.30785 51.8701 8.28648C51.9835 8.29033 52.0978 8.29322 52.2121 8.29803C52.2162 8.46162 52.2203 8.62617 52.2254 8.79072C52.3367 8.78398 52.4479 8.77725 52.5612 8.77051C52.5837 9.013 52.6194 9.25454 52.6501 9.49607C52.7644 9.49029 52.8787 9.48548 52.9941 9.47971C52.9961 9.6125 52.9982 9.74626 53.0002 9.87905C53.1544 9.88194 53.3085 9.88579 53.4637 9.88964C53.4596 10.007 53.4555 10.1244 53.4524 10.2418C53.7056 10.2717 53.9577 10.3082 54.2119 10.3342C54.2048 10.4391 54.1976 10.544 54.1925 10.6498C54.4671 10.6777 54.7417 10.7057 55.0184 10.721C55.0153 10.8336 55.0123 10.9462 55.0102 11.0598C55.2889 11.0723 55.5676 11.0858 55.8473 11.0935C55.8402 11.1983 55.833 11.3032 55.8269 11.4081C56.3639 11.4274 56.8978 11.4928 57.4357 11.512C57.4378 11.6189 57.4408 11.7266 57.4449 11.8344C57.7287 11.845 58.0135 11.8575 58.2983 11.8613C58.2902 11.9653 58.283 12.0692 58.2759 12.1722C58.5831 12.1953 58.8904 12.228 59.1987 12.2472C59.1895 12.3483 59.1824 12.4493 59.1752 12.5513C59.5897 12.5532 60.0031 12.5946 60.4166 12.6321C60.4084 12.7341 60.4012 12.8371 60.3941 12.9391C60.6759 12.9487 60.9576 12.9689 61.2393 12.9911C61.2342 13.0979 61.2291 13.2057 61.2251 13.3125C61.6099 13.324 61.9917 13.3779 62.3755 13.4125C62.3704 13.528 62.3674 13.6435 62.3653 13.7599C62.5266 13.7647 62.6889 13.7686 62.8512 13.7734C62.8451 13.8821 62.839 13.9918 62.8339 14.1015C63.085 14.1333 63.3361 14.1679 63.5903 14.1891C63.5883 14.3094 63.5883 14.4306 63.5903 14.5509C63.7292 14.5519 63.87 14.5519 64.0109 14.5509C64.0079 14.676 64.0048 14.8021 64.0048 14.9272C64.1416 14.9272 64.2794 14.9252 64.4182 14.9243C64.4509 15.1591 64.4876 15.3939 64.5101 15.6306C64.6377 15.6306 64.7674 15.6316 64.897 15.6335C64.897 15.7653 64.897 15.8971 64.896 16.029C65.0348 16.0232 65.1747 16.0184 65.3155 16.0136C65.3115 16.1454 65.3084 16.2782 65.3043 16.411C65.4135 16.41 65.5228 16.4091 65.634 16.41C65.6626 14.7684 65.631 13.1267 65.7341 11.488C65.8402 11.4928 65.9485 11.4986 66.0577 11.5043C66.073 11.207 66.0985 10.9106 66.1138 10.6142C66.222 10.621 66.3313 10.6267 66.4415 10.6344C66.4487 10.2438 66.4864 9.85404 66.5273 9.46624C66.6345 9.47297 66.7437 9.47971 66.8529 9.48644C66.8652 9.22182 66.8897 8.95912 66.9172 8.69545C67.0295 8.70026 67.1418 8.70604 67.2561 8.71181C67.2715 8.44815 67.3021 8.18544 67.3337 7.9237C67.443 7.92948 67.5522 7.93621 67.6624 7.94199C67.6808 7.68506 67.7145 7.42909 67.7502 7.17313C67.8625 7.1789 67.9768 7.18371 68.0912 7.18949C68.1238 6.9518 68.1606 6.71412 68.182 6.47451C68.3056 6.47644 68.4291 6.47836 68.5546 6.47932C68.5557 6.34172 68.5567 6.20411 68.5577 6.06651C68.6771 6.07132 68.7966 6.07613 68.9181 6.07998C68.9201 5.93371 68.9232 5.78841 68.9283 5.64214C69.061 5.64407 69.1957 5.64599 69.3305 5.64888C69.3274 5.51801 69.3264 5.38714 69.3274 5.25723C69.4632 5.25819 69.6 5.25915 69.7378 5.26108C69.7347 5.13117 69.7337 5.00126 69.7337 4.87136C69.8705 4.87232 70.0073 4.87424 70.1461 4.87617C70.1431 4.74722 70.142 4.61731 70.141 4.48837C70.2788 4.48933 70.4177 4.49029 70.5565 4.49126C70.5524 4.36423 70.5504 4.23818 70.5504 4.11116C70.7045 4.10731 70.8607 4.10442 71.0179 4.10153C71.0108 3.9928 71.0057 3.88406 71.0006 3.77532C71.2507 3.7426 71.5018 3.707 71.755 3.68487C71.7539 3.56651 71.7539 3.44911 71.755 3.33075C71.8979 3.32882 72.0418 3.3269 72.1868 3.3269C72.1786 3.21912 72.1715 3.11135 72.1664 3.00357C72.4379 2.97086 72.7115 2.93718 72.9861 2.91793C72.981 2.80534 72.9779 2.69179 72.9759 2.57825C73.1423 2.57343 73.3087 2.56959 73.4771 2.56477C73.4689 2.457 73.4628 2.35019 73.4567 2.24241C73.8446 2.21162 74.2315 2.16447 74.6225 2.15196C74.6143 2.04707 74.6082 1.94122 74.6021 1.83537C74.7766 1.83248 74.9522 1.82959 75.1278 1.82671C75.1278 1.71604 75.1278 1.60634 75.1288 1.49568C75.776 1.46778 76.4202 1.37732 77.0704 1.38791C77.0633 1.28302 77.0561 1.17813 77.051 1.07324C77.635 1.04726 78.2189 1.00781 78.8038 1.02609C78.7967 0.920239 78.7905 0.814389 78.7844 0.707576C80.5311 0.671009 82.2777 0.690255 84.0233 0.691217C84.0162 0.798992 84.0111 0.906767 84.006 1.01454C84.8155 1.00492 85.6209 1.07998 86.4294 1.11654C86.4305 1.22336 86.4335 1.33113 86.4366 1.43795C86.7459 1.44949 87.0562 1.46008 87.3666 1.46585C87.3584 1.56785 87.3513 1.67082 87.3451 1.77282C87.8545 1.79976 88.3598 1.87674 88.8702 1.89503C88.8733 2.00184 88.8774 2.10769 88.8835 2.2145C89.0591 2.21932 89.2347 2.22316 89.4123 2.22605C89.4042 2.33671 89.397 2.44641 89.3909 2.55611C89.5083 2.55034 89.6257 2.5436 89.7451 2.53783C89.7482 2.70142 89.7523 2.865 89.7574 3.02859C89.8737 3.02955 89.9911 3.02955 90.1106 3.02955C90.1249 3.41447 90.1545 3.79745 90.1759 4.1814C90.2902 4.1814 90.4056 4.1814 90.523 4.1814C90.5424 4.54033 90.5577 4.90022 90.5638 5.26012C90.4403 5.26012 90.3188 5.26012 90.1984 5.26108C90.2014 5.14849 90.2045 5.03494 90.2096 4.92236C90.0534 4.91947 89.8982 4.91754 89.7441 4.91466C89.7451 4.78667 89.7471 4.65773 89.7502 4.52975C89.6052 4.53071 89.4613 4.53071 89.3194 4.53071C89.3194 4.41235 89.3225 4.29303 89.3266 4.17467C89.0765 4.14291 88.8294 4.10249 88.5803 4.07266C88.5834 3.95815 88.5865 3.8446 88.5895 3.73009C88.4241 3.72528 88.2588 3.72047 88.0954 3.71662C88.1005 3.60981 88.1077 3.503 88.1148 3.39522C87.8596 3.36347 87.6054 3.3269 87.3502 3.30573C87.3563 3.20276 87.3635 3.10076 87.3717 2.9978C87.092 2.96797 86.8143 2.93814 86.5346 2.92274C86.5407 2.81882 86.5468 2.71489 86.555 2.61193C86.2753 2.58306 85.9966 2.55323 85.7179 2.53687C85.724 2.43583 85.7312 2.33575 85.7393 2.23471C85.1993 2.18756 84.6573 2.14618 84.1152 2.13945C84.1132 2.03071 84.1121 1.92101 84.1121 1.81131C83.6671 1.80072 83.221 1.78725 82.7759 1.78244C82.782 1.67659 82.7881 1.57074 82.7963 1.46489C81.3222 1.45046 79.8471 1.46008 78.373 1.47355C78.3791 1.58036 78.3853 1.68814 78.3924 1.79591C77.9412 1.79014 77.49 1.80457 77.0398 1.83729C77.0439 1.93929 77.049 2.04129 77.0541 2.1433C76.511 2.14907 75.97 2.18949 75.43 2.23664C75.4361 2.3396 75.4432 2.44353 75.4514 2.54745C75.1676 2.55804 74.8859 2.58306 74.6041 2.60904C74.6102 2.71296 74.6163 2.81689 74.6245 2.92082C74.3479 2.93718 74.0723 2.96893 73.7987 3.00069C73.8048 3.10461 73.8109 3.2095 73.8191 3.31343C73.5649 3.34326 73.3127 3.37886 73.0586 3.40388C73.0616 3.52128 73.0647 3.63868 73.0677 3.75511C72.9075 3.75992 72.7472 3.76377 72.589 3.76762C72.592 3.88021 72.5961 3.99376 72.6012 4.10634C72.4583 4.10634 72.3154 4.10634 72.1745 4.10731C72.1755 4.2324 72.1776 4.3575 72.1817 4.4826C72.0398 4.48163 71.8979 4.4826 71.758 4.48356C71.757 4.60769 71.758 4.73279 71.7611 4.85788C71.6253 4.85692 71.4916 4.85692 71.3578 4.85788C71.3568 4.98972 71.3568 5.12155 71.3589 5.25242C71.2272 5.24953 71.0965 5.24664 70.9669 5.24472C70.9648 5.3804 70.9638 5.51608 70.9648 5.65273C70.8444 5.64888 70.7239 5.64599 70.6045 5.6431C70.583 5.79322 70.5626 5.94237 70.5442 6.09249C70.433 6.08671 70.3237 6.07998 70.2145 6.07324C70.1798 6.31093 70.14 6.54765 70.1124 6.78629C69.9889 6.78244 69.8664 6.77955 69.7449 6.77763C69.7398 6.93544 69.7357 7.09326 69.7337 7.25203C69.6204 7.2453 69.5071 7.23856 69.3958 7.23183C69.3825 7.49645 69.357 7.76012 69.3305 8.02378C69.2172 8.01801 69.1039 8.01223 68.9916 8.00646C68.9722 8.39426 68.9201 8.77917 68.8976 9.16697C68.7864 9.16216 68.6761 9.15831 68.5669 9.1535C68.5628 9.5538 68.5332 9.95219 68.5107 10.3515C68.4015 10.3467 68.2933 10.3429 68.1861 10.3381C68.1555 11.7103 68.1657 13.0825 68.1922 14.4537C68.3076 14.4547 68.423 14.4566 68.5404 14.4585C68.5495 14.855 68.5659 15.2515 68.571 15.6479C68.6802 15.6412 68.7894 15.6344 68.8987 15.6277C68.914 16.0463 68.964 16.462 68.9803 16.8806C69.0875 16.8729 69.1947 16.8662 69.3029 16.8585C69.3182 17.2511 69.3591 17.6408 69.3836 18.0324C69.4918 18.0257 69.601 18.019 69.7102 18.0122C69.7347 18.4905 69.8113 18.9649 69.8429 19.4431C69.9583 19.4508 70.0747 19.4595 70.1921 19.4682C70.2094 19.7155 70.2298 19.9637 70.2472 20.211C70.3707 20.2236 70.4942 20.2361 70.6188 20.2486C70.6167 20.3804 70.6147 20.5132 70.6126 20.645C70.7382 20.6412 70.8658 20.6373 70.9934 20.6344C70.9965 20.7913 71.0016 20.9481 71.0067 21.106C71.119 21.0992 71.2313 21.0925 71.3456 21.0858C71.3742 21.3244 71.413 21.563 71.4405 21.8027C71.5671 21.7998 71.6947 21.7969 71.8233 21.7959C71.8233 21.9306 71.8233 22.0663 71.8244 22.201C71.9428 22.1962 72.0632 22.1914 72.1837 22.1876C72.1868 22.3358 72.1909 22.4839 72.196 22.6321C72.3266 22.6292 72.4593 22.6273 72.592 22.6244C72.59 22.7524 72.589 22.8804 72.589 23.0084C72.7278 23.0074 72.8677 23.0065 73.0075 23.0045C73.0045 23.1344 73.0034 23.2644 73.0034 23.3952C73.1392 23.3933 73.277 23.3914 73.4148 23.3904C73.4118 23.5194 73.4108 23.6483 73.4108 23.7782C73.5486 23.7772 73.6864 23.7763 73.8262 23.7753C73.8211 23.8889 73.8181 24.0034 73.815 24.1169C73.9681 24.1198 74.1223 24.1227 74.2774 24.1266C74.2744 24.2497 74.2713 24.3739 74.2682 24.498C74.5204 24.5278 74.7725 24.5605 75.0267 24.5807C75.0226 24.6972 75.0206 24.8136 75.0206 24.9301C75.1839 24.9349 75.3493 24.9387 75.5147 24.9426C75.5075 25.0484 75.5004 25.1533 75.4953 25.2592C75.7525 25.2851 76.0098 25.3179 76.2691 25.339C76.2609 25.4401 76.2538 25.5421 76.2476 25.6441C76.6447 25.6893 77.0439 25.7336 77.4451 25.7547C77.4471 25.8625 77.4502 25.9712 77.4543 26.08C77.6278 26.0848 77.8014 26.0886 77.9769 26.0925C77.9688 26.1993 77.9616 26.3061 77.9545 26.4139C78.6119 26.4072 79.2632 26.5101 79.9206 26.5043C79.9135 26.6063 79.9073 26.7084 79.9022 26.8104C81.85 26.8835 83.8018 26.8719 85.7506 26.8161C85.7445 26.7122 85.7404 26.6083 85.7363 26.5053C86.5264 26.5236 87.3125 26.4139 88.1026 26.412C88.0944 26.3061 88.0873 26.2003 88.0811 26.0954C88.3905 26.0896 88.6998 26.0761 89.0091 26.0569C89.004 25.9491 88.9999 25.8423 88.9968 25.7345C89.4052 25.7239 89.8125 25.6835 90.2198 25.645C90.2126 25.5401 90.2055 25.4353 90.2004 25.3304C90.4781 25.3246 90.7557 25.313 91.0344 25.3025C91.0293 25.187 91.0252 25.0715 91.0222 24.957C91.2794 24.9378 91.5356 24.905 91.7929 24.8771C91.7847 24.7694 91.7786 24.6616 91.7735 24.5548C91.9358 24.5509 92.1002 24.5471 92.2645 24.5432C92.2604 24.422 92.2574 24.3017 92.2553 24.1814C92.3942 24.1814 92.535 24.1795 92.6769 24.1776C92.679 24.0602 92.682 23.9437 92.6851 23.8263C92.9362 23.8013 93.1833 23.7551 93.4313 23.706C93.414 23.9591 93.3915 24.2122 93.3752 24.4653C93.2496 24.4682 93.1261 24.4711 93.0036 24.4749C92.9995 24.6125 92.9985 24.7501 92.9995 24.8877C92.8842 24.881 92.7688 24.8742 92.6555 24.8675C92.6371 25.0244 92.6198 25.1812 92.6024 25.339C92.4891 25.3323 92.3758 25.3265 92.2635 25.3207C92.238 25.5623 92.2022 25.8019 92.1747 26.0434C92.0491 26.0386 91.9236 26.0348 91.799 26.0319C91.7929 26.1637 91.7878 26.2955 91.7837 26.4283C91.3641 26.436 90.9466 26.4736 90.5281 26.4861C90.5342 26.5881 90.5413 26.6901 90.5505 26.793C89.9952 26.795 89.444 26.8623 88.8897 26.8633C88.8948 26.9662 88.9019 27.0702 88.909 27.1741C87.8515 27.1712 86.799 27.2819 85.7414 27.279C85.7445 27.381 85.7485 27.4839 85.7536 27.5869C82.7534 27.6716 79.7501 27.6437 76.7519 27.5532C76.756 27.4512 76.7621 27.3492 76.7693 27.2472C76.3191 27.2184 75.8689 27.1876 75.4187 27.1885C75.4249 27.0856 75.432 26.9845 75.4412 26.8825C75.0237 26.8719 74.6082 26.8354 74.1927 26.8055C74.1978 26.7035 74.205 26.6015 74.2131 26.4995C73.7997 26.4899 73.3883 26.4495 72.9769 26.4168C72.983 26.3138 72.9902 26.2118 72.9983 26.1098C72.7207 26.0973 72.445 26.0723 72.1694 26.0444C72.1745 25.9356 72.1806 25.8279 72.1878 25.7201C71.9275 25.6999 71.6692 25.6701 71.4099 25.647C71.415 25.5392 71.4211 25.4314 71.4283 25.3246C71.2629 25.3198 71.0986 25.3159 70.9342 25.3111C70.9352 25.1966 70.9373 25.0831 70.9414 24.9685C70.6902 24.9416 70.4432 24.9021 70.1951 24.8685C70.1972 24.7472 70.2002 24.6269 70.2023 24.5067C70.0604 24.5067 69.9185 24.5067 69.7776 24.5076C69.7786 24.3777 69.7807 24.2478 69.7827 24.1189C69.6449 24.1189 69.5071 24.1208 69.3713 24.1227C69.3723 23.9918 69.3744 23.8619 69.3754 23.7311C69.2376 23.732 69.1018 23.733 68.966 23.7359C68.9671 23.606 68.9681 23.4761 68.9691 23.3461C68.8354 23.3481 68.7027 23.35 68.57 23.3529C68.5363 23.1162 68.4975 22.8804 68.476 22.6427C68.3505 22.6446 68.227 22.6456 68.1045 22.6466C68.1014 22.509 68.1004 22.3714 68.1014 22.2338C67.984 22.2386 67.8676 22.2434 67.7523 22.2491C67.7155 21.9951 67.6788 21.742 67.6594 21.488C67.5379 21.4899 67.4174 21.4928 67.298 21.4947C67.2929 21.3331 67.2898 21.1714 67.2868 21.0107C67.1755 21.0165 67.0642 21.0232 66.954 21.0299C66.9366 20.7711 66.906 20.5132 66.8754 20.2563C66.7335 20.2543 66.5926 20.2524 66.4517 20.2515C66.4517 20.5113 66.4497 20.7711 66.4527 21.0309C66.3394 21.0242 66.2261 21.0174 66.1138 21.0117C66.1148 21.4312 66.0832 21.8508 66.0536 22.2694C65.9444 22.2626 65.8362 22.2559 65.729 22.2491C65.7035 22.6167 65.6514 22.9814 65.634 23.35C65.5238 23.3423 65.4156 23.3356 65.3074 23.3298C65.2727 23.5867 65.2339 23.8446 65.2135 24.1035C65.0858 24.1015 64.9593 24.1015 64.8337 24.1015C64.8317 24.2363 64.8306 24.3719 64.8306 24.5076C64.7153 24.5018 64.5999 24.4961 64.4856 24.4903C64.4652 24.6385 64.4458 24.7876 64.4274 24.9358C64.3039 24.9329 64.1824 24.931 64.0609 24.9281C64.062 25.0475 64.064 25.1658 64.0671 25.2861C63.919 25.2996 63.7731 25.314 63.6271 25.3275C63.6189 25.4516 63.6118 25.5757 63.6056 25.7008C63.4678 25.7028 63.331 25.7047 63.1953 25.7066C63.1983 25.8182 63.2024 25.9308 63.2065 26.0434C63.0615 26.0434 62.9166 26.0434 62.7726 26.0453C62.7726 26.1637 62.7747 26.283 62.7777 26.4014C62.4991 26.4168 62.2214 26.4476 61.9458 26.4764C61.9519 26.5804 61.959 26.6853 61.9662 26.7892C61.418 26.8152 60.8708 26.8767 60.3216 26.871C60.3267 26.9768 60.3328 27.0836 60.34 27.1895C56.7997 27.2472 53.2575 27.2405 49.7152 27.2241C49.7009 25.9549 49.7192 24.6847 49.7019 23.4145C49.5957 23.4145 49.4906 23.4135 49.3854 23.4125C49.3916 23.5434 49.3977 23.6752 49.4048 23.8071C49.2619 23.7975 49.121 23.7888 48.9791 23.7801C48.9649 24.0246 48.9363 24.268 48.9097 24.5124C48.7913 24.5086 48.6739 24.5047 48.5565 24.5018C48.5463 24.6471 48.5371 24.7934 48.529 24.9397C48.3983 24.9368 48.2697 24.9329 48.141 24.9301C48.141 25.0648 48.141 25.1995 48.14 25.3352C48.0073 25.3342 47.8756 25.3323 47.745 25.3304C47.747 25.4545 47.749 25.5786 47.7511 25.7037C47.6071 25.7037 47.4642 25.7037 47.3213 25.7037C47.3234 25.8298 47.3254 25.9558 47.3285 26.0829C47.1712 26.0858 47.0151 26.0886 46.8589 26.0915C46.864 26.2032 46.8691 26.3148 46.8752 26.4274C46.7241 26.4283 46.5741 26.4303 46.424 26.4331C46.4189 26.5428 46.4148 26.6535 46.4117 26.7651C45.8993 26.7911 45.3909 26.8614 44.8785 26.8777C44.8856 26.9807 44.8917 27.0846 44.8999 27.1885C40.1326 27.2549 35.3622 27.2607 30.5939 27.1837C30.5939 27.0798 30.5939 26.9759 30.5939 26.8729C31.1176 26.8864 31.6403 26.8594 32.1599 26.795C32.1589 26.665 32.1599 26.5361 32.1619 26.4072C32.2916 26.4052 32.4212 26.4052 32.5519 26.4052C32.6029 18.325 32.5621 10.2438 32.5723 2.16254C32.4549 2.16831 32.3385 2.17409 32.2222 2.18082C32.2232 2.04995 32.2232 1.91908 32.2232 1.78821C32.0854 1.78918 31.9465 1.79014 31.8087 1.79303C31.8118 1.68525 31.8148 1.57844 31.8179 1.47163C31.4086 1.45912 31.0023 1.40138 30.5929 1.38502C30.5929 1.28494 30.5939 1.18487 30.5939 1.08575C34.1383 1.05303 37.6846 1.07517 41.229 1.06939C41.2228 1.17909 41.2157 1.28783 41.2096 1.39657C41.8966 1.3677 42.5816 1.4187 43.2666 1.46778C43.2584 1.56978 43.2512 1.67274 43.2441 1.77474C43.6361 1.79014 44.025 1.83729 44.416 1.86135C44.4068 1.96239 44.3997 2.06343 44.3925 2.16447C44.6661 2.19815 44.9387 2.23567 45.2143 2.25684C45.2123 2.37617 45.2123 2.49549 45.2133 2.61481C45.3552 2.61674 45.4981 2.6177 45.64 2.6177C45.6359 2.74087 45.6329 2.86404 45.6298 2.98721C45.7727 2.98818 45.9156 2.98914 46.0585 2.98818C46.0575 3.12097 46.0575 3.25377 46.0585 3.3856C46.1912 3.38367 46.325 3.38079 46.4587 3.37694C46.4567 3.51069 46.4567 3.64445 46.4577 3.77821C46.5863 3.77725 46.7149 3.77532 46.8446 3.7734C46.863 4.03225 46.8977 4.28918 46.9303 4.54707C47.0436 4.54129 47.158 4.53456 47.2723 4.52878C47.2733 4.6712 47.2764 4.81266 47.2805 4.95507C47.3968 4.95989 47.5142 4.9647 47.6327 4.96951C47.7521 6.37155 47.8113 7.78129 47.6806 9.18525C47.5714 9.17852 47.4632 9.17274 47.356 9.16697C47.3427 9.53167 47.2856 9.89253 47.2488 10.2563C47.1365 10.2495 47.0242 10.2428 46.913 10.237C46.9099 10.3939 46.9058 10.5517 46.9028 10.7085C46.7741 10.7057 46.6455 10.7018 46.5179 10.698C46.5179 10.8279 46.5189 10.9587 46.5189 11.0886C46.3821 11.0886 46.2453 11.0877 46.1096 11.0867C46.1106 11.2157 46.1116 11.3446 46.1126 11.4735C45.9748 11.4735 45.837 11.4726 45.7002 11.4707C45.7023 11.5996 45.7023 11.7286 45.7033 11.8575C45.5645 11.8575 45.4266 11.8565 45.2888 11.8556C45.2919 11.9787 45.296 12.1019 45.299 12.2251C45.1326 12.2299 44.9673 12.2338 44.8019 12.2386C44.7192 12.7274 45.2899 12.636 45.6257 12.6446C45.6175 12.7476 45.6114 12.8506 45.6053 12.9535C46.0085 12.993 46.4128 13.0305 46.8191 13.0517C46.8221 13.1604 46.8262 13.2701 46.8313 13.3798C46.9773 13.3827 47.1243 13.3837 47.2723 13.3856C47.2866 13.4991 47.3029 13.6127 47.3203 13.7272C47.4632 13.7272 47.6061 13.7291 47.7501 13.7311C47.747 13.8494 47.745 13.9678 47.7429 14.0861C47.9879 14.1131 48.2329 14.1487 48.4779 14.1776C48.5147 14.4056 48.5565 14.6337 48.5871 14.8627C48.7096 14.8608 48.8332 14.8598 48.9567 14.8598C48.9577 14.9965 48.9587 15.1341 48.9597 15.2717C49.0751 15.2659 49.1915 15.2611 49.3079 15.2563C49.3415 15.5113 49.3773 15.7663 49.3977 16.0222C49.5161 16.0194 49.6366 16.0165 49.756 16.0145C49.7662 16.2994 49.7774 16.5852 49.7846 16.87C49.8958 16.8642 50.0071 16.8575 50.1194 16.8517C50.1368 17.2501 50.1796 17.6475 50.1898 18.0469C50.296 18.0411 50.4032 18.0353 50.5114 18.0296C50.541 19.0236 50.5257 20.0176 50.5084 21.0107C50.3971 21.0059 50.2868 21.002 50.1766 20.9982C50.1419 21.4235 50.1357 21.8517 50.1511 22.279C50.2644 22.2809 50.3777 22.2838 50.492 22.2857C50.4971 22.7707 50.5819 23.249 50.6135 23.732C50.7248 23.7253 50.836 23.7185 50.9494 23.7118C50.9524 23.8706 50.9565 24.0303 50.9616 24.1901C51.0861 24.1881 51.2117 24.1853 51.3373 24.1824C51.3373 24.3103 51.3383 24.4383 51.3403 24.5673C51.4761 24.5692 51.6119 24.5702 51.7476 24.5702C51.7466 24.6933 51.7456 24.8175 51.7466 24.9416C51.8875 24.9426 52.0294 24.9426 52.1723 24.9426C52.1682 25.0657 52.1641 25.1889 52.1621 25.3121C52.3265 25.315 52.4908 25.3179 52.6572 25.3217C52.649 25.4266 52.6419 25.5324 52.6358 25.6393C52.9196 25.6537 53.2013 25.6826 53.4851 25.7105C53.4769 25.8125 53.4698 25.9145 53.4626 26.0174C54.0119 26.0376 54.558 26.1069 55.1082 26.104C55.1011 26.208 55.095 26.3129 55.0888 26.4168C56.6966 26.4264 58.3045 26.4485 59.9123 26.3995C59.9051 26.2975 59.899 26.1955 59.8929 26.0944C60.3104 26.0627 60.7279 26.029 61.1465 26.0184C61.1383 25.9154 61.1311 25.8134 61.124 25.7114C61.4057 25.6826 61.6875 25.6518 61.9713 25.6354C61.9631 25.5305 61.956 25.4256 61.9499 25.3217C62.1162 25.3102 62.2837 25.2976 62.4511 25.2851C62.446 25.1706 62.4399 25.0571 62.4358 24.9426C62.5766 24.9426 62.7185 24.9416 62.8615 24.9406C62.8604 24.8155 62.8604 24.6904 62.8594 24.5663C62.9911 24.5673 63.1238 24.5682 63.2575 24.5682C63.2575 24.4345 63.2575 24.3017 63.2575 24.1679C63.3872 24.1718 63.5179 24.1747 63.6495 24.1776C63.6526 24.0265 63.6567 23.8744 63.6618 23.7234C63.7751 23.7291 63.8905 23.7349 64.0058 23.7407C64.0334 23.4972 64.0671 23.2538 64.0875 23.0093C64.1957 23.0161 64.3049 23.0228 64.4152 23.0296C64.5213 21.7218 64.5213 20.4035 64.4152 19.0958C64.3059 19.1025 64.1967 19.1092 64.0895 19.116C64.0569 18.8773 64.0181 18.6396 63.9915 18.401C63.8639 18.4039 63.7383 18.4058 63.6138 18.4077C63.6118 18.2711 63.6118 18.1354 63.6128 17.9997C63.4913 18.0026 63.3708 18.0065 63.2504 18.0093C63.2484 17.8794 63.2473 17.7505 63.2463 17.6215C63.0891 17.6177 62.9329 17.6139 62.7777 17.611C62.7798 17.4926 62.7839 17.3762 62.788 17.2588C62.5348 17.2299 62.2826 17.1924 62.0295 17.1654C62.0356 17.0605 62.0427 16.9566 62.0499 16.8527C61.7712 16.8238 61.4935 16.7969 61.2149 16.7824C61.221 16.6776 61.2281 16.5717 61.2353 16.4668C60.9556 16.4389 60.6759 16.4129 60.3951 16.4004C60.4023 16.2975 60.4094 16.1955 60.4176 16.0944C60.0041 16.0636 59.5907 16.0222 59.1762 16.0126C59.1834 15.9106 59.1905 15.8086 59.1987 15.7066C58.7904 15.6691 58.3831 15.6287 57.9747 15.6133C57.9747 15.5036 57.9747 15.3948 57.9757 15.2861C57.692 15.2746 57.4092 15.2611 57.1264 15.2553C57.1315 15.1514 57.1366 15.0484 57.1427 14.9445C56.7283 14.9349 56.3159 14.8868 55.9035 14.8598C55.9096 14.7578 55.9177 14.6558 55.9259 14.5538C55.6248 14.5278 55.3246 14.497 55.0235 14.4797C55.0276 14.3758 55.0327 14.2728 55.0388 14.1689C54.756 14.1554 54.4753 14.1275 54.1946 14.1035C54.2007 13.9995 54.2078 13.8966 54.216 13.7936C53.9567 13.7753 53.6995 13.7436 53.4422 13.7166C53.4473 13.6088 53.4535 13.5001 53.4596 13.3923C53.2993 13.3894 53.138 13.3856 52.9788 13.3817C52.9808 13.2576 52.9839 13.1335 52.988 13.0103C52.8501 13.0113 52.7134 13.0122 52.5776 13.0122C52.5766 12.8814 52.5776 12.7515 52.5806 12.6215C52.4439 12.6225 52.3081 12.6244 52.1723 12.6254C52.1723 12.4926 52.1733 12.3608 52.1754 12.2289C52.057 12.2338 51.9406 12.2395 51.8242 12.2443C51.7885 11.9893 51.7548 11.7343 51.7374 11.4774C51.6139 11.4803 51.4904 11.4822 51.3679 11.4851C51.3628 11.3273 51.3587 11.1695 51.3567 11.0117C51.2434 11.0184 51.1311 11.0251 51.0188 11.0319C50.9932 10.6643 50.9432 10.2967 50.9289 9.92813C50.8187 9.93487 50.7095 9.9416 50.6002 9.94834C50.49 8.52994 50.5084 7.10769 50.6033 5.68929C50.7135 5.69603 50.8238 5.7018 50.9351 5.70854C50.9442 5.31978 50.9963 4.9339 51.029 4.54803C51.1494 4.55092 51.2709 4.5538 51.3934 4.55669C51.3965 4.39791 51.4006 4.23914 51.4046 4.08036C51.5159 4.08614 51.6282 4.09287 51.7405 4.09865C51.7701 3.86096 51.8099 3.62328 51.8416 3.38464C51.9661 3.38848 52.0917 3.39137 52.2172 3.39426C52.2172 3.2605 52.2172 3.12674 52.2172 2.99395C52.355 2.98721 52.4939 2.98144 52.6327 2.9747C52.6307 2.85346 52.6276 2.73125 52.6256 2.61C52.7644 2.60519 52.9032 2.60038 53.0431 2.59653C53.041 2.47336 53.038 2.35019 53.0359 2.22798C53.2891 2.20007 53.5423 2.17024 53.7975 2.15292C53.7934 2.03552 53.7914 1.91812 53.7893 1.80072C53.9516 1.79591 54.115 1.79206 54.2783 1.78821C54.2722 1.68044 54.266 1.57266 54.2609 1.46489C54.5478 1.45334 54.8336 1.42736 55.1205 1.40427C55.1133 1.30323 55.1062 1.20122 55.1001 1.10019C55.6472 1.07228 56.1934 1.00781 56.7426 1.01743C56.7354 0.909654 56.7283 0.802841 56.7222 0.696028ZM35.8849 1.79399C35.8706 5.53437 35.8788 9.27186 35.8798 13.0122C37.798 12.9978 39.7181 13.0738 41.6332 12.9458C41.6251 12.8429 41.6189 12.7399 41.6118 12.6379C41.8946 12.6244 42.1763 12.5975 42.4591 12.5705C42.4519 12.4685 42.4458 12.3665 42.4387 12.2655C42.6918 12.2453 42.944 12.2135 43.1971 12.1837C43.1951 12.0519 43.1941 11.92 43.1951 11.7892C43.3217 11.7901 43.4503 11.7921 43.5779 11.795C43.6034 11.5544 43.6412 11.3157 43.6708 11.0761C43.779 11.0829 43.8862 11.0896 43.9944 11.0963C44.0475 10.7191 44.0924 10.3409 44.1036 9.96085C44.219 9.95989 44.3343 9.95989 44.4507 9.95892C44.4538 9.79052 44.4569 9.62309 44.4599 9.45469C44.5712 9.46046 44.6835 9.46527 44.7958 9.47105C44.8376 8.21816 44.8386 6.96431 44.7947 5.71143C44.6845 5.71624 44.5753 5.72201 44.466 5.72682C44.4303 5.34191 44.3946 4.95796 44.3752 4.57209C44.2527 4.57016 44.1302 4.56728 44.0087 4.56439C44.0056 4.42486 44.0036 4.28629 44.0026 4.14676C43.8882 4.1535 43.7749 4.15927 43.6606 4.16504C43.6412 4.01685 43.6218 3.86866 43.6024 3.72143C43.4809 3.72336 43.3605 3.72624 43.24 3.72817C43.2349 3.59826 43.2298 3.46835 43.2247 3.33845C43.0777 3.33556 42.9307 3.33267 42.7837 3.33075C42.7857 3.21912 42.7878 3.1075 42.7909 2.99491C42.5387 2.96604 42.2855 2.93621 42.0324 2.91889C42.0354 2.80534 42.0385 2.69276 42.0416 2.57921C41.8711 2.57536 41.7016 2.57151 41.5322 2.56862C41.5383 2.46181 41.5444 2.355 41.5526 2.24722C40.7655 2.19333 39.9785 2.12886 39.1894 2.14714C39.1924 2.04129 39.1965 1.93641 39.2006 1.83056C38.095 1.83825 36.9895 1.82478 35.8849 1.79399ZM35.89 13.7676C35.89 17.4522 35.8247 21.1425 35.9411 24.8271C36.1115 24.1314 36.3933 24.9118 36.3331 25.2534C36.4637 25.2534 36.5944 25.2553 36.7261 25.2572C36.7281 25.3843 36.7291 25.5122 36.7291 25.6402C36.8649 25.6383 37.0017 25.6383 37.1385 25.6393C37.1477 25.7586 37.1569 25.8789 37.165 25.9982C37.5703 26.0213 37.9735 26.0627 38.3768 26.0983C38.3696 26.2003 38.3625 26.3032 38.3553 26.4062C40.2388 26.4582 42.1232 26.4466 44.0077 26.4177C43.9995 26.3129 43.9934 26.208 43.9873 26.104C44.2894 26.0925 44.5916 26.0675 44.8948 26.0415C44.8866 25.9356 44.8805 25.8298 44.8734 25.7249C45.1265 25.6941 45.3776 25.6585 45.6318 25.6344C45.6298 25.5113 45.6298 25.3891 45.6298 25.2669C45.7686 25.2669 45.9085 25.2678 46.0473 25.2697C46.0453 25.1379 46.0432 25.007 46.0432 24.8762C46.1729 24.8752 46.3035 24.8762 46.4342 24.8771C46.4556 24.6192 46.4944 24.3633 46.5281 24.1073C46.6374 24.1121 46.7466 24.1179 46.8568 24.1237C46.8793 23.7282 46.9222 23.3336 46.9303 22.9381C47.0406 22.9439 47.1508 22.9506 47.2631 22.9583C47.2805 21.5659 47.2764 20.1735 47.2652 18.7811C47.1549 18.7869 47.0447 18.7936 46.9344 18.7994C46.9242 18.3818 46.8824 17.9651 46.8609 17.5484C46.7517 17.5542 46.6435 17.5609 46.5353 17.5677C46.5149 17.203 46.4577 16.8421 46.4311 16.4784C46.3097 16.4822 46.1902 16.4861 46.0698 16.4899C46.0636 16.3321 46.0575 16.1752 46.0534 16.0184C45.9391 16.0251 45.8258 16.0309 45.7135 16.0386C45.6767 15.8028 45.6349 15.568 45.6084 15.3323C45.4777 15.3313 45.347 15.3304 45.2174 15.3284C45.2153 15.2005 45.2143 15.0725 45.2143 14.9455C45.0785 14.9455 44.9428 14.9455 44.808 14.9445C44.8039 14.8223 44.8009 14.701 44.7988 14.5798C44.5293 14.5557 44.2619 14.5172 43.9954 14.4807C44.0005 14.3748 44.0056 14.269 44.0118 14.1631C43.7259 14.1602 43.4401 14.1516 43.1553 14.1419C43.1543 14.0303 43.1543 13.9197 43.1543 13.808C40.7329 13.7628 38.3114 13.7474 35.89 13.7676Z" fill="white"/>
<path d="M6.91508 33.4211C7.15497 33.4278 7.39589 33.4317 7.63579 33.4317C7.64497 33.7867 7.64906 34.1418 7.64804 34.4969C7.40304 34.4921 7.15906 34.4921 6.91406 34.4959C6.91304 34.138 6.91406 33.779 6.91508 33.4211Z" fill="white"/>
<path d="M21.2087 33.4146C21.4455 33.428 21.6824 33.4405 21.9202 33.4482C21.9396 33.7947 21.9437 34.1411 21.9355 34.4875C21.569 34.4952 21.2026 34.4904 20.8371 34.4692C20.8279 34.2479 20.8146 34.0266 20.8004 33.8052C20.9422 33.81 21.0841 33.8158 21.226 33.8206C21.2209 33.685 21.2148 33.5493 21.2087 33.4146Z" fill="white"/>
<path d="M33.0438 33.418C33.4307 33.4238 33.8186 33.419 34.2066 33.4045C34.229 34.1532 34.1188 34.948 34.2556 35.6688C35.1519 35.8747 36.1237 35.5629 37.0465 35.7429C37.0598 36.8639 37.2068 37.9802 37.1292 39.1041C37.4395 39.056 37.607 39.1878 37.5865 39.4938C37.0271 39.515 36.4677 39.5044 35.9083 39.4948C35.9083 39.4015 35.9083 39.3091 35.9083 39.2167C36.1523 39.1821 36.3942 39.1339 36.6382 39.0926C36.6494 38.3304 36.6321 37.5683 36.6535 36.8072C36.5371 36.8091 36.4228 36.811 36.3074 36.8129C36.3136 36.5541 36.3146 36.2943 36.3177 36.0364C35.7388 36.0364 35.16 36.0296 34.5812 36.0316C34.5884 36.1615 34.5965 36.2914 34.6047 36.4222C34.4669 36.4174 34.3301 36.4136 34.1933 36.4117C34.2096 37.3008 34.1821 38.1909 34.2045 39.0801C34.2974 39.2716 34.5526 39.1724 34.7262 39.208C34.7068 39.2802 34.667 39.4236 34.6465 39.4958C34.1147 39.5227 33.5818 39.4967 33.05 39.4958C33.05 39.3947 33.0489 39.2937 33.0479 39.1936C33.1868 39.1984 33.3256 39.2042 33.4644 39.209C33.4675 37.3778 33.4603 35.5466 33.4695 33.7144C33.3266 33.7211 33.1847 33.7279 33.0428 33.7356C33.0428 33.6297 33.0428 33.5229 33.0438 33.418Z" fill="white"/>
<path d="M71.8314 33.4146C72.3499 33.4174 72.8685 33.4136 73.3871 33.4223C73.3657 34.1921 73.3851 34.9629 73.3749 35.7336C73.6862 35.7298 73.9986 35.7308 74.312 35.7259C74.312 35.8039 74.311 35.9579 74.311 36.0358C74.0016 36.031 73.6923 36.031 73.384 36.0271C73.3759 37.0876 73.3718 38.148 73.3871 39.2084C73.5229 39.2017 73.6607 39.195 73.7985 39.1892C73.7975 39.2902 73.7965 39.3922 73.7975 39.4942C73.2421 39.5019 72.6868 39.5077 72.1325 39.4971C72.2091 39.2748 72.2652 39.0468 72.2724 38.812C72.3989 38.8168 72.5276 38.8226 72.6562 38.8274C72.6501 37.2492 72.6521 35.6711 72.6552 34.093C72.5174 34.0987 72.3795 34.1055 72.2438 34.1132C72.2499 33.9794 72.257 33.8466 72.2652 33.7138C72.1192 33.7196 71.9743 33.7263 71.8303 33.734C71.8303 33.6272 71.8303 33.5204 71.8314 33.4146Z" fill="white"/>
<path d="M104.499 33.4113C104.885 33.418 105.274 33.4151 105.663 33.4045C105.638 35.3368 105.665 37.27 105.649 39.2023C105.786 39.1955 105.925 39.1888 106.066 39.183C106.063 39.2879 106.063 39.3947 106.065 39.5015C105.544 39.5015 105.022 39.5006 104.503 39.4996C104.502 39.3938 104.501 39.2889 104.502 39.184C104.639 39.1907 104.779 39.1975 104.919 39.2052C104.914 37.3739 104.912 35.5437 104.92 33.7134C104.778 33.7211 104.637 33.7288 104.498 33.7365C104.496 33.6278 104.496 33.5191 104.499 33.4113Z" fill="white"/>
<path d="M107.264 33.4153C107.678 33.4134 108.094 33.4153 108.509 33.4182C108.488 35.3457 108.503 37.2731 108.502 39.2005C108.641 39.1948 108.782 39.188 108.924 39.1832C108.922 39.2881 108.92 39.394 108.923 39.4998C108.4 39.5017 107.878 39.5017 107.357 39.5027C107.356 39.393 107.356 39.2843 107.356 39.1755C107.441 39.1851 107.611 39.2054 107.697 39.215C107.861 37.4704 107.722 35.6959 107.768 33.9398C107.796 33.6723 107.449 33.7271 107.271 33.7146C107.27 33.6395 107.266 33.4904 107.264 33.4153Z" fill="white"/>
<path d="M0.813185 33.8331C2.00756 33.7725 3.20398 33.8398 4.39835 33.7975C4.38814 33.8764 4.36671 34.0342 4.3565 34.1141C4.626 34.1959 4.90979 34.2065 5.19052 34.2007C5.19664 34.6857 5.19664 35.1697 5.20277 35.6547C5.06496 35.6518 4.92714 35.6489 4.79035 35.647C4.79444 35.7759 4.79954 35.9058 4.80566 36.0367C4.24421 35.8654 4.23298 36.7036 4.80158 36.5053C4.79341 36.6333 4.78525 36.7623 4.77708 36.8912C4.92306 36.8835 5.06904 36.8758 5.21502 36.8691C5.20685 37.0076 5.19971 37.1462 5.19256 37.2857C5.32935 37.279 5.46614 37.2732 5.60294 37.2675C5.61008 37.7505 5.60906 38.2336 5.58966 38.7167C5.45594 38.7138 5.32323 38.7109 5.1895 38.709C5.19562 38.8475 5.20175 38.9851 5.20889 39.1247C5.06087 39.1179 4.91387 39.1122 4.76585 39.1073C4.76585 39.2296 4.76687 39.3527 4.76687 39.4769C3.57658 39.5028 2.38629 39.5086 1.19498 39.499C1.19498 39.3951 1.19498 39.2921 1.19396 39.1882C1.33381 39.1939 1.47366 39.2007 1.6125 39.2074C1.60331 39.0448 1.59412 38.8841 1.58391 38.7224C1.70029 38.7253 1.81666 38.7272 1.93304 38.7301C1.91773 37.3406 1.91977 35.9511 1.93202 34.5625C1.85137 34.575 1.6911 34.601 1.61148 34.6145C1.60841 34.4451 1.60637 34.2757 1.60535 34.1064C1.34096 34.1016 1.07656 34.091 0.812164 34.0842C0.813185 34.0005 0.813185 33.9168 0.813185 33.8331ZM2.33729 34.1016C2.35158 34.6963 2.33525 35.2909 2.34239 35.8856C2.51594 36.9538 2.1811 38.0873 2.40466 39.1333C2.93039 39.2767 3.52962 39.1651 4.08394 39.2016C4.07679 39.0727 4.06964 38.9438 4.0625 38.8158C4.19623 38.8206 4.32894 38.8254 4.46164 38.8312C4.48308 38.2779 4.48512 37.7245 4.46266 37.1722C4.32689 37.178 4.19112 37.1847 4.05637 37.1914C4.06352 37.0606 4.07066 36.9307 4.07781 36.8008C3.89814 36.8027 3.7195 36.8056 3.54085 36.8094C3.51839 36.4293 3.51737 35.9482 4.07373 36.1127C4.06658 35.9828 4.05841 35.8529 4.05127 35.724C4.18908 35.7307 4.32689 35.7384 4.46471 35.7451C4.44225 35.3198 4.52085 34.8839 4.39121 34.4692C4.30444 34.4797 4.13089 34.5019 4.04412 34.5134C4.05331 34.3787 4.0625 34.2449 4.07169 34.1112C3.49389 34.1073 2.9161 34.0977 2.33729 34.1016Z" fill="white"/>
<path d="M54.7055 33.8176C55.6243 33.8079 56.544 33.806 57.4628 33.8041C57.4659 34.29 57.4608 34.775 57.4577 35.261C57.3536 35.26 57.2494 35.26 57.1463 35.261C57.1484 34.9983 57.1443 34.7356 57.1453 34.4738C57.0055 34.4806 56.8666 34.4883 56.7288 34.4969C56.736 34.367 56.7431 34.2371 56.7513 34.1082C56.3001 34.0966 55.8489 34.0899 55.3977 34.0976C55.4007 34.2246 55.4038 34.3516 55.4089 34.4796C55.2762 34.4757 55.1445 34.4719 55.0138 34.47C55.0128 34.7683 55.0097 35.0666 55.0077 35.3659C55.1394 35.363 55.2711 35.361 55.4038 35.3582C55.4017 35.4861 55.4007 35.6141 55.4007 35.7431C55.5426 35.7402 55.6845 35.7363 55.8274 35.7334C55.8203 35.8585 55.8141 35.9836 55.809 36.1097C56.0836 36.1145 56.3593 36.1232 56.6349 36.128C56.6308 36.2531 56.6278 36.3791 56.6257 36.5062C56.7727 36.4994 56.9197 36.4936 57.0667 36.4879C57.0585 36.6216 57.0514 36.7554 57.0443 36.8901C57.1892 36.8814 57.3342 36.8737 57.4791 36.866C57.471 37.0065 57.4648 37.148 57.4587 37.2895C57.5904 37.2856 57.7221 37.2837 57.8558 37.2808C57.864 37.761 57.864 38.2421 57.865 38.7232C57.7292 38.7175 57.5945 38.7117 57.4597 38.7079C57.4659 38.8483 57.474 38.9898 57.4822 39.1313C57.3332 39.1216 57.1851 39.111 57.0371 39.1014C57.0443 39.2333 57.0524 39.3651 57.0616 39.4979C56.6431 39.4902 56.2245 39.4873 55.806 39.4709C55.8182 39.6095 55.8305 39.7481 55.8427 39.8866C55.5977 39.8751 55.3538 39.8664 55.1098 39.8635C55.1149 39.7404 55.12 39.6172 55.1261 39.494C54.8423 39.4969 54.5595 39.4969 54.2768 39.5027C54.2809 39.2361 54.2798 38.9696 54.2839 38.704C54.1492 38.7117 54.0154 38.7194 53.8827 38.7281C53.8817 38.4952 53.8766 38.2633 53.8695 38.0314C53.9746 38.0304 54.0808 38.0294 54.1869 38.0285C54.1247 38.3412 54.288 38.4885 54.6177 38.4269C54.6096 38.5587 54.6014 38.6915 54.5953 38.8243C54.7341 38.8195 54.874 38.8137 55.0138 38.8089C55.0057 38.9359 54.9985 39.0639 54.9924 39.1919C55.5783 39.2063 56.1653 39.2073 56.7523 39.1996C56.739 39.062 56.7268 38.9253 56.7155 38.7896C56.8033 38.8002 56.9779 38.8214 57.0657 38.832C57.1616 38.5423 57.1423 38.2373 57.1402 37.939C57.0034 37.9448 56.8676 37.9515 56.7319 37.9592C56.737 37.8235 56.7421 37.6888 56.7482 37.5541C56.6084 37.556 56.4705 37.5589 56.3327 37.5627C56.3368 37.4338 56.3409 37.3058 56.345 37.1778C56.198 37.1826 56.05 37.1894 55.904 37.1961C55.9121 37.0643 55.9203 36.9334 55.9285 36.8035C55.6508 36.8025 55.3742 36.7977 55.0975 36.7997C55.1026 36.6669 55.1077 36.535 55.1139 36.4042C54.9699 36.409 54.827 36.4157 54.6851 36.4224C54.6912 36.2877 54.6984 36.153 54.7045 36.0192C54.5636 36.025 54.4228 36.0308 54.2819 36.0375C54.2788 35.4236 54.2696 34.8106 54.2962 34.1976C54.433 34.1996 54.5698 34.2015 54.7076 34.2025C54.7065 34.0735 54.7055 33.9455 54.7055 33.8176Z" fill="white"/>
<path d="M94.3345 33.8372C95.6452 33.8007 96.958 33.7968 98.2687 33.8305C98.2912 34.3116 98.3065 34.7937 98.3096 35.2768C98.1912 35.2758 98.0738 35.2768 97.9584 35.2778C97.9625 35.1373 97.9686 34.9968 97.9747 34.8563C97.842 34.8592 97.7104 34.8621 97.5807 34.8669C97.5807 34.736 97.5817 34.6051 97.5838 34.4752C97.448 34.4714 97.3143 34.4694 97.1816 34.4675C97.1816 34.3463 97.1826 34.226 97.1846 34.1067C96.4578 34.0749 95.731 34.1105 95.0041 34.1028C95.0164 34.2347 95.0296 34.3665 95.0439 34.4993C94.8959 34.4925 94.7499 34.4868 94.605 34.482C94.608 34.6128 94.6131 34.7447 94.6193 34.8775C94.4794 34.8707 94.3416 34.8659 94.2048 34.8611C94.2109 35.0006 94.2171 35.1402 94.2263 35.2797C94.1466 35.272 93.9874 35.2556 93.9088 35.2479C93.7301 36.14 93.7934 37.0676 93.9016 37.9654C94.0088 37.9596 94.117 37.9548 94.2263 37.95C94.2191 38.1117 94.213 38.2733 94.2089 38.4369C94.3385 38.4283 94.4702 38.4215 94.6029 38.4138C94.6397 38.6506 94.6979 38.8825 94.7571 39.1153C94.4631 39.1163 94.1701 39.1153 93.8771 39.1211C93.8832 38.9883 93.8894 38.8555 93.8975 38.7227C93.7516 38.7295 93.6076 38.7362 93.4637 38.7439C93.4708 38.6044 93.479 38.4658 93.4882 38.3282C93.3494 38.333 93.2126 38.3388 93.0768 38.3455C93.0584 37.3207 93.0717 36.2959 93.0666 35.2701C93.2054 35.2633 93.3463 35.2556 93.4872 35.2489C93.481 35.0208 93.478 34.7928 93.4749 34.5657C93.6178 34.5714 93.7628 34.5772 93.9078 34.583C93.9016 34.4521 93.8955 34.3222 93.8904 34.1923C94.0333 34.1952 94.1773 34.1981 94.3222 34.201C94.3253 34.0788 94.3294 33.9575 94.3345 33.8372Z" fill="white"/>
<path d="M70.2177 34.5833C70.3168 34.5843 70.4158 34.5852 70.5168 34.5862C70.522 34.9288 70.5117 35.2723 70.5434 35.6139C70.722 35.842 71.0875 35.6957 71.3498 35.7323C71.3478 35.8324 71.3478 35.9324 71.3498 36.0325C71.0742 36.0306 70.7996 36.0335 70.526 36.0335C70.5454 37.0487 70.5015 38.0658 70.5465 39.08C70.6516 39.2494 70.8803 39.1715 71.0507 39.1994C71.0426 39.2966 71.0273 39.4909 71.0201 39.5891C70.6067 39.5958 70.2004 39.5275 69.7921 39.4909C69.79 38.3757 69.8043 37.2604 69.787 36.1451C69.69 35.9565 69.4399 36.0614 69.2684 36.0344C69.2765 35.9353 69.2949 35.7371 69.3031 35.638C69.4368 35.6437 69.5705 35.6495 69.7053 35.6563C69.7584 35.4224 69.8012 35.1867 69.8094 34.948C69.9503 34.9567 70.0922 34.9663 70.2341 34.9759C70.228 34.8441 70.2228 34.7132 70.2177 34.5833Z" fill="white"/>
<path d="M6.4976 35.7401C6.88246 35.7093 7.26323 35.6478 7.6491 35.6266C7.70627 36.8217 7.55621 38.0342 7.72669 39.2168C7.81142 39.2072 7.98088 39.188 8.0656 39.1784C8.06458 39.2871 8.06458 39.3958 8.06458 39.5055C7.54294 39.5046 7.02129 39.5046 6.49965 39.5017C6.49965 39.3968 6.49965 39.2909 6.49863 39.1861C6.63848 39.1918 6.77935 39.1976 6.92023 39.2043C6.92533 38.1449 6.92125 37.0854 6.92329 36.0259C6.7814 36.0317 6.6395 36.0375 6.4976 36.0442C6.4976 35.9422 6.4976 35.8412 6.4976 35.7401Z" fill="white"/>
<path d="M9.25116 35.7455C10.0974 35.5685 10.9508 35.786 11.8063 35.6464C11.8145 35.7446 11.8308 35.939 11.839 36.0361C11.3949 36.0429 10.9508 36.039 10.5068 36.0275C10.4966 37.086 10.5037 38.1455 10.5007 39.204C10.6415 39.1972 10.7824 39.1915 10.9233 39.1857C10.9233 39.2896 10.9223 39.3945 10.9223 39.5003C10.3659 39.5003 9.80956 39.508 9.25422 39.4984C9.48799 38.796 9.3267 38.0483 9.37264 37.3246C9.35018 36.7973 9.45737 36.2517 9.25116 35.7455Z" fill="white"/>
<path d="M12.6187 35.7334C13.0403 35.6324 13.468 35.6853 13.8927 35.7373C13.8774 36.0028 13.8518 36.2694 13.7865 36.5302C13.7028 36.5196 13.5354 36.4994 13.4517 36.4888C13.4598 37.2355 13.4639 37.9813 13.4486 38.7271C13.565 38.7251 13.6814 38.7232 13.7977 38.7213C13.7875 38.882 13.7773 39.0436 13.7681 39.2053C13.908 39.1986 14.0468 39.1928 14.1867 39.187C14.1856 39.29 14.1856 39.3929 14.1856 39.4969C13.5364 39.5084 12.8861 39.5036 12.2359 39.4805C12.2359 39.3891 12.2359 39.2986 12.2359 39.2082C12.4911 39.1649 12.8606 39.3083 13.028 39.0792C13.0515 38.1372 13.0372 37.1922 13.0352 36.2492C13.0678 36.0202 12.78 36.0307 12.6176 36.0288C12.6187 35.9297 12.6187 35.8306 12.6187 35.7334Z" fill="white"/>
<path d="M14.9879 35.6365C16.3487 35.8684 17.7177 35.5567 19.0703 35.7549C19.107 36.8278 19.0846 37.9017 19.0907 38.9747C19.058 39.1979 19.349 39.1902 19.5072 39.2018C19.5051 39.3038 19.5041 39.4067 19.5041 39.5087C18.9825 39.503 18.4608 39.501 17.9382 39.4991C17.9382 39.3942 17.9382 39.2913 17.9371 39.1873C18.0749 39.1931 18.2128 39.1999 18.3516 39.2066C18.324 38.1914 18.373 37.1752 18.3322 36.1619C17.8596 35.8771 17.1746 36.1158 16.6192 36.0243C16.6478 37.0857 16.6366 38.1471 16.6294 39.2085C16.7673 39.2027 16.9051 39.197 17.0439 39.1912C17.0429 39.2922 17.0419 39.3933 17.0419 39.4953C16.4916 39.502 15.9414 39.5049 15.3912 39.5087C15.3391 39.2162 15.5014 39.0353 15.821 39.1055C15.8087 38.2337 15.8077 37.3619 15.824 36.491C15.7087 36.4958 15.5943 36.5007 15.481 36.5055C15.4871 36.3467 15.4933 36.1889 15.4994 36.0311C15.3228 36.0349 15.1462 36.0397 14.9696 36.0445C14.9737 35.9425 14.9839 35.7385 14.9879 35.6365Z" fill="white"/>
<path d="M20.7269 35.7212C21.1373 35.7472 21.5426 35.6712 21.9499 35.6365C21.9244 36.8259 21.9519 38.0163 21.9346 39.2056C22.0724 39.1989 22.2102 39.1922 22.348 39.1864C22.347 39.2893 22.347 39.3923 22.347 39.4962C21.8264 39.5001 21.3057 39.502 20.7851 39.503C20.7851 39.3933 20.7851 39.2845 20.7841 39.1758C20.8688 39.1854 21.0383 39.2047 21.123 39.2143C21.2833 38.2395 21.1526 37.2368 21.1955 36.2514C21.2241 35.9743 20.875 36.0349 20.6881 36.0195C20.6973 35.9454 20.7167 35.7953 20.7269 35.7212Z" fill="white"/>
<path d="M23.2435 35.7403C23.8019 35.7124 24.3634 35.568 24.9146 35.7374C24.9034 35.8327 24.8809 36.0241 24.8707 36.1194C24.737 36.1175 24.6043 36.1165 24.4726 36.1146C24.4798 37.124 24.4889 38.1354 24.4665 39.1448C24.7074 39.19 24.9524 39.2093 25.1994 39.2112C25.1984 39.3017 25.1984 39.394 25.1984 39.4855C24.5471 39.5076 23.8969 39.5066 23.2456 39.496C23.2456 39.394 23.2446 39.2911 23.2446 39.19C23.3834 39.1949 23.5232 39.2006 23.6641 39.2064C23.6611 38.145 23.6651 37.0836 23.6611 36.0222C23.5212 36.027 23.3824 36.0328 23.2435 36.0395C23.2435 35.9395 23.2435 35.8394 23.2435 35.7403Z" fill="white"/>
<path d="M26.0155 35.6266C26.4279 35.6555 26.8342 35.7344 27.2486 35.7392C27.2486 36.1222 27.2578 36.5051 27.2527 36.8881C27.3895 36.8852 27.5253 36.8833 27.6621 36.8814C27.6376 37.657 27.657 38.4336 27.6468 39.2101C27.7846 39.2063 27.9234 39.2015 28.0633 39.1986C28.0612 39.2938 28.0602 39.3891 28.0602 39.4863C27.4099 39.5065 26.7596 39.5075 26.1094 39.493C26.1094 39.392 26.1084 39.2909 26.1084 39.1909C26.2472 39.1966 26.386 39.2015 26.5249 39.2072C26.5167 38.1863 26.5443 37.1643 26.5065 36.1443C26.3973 35.9749 26.1676 36.0548 25.9971 36.0307C26.0012 35.9297 26.0104 35.7276 26.0155 35.6266Z" fill="white"/>
<path d="M28.9718 35.7441C29.2168 35.7402 29.4618 35.7287 29.7068 35.7191C29.7353 35.7662 29.7945 35.8615 29.8241 35.9096C29.9558 35.9365 30.0896 35.9644 30.2202 35.9981C30.0426 36.0116 29.866 36.0222 29.6884 36.0308C29.6771 36.5736 29.6792 37.1163 29.6935 37.659C29.8629 37.6552 30.0334 37.6532 30.2039 37.6503C30.2008 37.7524 30.1957 37.9564 30.1927 38.0584C30.0579 38.0497 29.9232 38.042 29.7894 38.0353C29.7221 38.2883 29.6812 38.5462 29.671 38.808C30.4887 38.8253 31.3064 38.8051 32.1231 38.8291C32.122 38.9533 32.121 39.0784 32.121 39.2035C32.2639 39.1987 32.4079 39.1938 32.5528 39.189C32.5579 39.802 32.563 40.4159 32.5375 41.0289C32.2578 41.0318 31.9781 41.0376 31.6984 41.0299C31.7158 41.1607 31.7331 41.2916 31.7505 41.4234C30.8225 41.4177 29.8946 41.435 28.9666 41.4138C28.9718 41.2858 28.9758 41.1579 28.9809 41.0308C28.835 41.0366 28.69 41.0424 28.5461 41.0501C28.5471 40.5651 28.5461 40.0811 28.5746 39.597C28.7094 39.597 28.8452 39.597 28.982 39.598C28.9646 39.1813 28.9524 38.7656 28.9483 38.3499C29.0963 38.347 29.2433 38.3451 29.3923 38.3442C29.3178 38.1065 29.2729 37.8621 29.279 37.6147C29.0453 37.5801 28.8115 37.556 28.5757 37.5435C28.5502 37.0759 28.5563 36.6072 28.5787 36.1396C28.7114 36.1376 28.8441 36.1367 28.9769 36.1348C28.9748 36.0039 28.9738 35.874 28.9718 35.7441ZM29.3515 39.5807C29.2627 39.9637 29.2903 40.3582 29.2882 40.7479C29.426 40.7402 29.5638 40.7335 29.7017 40.7268C29.6925 40.8576 29.6843 40.9895 29.6771 41.1223C30.2651 41.1174 30.8542 41.1146 31.4432 41.1261C31.4381 41.001 31.433 40.8759 31.4279 40.7518C31.5585 40.7537 31.6902 40.7566 31.8219 40.7595C31.824 40.4612 31.827 40.1629 31.8311 39.8646C31.6913 39.8694 31.5524 39.8751 31.4136 39.8809C31.4197 39.7529 31.4258 39.6249 31.433 39.497C30.7388 39.5306 30.0355 39.4373 29.3515 39.5807Z" fill="white"/>
<path d="M30.9893 36.0228C30.9974 35.89 31.0056 35.7562 31.0137 35.6234C31.5242 35.7148 32.0427 35.7485 32.5613 35.7283C32.5613 35.8322 32.5613 35.9371 32.5624 36.042C32.4235 36.0343 32.2847 36.0285 32.1459 36.0218C32.155 36.5308 32.1459 37.0399 32.1387 37.5489C31.8529 37.5701 31.5742 37.6307 31.2965 37.6913C31.3884 37.1833 31.4558 36.6665 31.4017 36.1507C31.3077 36.0189 31.1322 36.0449 30.9893 36.0228Z" fill="white"/>
<path d="M40.3037 35.637C40.7171 35.6322 41.1285 35.663 41.5358 35.7352C41.6573 36.8485 41.6236 37.9677 41.6236 39.0868C41.8656 39.1301 42.1065 39.1801 42.3505 39.2167C42.3494 39.3004 42.3494 39.3841 42.3494 39.4688C41.9391 39.5968 41.5154 39.5776 41.0999 39.4823C41.1296 38.8761 41.1244 38.2689 41.1306 37.6617C40.7222 37.603 39.8566 37.3162 39.876 37.9609C39.7473 37.9532 39.6197 37.9455 39.4932 37.9378C39.4932 38.3593 39.4901 38.7808 39.4881 39.2023C39.6514 39.1926 39.8157 39.1821 39.9801 39.1724C39.9842 39.3158 39.9893 39.4592 39.9944 39.6026C39.5789 39.5747 39.1706 39.4804 38.7531 39.4967C38.7602 39.004 38.7592 38.5113 38.7479 38.0187C38.8919 38.0264 39.0358 38.035 39.1798 38.0437C39.1716 37.908 39.1634 37.7723 39.1563 37.6376C39.3707 37.6482 39.585 37.6588 39.8004 37.6722C39.8903 37.5443 39.9709 37.4105 40.0281 37.2671C40.2894 37.2681 40.5497 37.269 40.8121 37.2729C40.8151 36.8582 40.809 36.4434 40.8008 36.0287C40.6263 36.0316 40.4527 36.0354 40.2792 36.0393C40.2853 35.9382 40.2976 35.7381 40.3037 35.637Z" fill="white"/>
<path d="M43.1907 35.7236C43.8971 35.6572 44.5913 35.687 45.2987 35.7486C45.3079 35.8189 45.3263 35.9593 45.3355 36.0296C45.0466 36.0344 44.7566 36.0334 44.4688 36.0209C44.3146 37.0717 44.4504 38.1476 44.3963 39.208C44.5341 39.2013 44.6719 39.1945 44.8107 39.1878C44.8097 39.2908 44.8097 39.3947 44.8097 39.4986C44.2891 39.5025 43.7685 39.5044 43.2489 39.5053C43.2478 39.3956 43.2478 39.2869 43.2468 39.1782C43.3326 39.1888 43.502 39.208 43.5868 39.2176C43.745 38.2428 43.6164 37.2392 43.6582 36.2538C43.6878 35.9805 43.3305 36.0325 43.1458 36.019C43.157 35.9449 43.1795 35.7977 43.1907 35.7236Z" fill="white"/>
<path d="M45.6267 35.6439C46.0708 35.6343 46.5087 35.7142 46.9507 35.7382C46.916 36.8756 46.9467 38.014 46.9242 39.1524C47.1682 39.1899 47.4152 39.2063 47.6633 39.2063C47.6623 39.3015 47.6623 39.3978 47.6633 39.494C47.0099 39.5084 46.3576 39.5075 45.7053 39.4979C45.7043 39.3949 45.7043 39.2929 45.7033 39.1918C45.8411 39.1976 45.9789 39.2034 46.1177 39.2101C46.1024 38.1516 46.1116 37.0931 46.1167 36.0346C45.9442 36.0356 45.7727 36.0375 45.6022 36.0385C45.6083 35.9403 45.6206 35.743 45.6267 35.6439Z" fill="white"/>
<path d="M48.0684 35.6402C48.6146 35.6152 49.1495 35.7258 49.6926 35.7518C49.7283 36.9017 49.7048 38.0526 49.7079 39.2025C49.8467 39.1958 49.9856 39.1891 50.1254 39.1833C50.1234 39.2892 50.1234 39.396 50.1244 39.5037C49.6048 39.5037 49.0842 39.5028 48.5646 39.496C48.5646 39.394 48.5635 39.292 48.5635 39.19C48.7024 39.1958 48.8412 39.2006 48.9811 39.2074C48.98 38.1864 49.0015 37.1654 48.9647 36.1454C48.7381 35.9202 48.3379 36.078 48.0388 36.0395C48.046 35.9395 48.0613 35.7403 48.0684 35.6402Z" fill="white"/>
<path d="M59.57 35.7191C59.8222 35.7258 60.0753 35.7306 60.3285 35.7306C60.3275 35.8336 60.3275 35.9375 60.3295 36.0424C60.1856 36.0347 60.0416 36.0289 59.8987 36.0231C59.9048 36.1569 59.911 36.2907 59.9181 36.4254C59.7803 36.4177 59.6435 36.41 59.5077 36.4023C59.5537 37.2067 59.4077 38.0285 59.5955 38.8195C59.6741 38.8128 59.8303 38.7974 59.9089 38.7907C59.8303 39.1303 60.1172 39.2622 60.4306 39.1996C60.4265 39.2776 60.4193 39.4315 60.4153 39.5085C60.1376 39.5008 59.8599 39.4979 59.5823 39.5008C59.5894 39.369 59.5965 39.2381 59.6047 39.1082C59.4638 39.1159 59.325 39.1246 59.1862 39.1332C59.2444 38.8599 59.0637 38.6521 58.7625 38.7271C58.7748 37.9814 58.7676 37.2346 58.7687 36.4889C58.9085 36.4956 59.0484 36.5024 59.1903 36.51C59.1821 36.3715 59.1749 36.2339 59.1678 36.0963C59.3138 36.1078 59.4598 36.1194 59.6068 36.1309C59.5935 35.9933 59.5812 35.8557 59.57 35.7191Z" fill="white"/>
<path d="M61.5095 35.7298C61.7974 35.7269 62.0853 35.7317 62.3742 35.7317C62.367 35.8636 62.3609 35.9954 62.3558 36.1291C62.4967 36.1224 62.6396 36.1157 62.7825 36.1099C62.7764 36.2465 62.7723 36.3842 62.7682 36.5227C62.8979 36.5227 63.0285 36.5237 63.1592 36.5256C63.1939 37.1251 63.1919 37.7265 63.1633 38.327C63.0316 38.3251 62.9009 38.3241 62.7713 38.3231C62.7764 38.4646 62.7835 38.6061 62.7907 38.7485C62.708 38.7388 62.5406 38.7206 62.4569 38.7119C62.4201 38.8524 62.3854 38.9948 62.3538 39.1372C62.2139 39.1266 62.0751 39.118 61.9362 39.1093C62.0128 38.8505 62.0536 38.5839 62.0547 38.3154C62.1333 38.326 62.2894 38.3462 62.367 38.3568C62.366 37.8641 62.366 37.3705 62.365 36.8768C62.2843 36.8874 62.1231 36.9086 62.0424 36.9192C62.0424 36.7469 62.0424 36.5747 62.0445 36.4034C61.9158 36.4092 61.7882 36.4159 61.6616 36.4226C61.6341 36.1878 61.5718 35.9579 61.5095 35.7298Z" fill="white"/>
<path d="M63.6699 35.7363C64.0691 35.8248 64.5876 35.4996 64.8939 35.7555C64.9082 36.7496 64.897 37.7446 64.898 38.7396C64.9766 38.7299 65.1348 38.7117 65.2144 38.702C65.242 38.8627 65.1705 39.0735 65.342 39.1803C65.8749 39.2188 66.4109 39.1861 66.9448 39.2082C66.9243 38.1449 66.9335 37.0816 66.9417 36.0192C66.8029 36.024 66.6661 36.0288 66.5293 36.0346C66.5293 35.9364 66.5303 35.8383 66.5313 35.7411C66.9284 35.821 67.449 35.4938 67.7512 35.7584C67.7675 36.8699 67.7502 37.9823 67.7573 39.0946C68.0034 39.1264 68.2494 39.1697 68.4964 39.2072C68.4944 39.3054 68.4944 39.4026 68.4954 39.5017C67.153 39.4237 65.828 39.6306 64.4988 39.4901C64.3733 38.3691 64.3937 37.2413 64.41 36.1145C64.166 36.0615 63.919 36.0259 63.6689 36.0202C63.6689 35.9249 63.6689 35.8306 63.6699 35.7363Z" fill="white"/>
<path d="M74.5656 36.0376C74.5238 35.3592 75.4221 35.722 75.857 35.7354C75.8468 35.8663 75.8386 35.9972 75.8314 36.1281C75.9693 36.1213 76.1081 36.1146 76.2479 36.1088C76.2439 37.1404 76.251 38.1729 76.2459 39.2054C76.3837 39.1987 76.5225 39.192 76.6624 39.1852C76.6604 39.2901 76.6604 39.395 76.6614 39.4999C76.1397 39.5028 75.6181 39.5037 75.0975 39.5047C75.0964 39.3969 75.0964 39.2901 75.0964 39.1833C75.2108 39.1881 75.3261 39.1929 75.4425 39.1987C75.4476 38.3095 75.3904 37.4165 75.516 36.5332C75.4435 36.3619 75.2455 36.4254 75.0975 36.4158C75.1036 36.2868 75.1118 36.1588 75.1199 36.0309C74.9341 36.0328 74.7504 36.0357 74.5656 36.0376Z" fill="white"/>
<path d="M78.3536 35.7158C78.5016 35.7225 78.6517 35.7283 78.8017 35.7331C78.7099 35.9515 78.6721 36.1834 78.6762 36.4173C78.5445 36.4105 78.4138 36.4048 78.2852 36.399C78.2831 36.6954 78.276 36.9966 78.3618 37.2852C78.6343 37.2737 78.9069 37.2679 79.1805 37.2573C79.1896 37.3362 79.207 37.4941 79.2162 37.573C78.9324 37.573 78.6476 37.572 78.3648 37.5624C78.2637 37.852 78.2597 38.1619 78.3607 38.4525C78.4475 38.4409 78.619 38.4188 78.7058 38.4073C78.6966 38.5458 78.6894 38.6834 78.6833 38.823C78.8242 38.8162 78.9661 38.8104 79.11 38.8047C79.1008 38.9327 79.0927 39.0606 79.0865 39.1905C79.6409 39.1944 80.1952 39.2108 80.7485 39.1819C80.7474 39.2916 80.7474 39.4013 80.7485 39.511C79.9461 39.5168 79.1651 39.6005 78.3628 39.4966C78.3699 39.3666 78.3771 39.2367 78.3863 39.1078C78.2382 39.1145 78.0912 39.1222 77.9453 39.1309C77.9524 38.9914 77.9595 38.8518 77.9687 38.7123C77.8309 38.7171 77.6951 38.7229 77.5604 38.7296C77.5451 37.9848 77.5461 37.241 77.5573 36.4962C77.6941 36.5019 77.8319 36.5087 77.9697 36.5154C77.9626 36.3749 77.9555 36.2344 77.9493 36.0939C78.0953 36.1074 78.2433 36.1199 78.3914 36.1344C78.3771 35.9948 78.3648 35.8553 78.3536 35.7158Z" fill="white"/>
<path d="M79.9102 35.7158C80.1879 35.7254 80.4676 35.7302 80.7463 35.7273C80.7381 35.8611 80.7309 35.9948 80.7258 36.1286C80.8626 36.1238 81.0004 36.119 81.1393 36.1141C81.1393 36.3393 81.1454 36.5655 81.1556 36.7916C80.9055 36.8233 80.6585 36.8715 80.4135 36.9205C80.3216 36.6655 80.3134 36.3951 80.3247 36.1286C79.9908 36.1921 79.8592 36.0112 79.9102 35.7158Z" fill="white"/>
<path d="M81.9269 35.7436C82.523 35.5165 83.1365 35.8379 83.7419 35.6906C84.0727 35.6194 84.5923 35.5492 84.5443 36.0313C84.0869 36.0476 83.6306 36.0399 83.1753 36.0255C83.1825 36.1593 83.1917 36.2921 83.2019 36.4268C83.0855 36.422 82.9691 36.4181 82.8548 36.4162C82.8711 37.3082 82.8558 38.2003 82.8681 39.0933C83.2376 39.1616 83.6102 39.2241 83.99 39.2203C83.9879 39.305 83.9879 39.3906 83.9889 39.4762C83.3101 39.5051 82.6312 39.5061 81.9524 39.508C81.8952 39.2424 82.0647 39.0297 82.3617 39.1077C82.5036 38.1127 82.4924 37.0965 82.3587 36.1006C82.279 36.1121 82.1218 36.1352 82.0422 36.1458C82.0014 36.012 81.9636 35.8773 81.9269 35.7436Z" fill="white"/>
<path d="M85.1882 35.7409C85.964 35.5648 86.7429 35.8342 87.5177 35.6773C87.9781 35.585 88.4365 35.7283 88.8979 35.7351C89.047 36.8523 88.9724 37.9791 88.9857 39.1031C89.2287 39.1512 89.4747 39.1945 89.7258 39.2089C89.7238 39.3051 89.7238 39.4004 89.7248 39.4966C89.1756 39.5034 88.6253 39.5024 88.0761 39.5063C88.0149 39.231 88.1976 39.0232 88.5008 39.1059C88.4824 38.236 88.4865 37.3661 88.4988 36.4972C88.3814 36.4982 88.265 36.5011 88.1496 36.5039C88.1598 36.3461 88.1701 36.1883 88.1813 36.0315C87.6055 36.0382 87.0298 36.0353 86.454 36.0276C86.4469 37.088 86.452 38.1475 86.4489 39.2079C86.5867 39.2022 86.7246 39.1974 86.8644 39.1926C86.8624 39.2917 86.8613 39.3917 86.8624 39.4928C86.2131 39.5082 85.5628 39.5082 84.9146 39.4851C84.9126 39.3898 84.9116 39.2946 84.9116 39.2002C85.0483 39.2041 85.1872 39.2079 85.326 39.2118C85.2454 38.058 85.4791 36.8686 85.1882 35.7409Z" fill="white"/>
<path d="M100.019 35.7222C100.263 35.728 100.508 35.7309 100.754 35.729C100.752 35.8329 100.753 35.9378 100.755 36.0427C100.61 36.035 100.467 36.0273 100.325 36.0205C100.333 36.1514 100.343 36.2832 100.356 36.4151C100.207 36.4295 100.011 36.3689 99.9441 36.5363C99.9206 37.1714 99.9533 37.8075 99.9319 38.4436C100.064 38.4378 100.195 38.433 100.329 38.4282C100.369 38.6726 100.226 39.0123 100.466 39.1797C100.696 39.2018 100.93 39.1951 101.163 39.1922C101.161 39.2942 101.161 39.3981 101.162 39.5011C100.775 39.4992 100.389 39.5011 100.003 39.5049C100.01 39.3712 100.019 39.2384 100.029 39.1056C99.8818 39.1123 99.7369 39.121 99.5929 39.1297C99.5991 38.9901 99.6062 38.8516 99.6144 38.714C99.4755 38.7188 99.3388 38.7245 99.203 38.7313C99.1969 37.9884 99.1846 37.2455 99.2091 36.5026C99.3428 36.5074 99.4776 36.5123 99.6144 36.518C99.6062 36.3824 99.5981 36.2486 99.5909 36.1139C99.8921 36.1909 100.104 36.0128 100.019 35.7222Z" fill="white"/>
<path d="M101.968 35.7191C102.239 35.7248 102.51 35.7277 102.783 35.7239C102.704 36.027 102.901 36.181 103.212 36.1146C103.203 36.2502 103.196 36.3859 103.191 36.5216C103.321 36.5206 103.45 36.5187 103.583 36.5177C103.608 37.1278 103.593 37.7389 103.606 38.349C103.469 38.3413 103.333 38.3355 103.198 38.3288C103.199 38.5924 103.197 38.857 103.202 39.1217C103.055 39.1149 102.91 39.1101 102.765 39.1063C102.764 39.2294 102.765 39.3526 102.767 39.4768C102.487 39.4845 102.207 39.496 101.928 39.5047C102.008 39.2833 102.076 39.0582 102.094 38.8243C102.219 38.8253 102.346 38.8272 102.474 38.8291C102.467 38.6646 102.461 38.501 102.455 38.3374C102.567 38.3403 102.68 38.3432 102.794 38.348C102.769 37.8245 102.78 37.3001 102.79 36.7766C102.708 36.7872 102.546 36.8064 102.465 36.8161C102.506 36.4369 102.54 35.8749 101.95 36.0289C101.954 35.951 101.963 35.796 101.968 35.7191Z" fill="white"/>
<path d="M110.621 35.7222C110.733 35.7222 110.846 35.7222 110.961 35.7222C110.955 35.9561 110.954 36.1909 110.959 36.4247C110.846 36.4199 110.733 36.417 110.622 36.4141C110.628 36.6999 110.631 36.9857 110.637 37.2715C111.015 37.2667 111.394 37.2744 111.774 37.2734C111.772 37.3716 111.772 37.4717 111.774 37.5708C111.405 37.5688 111.037 37.5611 110.671 37.589C110.601 37.8373 110.637 38.0981 110.627 38.3531C110.74 38.3464 110.853 38.3406 110.968 38.3348C110.96 38.4965 110.955 38.6591 110.95 38.8217C111.091 38.814 111.233 38.8063 111.376 38.7986C111.366 38.9285 111.358 39.0594 111.351 39.1903C111.931 39.1922 112.512 39.2095 113.093 39.1845C113.085 39.2942 113.08 39.4039 113.078 39.5146C112.255 39.5088 111.455 39.5867 110.631 39.4924C110.636 39.3625 110.643 39.2336 110.65 39.1046C110.503 39.1104 110.358 39.1171 110.214 39.1248C110.219 38.9853 110.225 38.8467 110.233 38.7082C110.099 38.7091 109.967 38.7111 109.836 38.714C109.802 37.9788 109.809 37.2436 109.83 36.5084C109.963 36.5113 110.098 36.5151 110.234 36.518C110.227 36.3795 110.221 36.2409 110.216 36.1023C110.359 36.112 110.504 36.1216 110.649 36.1312C110.638 35.9946 110.629 35.8579 110.621 35.7222Z" fill="white"/>
<path d="M112.242 35.7191C112.497 35.7239 112.752 35.7248 113.008 35.721C112.999 35.8547 112.991 35.9895 112.986 36.1242C113.123 36.1174 113.262 36.1117 113.403 36.1049C113.401 36.3378 113.406 36.5697 113.416 36.8026C113.167 36.843 112.917 36.8805 112.667 36.9075C112.673 36.6351 112.666 36.3628 112.611 36.0953C112.527 36.103 112.359 36.1184 112.274 36.1271C112.263 35.9904 112.253 35.8547 112.242 35.7191Z" fill="white"/>
<path d="M114.326 35.7396C114.699 35.731 115.072 35.7281 115.446 35.7291C115.445 35.833 115.445 35.9369 115.447 36.0408C115.308 36.0341 115.17 36.0274 115.035 36.0216C115.03 36.5672 115.03 37.1119 115.033 37.6575C115.201 37.6536 115.371 37.6517 115.542 37.6488C115.54 37.7518 115.537 37.9577 115.536 38.0597C115.4 38.051 115.266 38.0433 115.134 38.0366C115.066 38.2897 115.023 38.5476 115.014 38.8093C115.706 38.8122 116.398 38.8324 117.09 38.8045C117.079 38.8824 117.057 39.0403 117.046 39.1192C117.318 39.201 117.606 39.2067 117.891 39.1971C117.901 39.8091 117.9 40.4221 117.884 41.0351C117.741 41.0312 117.599 41.0274 117.459 41.0254C117.454 41.1477 117.452 41.2699 117.451 41.393C116.402 41.444 115.353 41.4219 114.306 41.4181C114.309 41.2862 114.313 41.1553 114.318 41.0245C114.177 41.0264 114.039 41.0303 113.901 41.0341C113.898 40.6761 113.895 40.3182 113.893 39.9612C114.032 39.966 114.172 39.9717 114.314 39.9785C114.305 39.8457 114.296 39.7139 114.288 39.583C114.837 39.76 114.836 38.9575 114.29 39.1095C114.295 38.8757 114.295 38.6419 114.293 38.408C114.439 38.4167 114.586 38.4263 114.735 38.4359C114.709 38.1829 114.662 37.9336 114.608 37.6854C114.473 37.6488 114.34 37.6122 114.21 37.5737C114.2 36.9589 114.223 36.3468 114.326 35.7396ZM115.015 39.5002C115.02 39.6292 115.027 39.7581 115.036 39.888C114.897 39.8794 114.76 39.8717 114.624 39.864C114.654 40.1892 114.46 40.8657 115.051 40.7377C115.04 40.8657 115.029 40.9946 115.022 41.1236C115.609 41.1178 116.197 41.1159 116.785 41.1274C116.782 41.0052 116.78 40.884 116.78 40.7627C116.909 40.7618 117.039 40.7608 117.172 40.7608C117.113 40.3567 117.306 39.8467 117.038 39.5108C116.365 39.4848 115.69 39.5166 115.015 39.5002Z" fill="white"/>
<path d="M116.231 36.0092C116.27 35.8784 116.311 35.7465 116.353 35.6166C116.863 35.7186 117.383 35.7398 117.904 35.7244C117.903 35.8293 117.903 35.9332 117.905 36.0391C117.764 36.0323 117.625 36.0266 117.489 36.0208C117.497 36.5375 117.486 37.0543 117.486 37.571C117.345 37.5653 117.206 37.5604 117.068 37.5566C117.072 37.6884 117.078 37.8212 117.086 37.954C116.809 37.9531 116.531 37.9598 116.256 37.9694C116.252 37.8915 116.244 37.7365 116.24 37.6586C116.409 37.6316 116.632 37.698 116.745 37.5373C116.778 37.062 116.739 36.5857 116.767 36.1113C116.59 36.0631 116.411 36.0295 116.231 36.0092Z" fill="white"/>
<path d="M119.201 35.7324C119.447 35.7344 119.694 35.7315 119.941 35.7257C119.939 35.8325 119.939 35.9384 119.941 36.0461C119.801 36.0346 119.662 36.024 119.524 36.0134C119.526 36.433 119.511 36.8535 119.502 37.2731C119.783 37.2702 120.065 37.2711 120.349 37.2663C120.347 37.3693 120.347 37.4722 120.349 37.5771C120.072 37.5714 119.796 37.5714 119.521 37.5685C119.537 37.9899 119.464 38.4239 119.604 38.8329C119.691 38.8223 119.863 38.8012 119.95 38.7906C119.94 38.9243 119.932 39.0581 119.924 39.1928C120.609 39.1813 121.294 39.2111 121.979 39.1918C121.978 39.2948 121.978 39.3978 121.979 39.5007C121.044 39.5103 120.14 39.569 119.206 39.493C119.209 39.3631 119.214 39.2342 119.221 39.1052C119.075 39.111 118.931 39.1168 118.788 39.1245C118.789 38.8108 118.92 38.2151 118.378 38.3393C118.385 37.9524 118.381 37.5656 118.377 37.1797C118.483 37.1845 118.589 37.1913 118.697 37.198C118.734 36.8362 118.807 36.4772 118.808 36.1125C118.943 36.1183 119.08 36.1241 119.219 36.1299C119.212 35.9971 119.206 35.8643 119.201 35.7324Z" fill="white"/>
<path d="M120.825 36.0478C120.831 35.9063 120.839 35.7639 120.848 35.6234C121.089 35.6609 121.332 35.7033 121.577 35.736C121.612 35.8649 121.648 35.9949 121.684 36.1248C121.757 36.118 121.903 36.1046 121.977 36.0978C121.982 36.3297 122.025 36.5587 122.084 36.7839C121.905 36.8186 121.728 36.8551 121.552 36.8917C121.561 36.9668 121.579 37.1169 121.589 37.1919C121.31 37.1881 121.031 37.19 120.755 37.1958C120.75 37.1169 120.739 36.9591 120.734 36.8811C120.907 36.884 121.079 36.8869 121.256 36.8917C121.248 36.604 121.246 36.3153 121.25 36.0276C121.107 36.0343 120.965 36.041 120.825 36.0478Z" fill="white"/>
<path d="M51.039 37.2887C51.8148 37.2666 52.5927 37.2743 53.3695 37.282C53.3624 37.5004 53.3593 37.7189 53.3593 37.9383C52.5723 37.9893 51.7842 37.9594 50.9971 37.9681C51.0134 37.741 51.0288 37.5149 51.039 37.2887Z" fill="white"/>
</g>
<defs>
<clipPath id="clip0_0_350">
<rect width="122.5" height="41.6667" fill="white" transform="translate(0.33345 0.0878906)"/>
</clipPath>
</defs>
</svg>
