<svg width="133" height="36" viewBox="0 0 133 36" fill="none" xmlns="http://www.w3.org/2000/svg">
<path d="M14.2494 3.75632C15.5314 3.74216 16.8144 3.73345 18.0974 3.75741C18.1295 3.87177 18.1615 3.98613 18.1946 4.10159C18.9024 4.10703 19.6046 4.18981 20.3113 4.21595C20.3102 4.3314 20.308 4.44685 20.308 4.5623C20.6392 4.5819 20.9705 4.60587 21.3017 4.62003C21.2995 4.73657 21.2973 4.85311 21.2951 4.96965C21.7103 4.9947 22.1232 5.04806 22.5373 5.07747C22.5351 5.19837 22.5329 5.31818 22.5307 5.43907C22.7107 5.45214 22.8917 5.46412 23.0728 5.4761C23.0695 5.59591 23.0673 5.71572 23.0651 5.83444C23.3356 5.85949 23.605 5.89325 23.8767 5.92375C23.8899 6.04682 23.9043 6.1699 23.9197 6.29297C24.1935 6.32565 24.4674 6.36159 24.7434 6.38664C24.7445 6.52061 24.7456 6.65566 24.7478 6.78963C24.8991 6.79181 25.0515 6.79399 25.2028 6.79508C25.2006 6.92686 25.1983 7.05974 25.1972 7.19153C25.3485 7.20242 25.5009 7.21222 25.6522 7.22312C25.6643 7.35382 25.6764 7.4856 25.6897 7.6163C25.8244 7.63046 25.9591 7.64353 26.0949 7.65769C26.1093 7.79057 26.1236 7.92453 26.1391 8.0585C26.2683 8.07048 26.3997 8.08246 26.53 8.09335C26.541 8.2393 26.5532 8.38525 26.5653 8.5312C26.7011 8.5312 26.8369 8.53011 26.9727 8.53011C26.9727 8.67932 26.9738 8.82963 26.9761 8.97993C27.1119 8.97993 27.2477 8.98102 27.3835 8.98102C27.4188 9.2446 27.4652 9.50708 27.5005 9.77066C27.6308 9.77066 27.7622 9.76957 27.8947 9.76957C27.8991 9.93948 27.9047 10.1094 27.9102 10.2793C28.0338 10.2771 28.1597 10.276 28.2845 10.2739C28.3132 10.544 28.3485 10.8141 28.3739 11.0853C28.491 11.0831 28.608 11.082 28.7262 11.0809C28.756 11.3728 28.7902 11.6636 28.8134 11.9566C28.9315 11.9555 29.0497 11.9544 29.1678 11.9533C29.1711 12.1341 29.1756 12.316 29.18 12.4979C29.3058 12.5044 29.4317 12.5121 29.5576 12.5186C29.5874 13.1993 29.6625 13.8768 29.6967 14.5575C29.8138 14.564 29.9308 14.5717 30.0489 14.5793C30.134 16.75 30.1649 18.9218 30.0368 21.0914C29.9175 21.0892 29.7994 21.087 29.6813 21.0859C29.6559 21.527 29.6128 21.966 29.6007 22.4082C29.4825 22.406 29.3644 22.4038 29.2462 22.4027C29.2252 22.7251 29.1943 23.0464 29.1711 23.3677C29.0541 23.3655 28.9382 23.3634 28.8222 23.3612C28.8001 23.6531 28.7648 23.945 28.7339 24.2369C28.6146 24.2347 28.4965 24.2314 28.3783 24.2303C28.3552 24.519 28.3187 24.8065 28.2867 25.0951C28.1652 25.093 28.0449 25.0908 27.9245 25.0897C27.8925 25.3576 27.8539 25.6256 27.8263 25.8946C27.6916 25.8935 27.5557 25.8935 27.421 25.8946C27.4188 26.0449 27.4177 26.1963 27.4166 26.3477C27.2885 26.3466 27.1604 26.3455 27.0324 26.3455C27.0158 26.5078 26.9981 26.6701 26.9816 26.8334C26.848 26.8313 26.7166 26.8302 26.5841 26.8291C26.583 26.9772 26.5819 27.1264 26.5808 27.2767C26.4383 27.2767 26.2948 27.2767 26.1534 27.2756C26.1523 27.4205 26.1512 27.5653 26.1501 27.7113C26.0033 27.7124 25.8575 27.7135 25.7129 27.7146C25.7118 27.8561 25.7107 27.9988 25.7096 28.1426C25.5605 28.1426 25.4114 28.1437 25.2635 28.1437C25.2635 28.2842 25.2646 28.4247 25.2657 28.5663C25.1133 28.5674 24.9621 28.5685 24.8108 28.5685C24.8119 28.697 24.8119 28.8244 24.813 28.9529C24.6463 28.9616 24.4795 28.9714 24.3128 28.9813C24.3139 29.1119 24.3161 29.2426 24.3183 29.3733C24.0423 29.3973 23.7673 29.43 23.4913 29.4561C23.4913 29.5748 23.4924 29.6947 23.4935 29.8145C23.2009 29.8439 22.9083 29.8787 22.6157 29.9027C22.6179 30.0214 22.6201 30.139 22.6234 30.2588C22.3286 30.2882 22.0349 30.322 21.739 30.3438C21.7412 30.4603 21.7445 30.578 21.7467 30.6945C21.4199 30.7185 21.0942 30.7457 20.7673 30.7631C20.7684 30.8797 20.7706 30.9973 20.7739 31.1149C20.3212 31.1247 19.8696 31.153 19.4191 31.1792C19.418 31.2935 19.4169 31.4079 19.4169 31.5233C17.2594 31.6105 15.0985 31.6279 12.941 31.5201C12.9399 31.4057 12.9388 31.2914 12.9377 31.1781C12.4872 31.1498 12.0367 31.1193 11.5862 31.1106C11.5884 30.9918 11.5906 30.8731 11.5928 30.7555C11.2649 30.7359 10.938 30.7097 10.6101 30.6923C10.6123 30.5736 10.6156 30.4571 10.6178 30.3394C10.3186 30.3209 10.0205 30.2926 9.72234 30.2665C9.72455 30.1477 9.72676 30.029 9.72896 29.9114C9.43526 29.8885 9.14265 29.8548 8.85005 29.8243C8.85225 29.7045 8.85557 29.5846 8.85778 29.4659C8.58394 29.4376 8.31011 29.4017 8.03628 29.3733C8.03848 29.2448 8.03959 29.1163 8.04069 28.9889C7.87728 28.9758 7.71386 28.9638 7.55044 28.9518C7.54934 28.8233 7.54713 28.6937 7.54603 28.5652C7.39475 28.5641 7.24348 28.563 7.09221 28.5608C7.09221 28.4203 7.09442 28.2798 7.09553 28.1404C6.94536 28.1404 6.79519 28.1393 6.64503 28.1393C6.64392 27.9977 6.64282 27.8551 6.64171 27.7146C6.49707 27.7135 6.35242 27.7124 6.20778 27.7113C6.20667 27.5653 6.20557 27.4183 6.20557 27.2724C6.05982 27.2724 5.91517 27.2724 5.77053 27.2724C5.76942 27.1242 5.76942 26.9783 5.77053 26.8313C5.62478 26.8313 5.47903 26.8313 5.33328 26.8313C5.33328 26.6842 5.33328 26.5361 5.33328 26.3891C5.20298 26.3912 5.07269 26.3923 4.9435 26.3945C4.93025 26.2289 4.9159 26.0634 4.90265 25.8989C4.77457 25.9 4.64538 25.9022 4.5173 25.9044C4.48307 25.6375 4.44111 25.3718 4.41019 25.1049C4.29094 25.1071 4.17059 25.1093 4.05134 25.1115C4.03919 24.9339 4.02705 24.7553 4.0149 24.5789C3.89123 24.58 3.76867 24.5832 3.645 24.5854C3.62182 24.2935 3.58759 24.0027 3.55778 23.7119C3.43742 23.7152 3.31596 23.7173 3.19561 23.7206C3.17021 23.3089 3.11942 22.8994 3.09513 22.4877C2.97588 22.4899 2.85773 22.4931 2.73959 22.4953C2.72523 22.1675 2.70205 21.8396 2.68217 21.5118C2.56513 21.5129 2.44698 21.514 2.32884 21.5162C2.1875 18.9457 2.1864 16.3699 2.33436 13.8016C2.4525 13.8016 2.56955 13.8005 2.68769 13.8005C2.7175 13.366 2.75284 12.9314 2.78044 12.4968C2.90521 12.4936 3.02998 12.4914 3.15475 12.4892C3.15917 12.3051 3.16248 12.1211 3.1658 11.937C3.28725 11.9392 3.40761 11.9414 3.52907 11.9435C3.54894 11.6516 3.57765 11.3597 3.60525 11.0678C3.72561 11.0689 3.84707 11.0711 3.96742 11.0722C3.99392 10.7868 4.03146 10.5026 4.0668 10.2183C4.18825 10.2194 4.31082 10.2205 4.43228 10.2227C4.46871 9.95691 4.50957 9.69333 4.53938 9.42757C4.67298 9.42649 4.80659 9.42431 4.9413 9.42213C4.9435 9.27074 4.94461 9.12043 4.94571 8.96904C5.08705 8.97122 5.22838 8.97231 5.37082 8.9734C5.37303 8.82527 5.37523 8.67714 5.37744 8.52902C5.50663 8.52466 5.63582 8.51922 5.765 8.51486C5.78488 8.36347 5.80475 8.21207 5.82573 8.06068C5.95492 8.05523 6.08411 8.05088 6.2144 8.04652C6.22103 7.92018 6.22765 7.79384 6.23538 7.66749C6.38775 7.64571 6.54013 7.62393 6.6925 7.60323C6.69692 7.47471 6.70134 7.34728 6.70686 7.21985C6.85371 7.21985 7.00057 7.21876 7.14853 7.21767C7.14742 7.07499 7.14742 6.93122 7.14632 6.78854C7.29869 6.78745 7.44996 6.78636 7.60234 6.78418C7.60234 6.65022 7.60344 6.51516 7.60344 6.3812C7.87617 6.35397 8.1489 6.31694 8.42163 6.28535C8.41832 6.16336 8.415 6.04029 8.4128 5.9183C8.58836 5.91286 8.76392 5.90741 8.93948 5.90197C8.94059 5.77344 8.94059 5.64601 8.94059 5.51858C9.23319 5.4968 9.52469 5.46521 9.81619 5.43363C9.81398 5.31164 9.81067 5.18966 9.80846 5.06767C10.1099 5.05133 10.4113 5.0241 10.7128 4.99905C10.7106 4.87925 10.7084 4.76053 10.7062 4.64072C11.0087 4.62765 11.3101 4.60804 11.6116 4.58953C11.6171 4.4719 11.6226 4.35318 11.627 4.23446C12.4894 4.20288 13.3473 4.10376 14.2097 4.10485C14.2229 3.98831 14.2362 3.87286 14.2494 3.75632ZM13.7978 5.06549C13.7956 5.18203 13.7934 5.29857 13.7912 5.41511C13.4588 5.41947 13.1254 5.43254 12.793 5.44561C12.7875 5.56542 12.782 5.68522 12.7776 5.80503C12.3425 5.83226 11.9075 5.86385 11.4724 5.8889C11.468 6.00761 11.4636 6.12633 11.4592 6.24505C11.0308 6.27337 10.6035 6.31911 10.1762 6.36486C10.1784 6.4814 10.1795 6.59903 10.1817 6.71557C9.90673 6.73953 9.6318 6.77329 9.35686 6.80161C9.35907 6.9236 9.36128 7.04667 9.36238 7.16975C9.19123 7.1741 9.02009 7.17955 8.85005 7.185C8.85005 7.31678 8.85005 7.44857 8.85115 7.57927C8.58284 7.61303 8.31563 7.6566 8.04842 7.69037C8.04621 7.82651 8.04511 7.96374 8.0429 8.09989C7.89273 8.10098 7.74367 8.10098 7.59461 8.10098C7.59461 8.24257 7.59461 8.38416 7.59461 8.52684C7.44775 8.52684 7.2998 8.52575 7.15294 8.52575C7.143 8.66734 7.13196 8.80893 7.12092 8.95052C6.98069 8.95706 6.84157 8.96359 6.70244 8.97013C6.70355 9.11499 6.70355 9.26093 6.70355 9.40688C6.5589 9.40688 6.41536 9.40688 6.27071 9.40688C6.26961 9.5561 6.2685 9.7064 6.2663 9.8567C6.13159 9.85888 5.99798 9.85997 5.86328 9.86215C5.83015 10.1268 5.78598 10.3893 5.74955 10.6529C5.61263 10.6507 5.47682 10.6496 5.3399 10.6496C5.33548 10.8206 5.33217 10.9916 5.32886 11.1626C5.2085 11.1604 5.08815 11.1582 4.9678 11.155C4.94019 11.4218 4.90265 11.6887 4.87173 11.9555C4.75469 11.9599 4.63655 11.9653 4.5195 11.9719C4.49632 12.2855 4.46319 12.6003 4.43669 12.914C4.32186 12.9118 4.20592 12.9096 4.09109 12.9085C4.04692 13.452 3.97294 13.9933 3.95859 14.539C3.84375 14.5379 3.73003 14.5379 3.61519 14.5379C3.59311 15.0182 3.55998 15.4975 3.5644 15.9778C3.44625 15.9767 3.32921 15.9756 3.21217 15.9756C3.17242 17.2347 3.18346 18.4937 3.22873 19.7528C3.34246 19.7539 3.45619 19.755 3.56992 19.7572C3.57434 20.0959 3.5898 20.4346 3.60636 20.7723C3.7245 20.7723 3.84155 20.7723 3.95969 20.7723C3.97294 21.1796 3.99834 21.5848 4.03146 21.991C4.18494 21.9888 4.33842 21.9867 4.4919 21.9845C4.49521 21.8571 4.49963 21.7285 4.50294 21.6011C4.63875 21.6011 4.77457 21.6011 4.91038 21.6011C4.92142 21.4541 4.93136 21.307 4.9413 21.16C5.06938 21.1567 5.19746 21.1546 5.32444 21.1513C5.34321 20.9934 5.36088 20.8354 5.37965 20.6786C5.51105 20.6786 5.64244 20.6797 5.77384 20.6819C5.77384 20.537 5.77384 20.3921 5.77384 20.2473C5.9218 20.2462 6.06975 20.2462 6.21771 20.2473C6.21771 20.1024 6.21771 19.9587 6.21771 19.816C6.5313 19.8171 6.84598 19.8192 7.16067 19.8247C7.15957 19.9554 7.15846 20.0861 7.15626 20.2179C7.42236 20.2549 7.68736 20.2996 7.95457 20.3344C7.95788 20.4684 7.9623 20.6034 7.96671 20.7385C8.11467 20.7407 8.26263 20.7418 8.41059 20.7429C8.41059 20.8844 8.41169 21.0249 8.4128 21.1665C8.56407 21.1665 8.71423 21.1676 8.8644 21.1676C8.8633 21.3081 8.86219 21.4486 8.86109 21.5902C9.01125 21.5913 9.16142 21.5924 9.31048 21.5935C9.3149 21.7231 9.31821 21.8527 9.32153 21.9823C9.47611 22.0019 9.63069 22.0204 9.78528 22.04C9.78748 22.1696 9.7908 22.2993 9.793 22.43C9.94648 22.43 10.1 22.431 10.2534 22.4332C10.2523 22.5705 10.2512 22.7077 10.2501 22.8449C10.3992 22.846 10.5472 22.8471 10.6962 22.8493C10.6995 22.9854 10.7028 23.1216 10.705 23.2577C10.991 23.2948 11.2759 23.3394 11.5619 23.3764C11.5365 21.3375 11.6259 19.2954 11.4901 17.2597C11.3698 17.2619 11.2505 17.263 11.1302 17.2652C11.129 16.5191 11.1103 15.773 11.1224 15.0259C10.9535 15.0193 10.7845 15.0139 10.6156 15.0084C10.6145 14.8864 10.6145 14.7655 10.6145 14.6446C10.4908 14.6468 10.3683 14.6479 10.2446 14.6501C10.2424 14.4715 10.2391 14.2928 10.2347 14.1153C10.6565 14.1306 11.0794 14.1317 11.5012 14.1273C11.5 14.0097 11.5 13.8931 11.5012 13.7766C11.0783 13.7722 10.6554 13.7744 10.2336 13.7864C10.2391 13.6121 10.2446 13.4379 10.2501 13.2647C10.3738 13.2647 10.4975 13.2658 10.6222 13.2669C10.6233 13.1176 10.6255 12.9684 10.6289 12.8192C10.7636 12.817 10.8983 12.8149 11.0341 12.8138C11.0639 12.548 11.1048 12.2833 11.1401 12.0176C11.2715 12.0198 11.4018 12.0209 11.5332 12.023C11.5464 11.8597 11.5597 11.6963 11.5718 11.534C11.701 11.534 11.8302 11.5351 11.9594 11.5351C11.9605 11.3837 11.9616 11.2323 11.9638 11.0809C12.0974 11.0798 12.2321 11.0798 12.3668 11.0809C12.3966 10.813 12.4375 10.5461 12.4695 10.2782C12.5954 10.2804 12.7213 10.2826 12.8471 10.2847C12.8626 10.1203 12.8792 9.95582 12.8946 9.79135C13.0249 9.79135 13.1541 9.79244 13.2844 9.79353C13.2855 9.64105 13.2866 9.48857 13.2888 9.33609C13.4224 9.335 13.5549 9.33391 13.6885 9.335C13.7194 9.06815 13.7625 8.80458 13.7978 8.53882C13.9336 8.53991 14.0705 8.53991 14.2064 8.53991C14.2075 8.39287 14.2086 8.24693 14.2097 8.10098C14.3576 8.08791 14.5045 8.07484 14.6524 8.06068C14.6668 7.7677 14.68 7.47471 14.6889 7.18064C14.5277 7.17846 14.3665 7.17737 14.2064 7.17628C14.2152 6.90508 14.2218 6.63497 14.2229 6.36486C14.9329 6.3409 15.6407 6.28535 16.3507 6.2799C16.3495 6.16228 16.3495 6.04356 16.3484 5.92593C16.9436 5.91286 17.5387 5.90523 18.1339 5.92157C18.1339 6.06534 18.135 6.20911 18.1361 6.35288C18.2852 6.35397 18.4331 6.35397 18.5822 6.35506C18.5877 6.77438 18.5844 7.1948 18.5733 7.61521C18.4199 7.60214 18.2664 7.58907 18.1129 7.57709C18.1262 7.75027 18.1383 7.92454 18.1504 8.0988C18.2929 8.0988 18.4353 8.09771 18.5778 8.09662C18.5778 8.24148 18.5789 8.38634 18.5789 8.5312C18.7268 8.53229 18.8737 8.53229 19.0216 8.53229C19.0216 8.67823 19.0216 8.82418 19.0216 8.97122C19.1674 8.97122 19.3142 8.97122 19.46 8.97122C19.46 9.11607 19.46 9.26202 19.4611 9.40688C19.6068 9.40688 19.7537 9.40797 19.9005 9.40688C19.9005 9.55065 19.9005 9.69442 19.9017 9.8371C20.0507 9.83819 20.1987 9.83819 20.3477 9.83819C20.3477 9.98414 20.3477 10.1312 20.3477 10.2782C20.4935 10.2782 20.6392 10.2782 20.785 10.2782C20.785 10.4231 20.785 10.5679 20.785 10.7128C20.9329 10.7139 21.0798 10.7139 21.2267 10.7139C21.2267 10.8576 21.2267 11.0014 21.2278 11.1463C21.3746 11.1463 21.5226 11.1463 21.6705 11.1463C21.6716 11.2988 21.6727 11.4523 21.6749 11.6059C21.8119 11.607 21.9488 11.6092 22.0868 11.6113C22.089 11.8967 22.0956 12.1831 22.0989 12.4696C22.2469 12.4609 22.3949 12.4522 22.5439 12.4435C22.5726 12.7179 22.6069 12.9913 22.6323 13.2658C22.7504 13.2625 22.8697 13.2592 22.9889 13.2571C23.0198 13.549 23.0529 13.8408 23.0761 14.1338C23.1987 14.1295 23.3213 14.1262 23.4449 14.124C23.446 14.3027 23.4471 14.4824 23.4482 14.6621C23.5796 14.6621 23.7121 14.6621 23.8446 14.6621C23.8579 14.954 23.8778 15.2459 23.8921 15.5378C24.0213 15.5378 24.1505 15.5378 24.2797 15.5388C24.2918 15.8013 24.3095 16.0638 24.3283 16.3274C24.1682 16.3165 24.0092 16.3045 23.8513 16.2936C23.8998 17.2053 23.9109 18.1212 23.827 19.0318C24.0047 19.01 24.1847 18.9893 24.3636 18.9708C24.3669 18.8139 24.3713 18.656 24.3757 18.4992C24.5049 18.5003 24.6341 18.5014 24.7644 18.5024C24.7644 18.3554 24.7644 18.2084 24.7655 18.0613C24.9102 18.0603 25.0548 18.0603 25.2005 18.0613C25.2005 17.9121 25.2017 17.7618 25.2039 17.6126C25.3375 17.6104 25.4722 17.6082 25.6069 17.6072C25.6477 17.3479 25.6996 17.0909 25.7416 16.8317C25.9989 16.8317 26.2561 16.8284 26.5145 16.8219C26.5134 16.9591 26.5145 17.0974 26.5145 17.2358C26.6691 17.2368 26.8226 17.239 26.9783 17.2401C26.9783 17.3697 26.9783 17.5004 26.9794 17.63C27.1362 17.6486 27.294 17.6671 27.4519 17.6856C27.4542 17.8141 27.4575 17.9437 27.4597 18.0722C27.612 18.0733 27.7655 18.0744 27.919 18.0766C27.9179 18.2106 27.9168 18.3445 27.9157 18.4785C28.2138 18.5035 28.5108 18.5373 28.809 18.5667C28.8211 17.1236 28.7825 15.6815 28.6908 14.2406C28.5727 14.2406 28.4545 14.2395 28.3364 14.2395C28.3364 14.05 28.3353 13.8615 28.3342 13.672C28.2083 13.6699 28.0824 13.6666 27.9565 13.6644C27.9323 13.2364 27.8881 12.8083 27.8483 12.3814C27.7291 12.3836 27.6109 12.3857 27.4939 12.389C27.4729 12.0993 27.4409 11.8107 27.41 11.5231C27.2863 11.5242 27.1638 11.5264 27.0401 11.5275C27.0169 11.2552 26.9838 10.9829 26.9595 10.7095C26.8336 10.7117 26.7099 10.7139 26.5852 10.715C26.5797 10.5472 26.5752 10.3784 26.5697 10.2107C26.4361 10.2107 26.3025 10.2118 26.1689 10.2129C26.1325 9.94928 26.0872 9.68788 26.0519 9.42431C25.9138 9.42213 25.7747 9.41886 25.6367 9.41559C25.6356 9.27074 25.6345 9.12479 25.6345 8.97993C25.4876 8.97884 25.3419 8.97775 25.1961 8.97666C25.1939 8.83289 25.1939 8.68804 25.1939 8.54427C25.0449 8.54318 24.8969 8.54209 24.7489 8.541C24.7445 8.40594 24.7401 8.27089 24.7379 8.13692C24.4707 8.10316 24.2057 8.0585 23.9396 8.02147C23.9407 7.88641 23.9407 7.75027 23.9407 7.61521C23.7883 7.61412 23.637 7.61304 23.4858 7.61195C23.4869 7.48343 23.488 7.3549 23.4891 7.22638C23.319 7.22094 23.149 7.21549 22.979 7.21005C22.979 7.08044 22.979 6.95083 22.9801 6.82122C22.6897 6.7929 22.4004 6.75369 22.1111 6.72101C22.1111 6.6023 22.1122 6.48358 22.1133 6.36486C21.813 6.34525 21.5126 6.31585 21.2134 6.29297C21.2156 6.17534 21.2178 6.05663 21.2211 5.939C20.6679 5.90632 20.1181 5.84206 19.566 5.81374C19.5616 5.69503 19.5594 5.57631 19.5561 5.45759C18.9642 5.43254 18.3724 5.3966 17.7794 5.40095C17.7794 5.28441 17.7805 5.16678 17.7805 5.04915C16.4522 5.0143 15.125 5.05351 13.7978 5.06549ZM21.1979 12.3879C21.3459 13.5794 21.3194 14.7775 21.3106 15.9745C21.1626 15.968 21.0147 15.9625 20.8678 15.956C20.8623 16.2239 20.8512 16.4919 20.838 16.7587C20.9705 16.7587 21.1019 16.7598 21.2333 16.7609C21.2244 16.6051 21.2156 16.4494 21.2068 16.2936C21.3592 16.3013 21.5115 16.3089 21.665 16.3165C21.6286 15.4386 21.6484 14.5597 21.6286 13.6807C21.7843 13.6862 21.9399 13.6916 22.0967 13.6971C22.0967 13.403 22.1045 13.1089 22.1122 12.8149C21.9852 12.8181 21.8593 12.8214 21.7346 12.8247C21.739 12.6776 21.7445 12.5317 21.75 12.3846C21.5656 12.3857 21.3812 12.3868 21.1979 12.3879ZM15.1482 14.6839C15.1493 14.8156 15.1515 14.9485 15.1537 15.0814C14.8435 15.0792 14.5332 15.0814 14.2229 15.0792C14.2329 15.223 14.2428 15.3657 14.2527 15.5094C13.9513 15.5084 13.651 15.5203 13.3506 15.528C13.3584 15.6728 13.3672 15.8188 13.3749 15.9647C13.2137 15.9549 13.0514 15.9451 12.8902 15.9353C12.8913 16.0638 12.8913 16.1934 12.8913 16.322C13.1629 16.31 13.4334 16.3002 13.7051 16.2958C13.6973 16.1608 13.6896 16.0246 13.683 15.8906C13.9469 15.8808 14.2108 15.8623 14.4747 15.8362C14.584 15.9887 14.6823 16.1477 14.7375 16.3274C14.5409 16.3426 14.3444 16.3579 14.1467 16.3721C14.15 16.4962 14.1534 16.6215 14.1567 16.7467C14.0065 16.7478 13.8563 16.7489 13.7062 16.75C13.7029 16.8916 13.7007 17.0321 13.6984 17.1737C13.5637 17.1726 13.4301 17.1715 13.2965 17.1715C13.2789 17.9165 13.2954 18.6626 13.333 19.4065C14.6315 19.4685 15.9289 19.3422 17.2274 19.3444C17.2263 19.2267 17.2252 19.1102 17.224 18.9937C17.8115 18.9991 18.3967 18.9414 18.9808 18.8869C19.0161 17.9219 19.026 16.9548 18.9797 15.9908C17.5917 15.8068 16.1839 15.8384 14.7949 15.9767C14.563 15.9004 14.5509 15.6369 14.5288 15.4376C14.8479 15.4386 15.1659 15.4343 15.485 15.4343C15.4684 15.2796 15.4519 15.125 15.4353 14.9703C16.3705 15.0204 17.3091 15.0106 18.2454 14.9703C18.2277 15.1261 18.2112 15.2807 18.1946 15.4365C18.6032 15.4408 19.0106 15.4299 19.418 15.3962C19.418 15.3047 19.418 15.2132 19.418 15.1217C19.121 15.1032 18.824 15.0825 18.527 15.0727C18.5292 14.942 18.5314 14.8113 18.5336 14.6817C17.4051 14.6359 16.2756 14.625 15.1482 14.6839ZM25.2756 19.0154C25.2845 19.1581 25.2922 19.3019 25.301 19.4457C25.1376 19.4315 24.9753 19.4173 24.813 19.4043C24.813 19.5666 24.8141 19.7278 24.8141 19.89C24.6772 19.889 24.5392 19.8879 24.4022 19.8868C24.3879 20.2908 24.3824 20.696 24.3868 21.1012C24.5325 21.0979 24.6794 21.0957 24.8262 21.0936C24.8229 21.2471 24.8207 21.4007 24.8174 21.5543C25.0879 21.5401 25.3573 21.527 25.6279 21.5205C25.6268 21.4094 25.6279 21.2994 25.6279 21.1894C25.4887 21.1916 25.3496 21.1938 25.2105 21.197C25.1752 20.7232 25.1663 20.2495 25.2005 19.7768C25.343 19.7779 25.4854 19.78 25.6279 19.7822C25.619 19.6406 25.6102 19.499 25.6014 19.3574C26.053 19.3781 26.5035 19.364 26.9551 19.3465C26.954 19.2355 26.954 19.1244 26.9551 19.0133C26.3953 18.9849 25.8354 18.9882 25.2756 19.0154ZM26.6271 20.7973C26.6249 20.9269 26.6227 21.0554 26.6205 21.185C26.4626 21.184 26.3058 21.1829 26.149 21.1818C26.1501 21.2972 26.1501 21.4138 26.1512 21.5314C26.4295 21.5358 26.7077 21.5456 26.986 21.5575C26.9716 21.3974 26.9573 21.2373 26.9418 21.0772C27.1008 21.0892 27.2598 21.1023 27.4188 21.1143C27.4045 20.9541 27.3923 20.793 27.3813 20.6328C27.1328 20.7026 26.8822 20.7625 26.6271 20.7973ZM20.849 21.1894C20.8126 21.4791 20.7795 21.7699 20.7607 22.0618C20.9385 22.0586 21.1162 22.0553 21.294 22.0531C21.294 21.905 21.2929 21.7579 21.2918 21.6109C21.4331 21.612 21.5756 21.6131 21.7169 21.6142C21.7335 21.4334 21.7511 21.2526 21.7688 21.0729C21.4629 21.1186 21.1571 21.1611 20.849 21.1894ZM24.4078 22.5095C24.4122 22.6543 24.4177 22.8003 24.4232 22.9451C23.3864 22.8809 22.3474 22.9233 21.3106 22.9397C21.315 23.1924 21.3172 23.4461 21.315 23.6999C21.5667 23.6912 21.8174 23.6847 22.0691 23.6814C22.0658 23.5463 22.0636 23.4102 22.0625 23.2751C22.9569 23.3154 23.8513 23.2708 24.7456 23.2664C24.7346 23.1161 24.7224 22.9669 24.7114 22.8177C25.7493 22.8427 26.7872 22.87 27.824 22.8177C27.824 22.7153 27.824 22.614 27.824 22.5127C26.6857 22.4528 25.5462 22.5018 24.4078 22.5095ZM26.1656 23.8077C26.1667 23.9254 26.1689 24.0441 26.1711 24.1617C25.3993 24.1465 24.6297 24.2238 23.859 24.2303C23.8579 24.3458 23.8568 24.4612 23.8568 24.5778C22.9668 24.5876 22.0769 24.6268 21.188 24.6475C21.188 24.7618 21.188 24.8773 21.1891 24.9938C20.1567 25.0167 19.1254 25.0723 18.093 25.0799C18.093 25.1942 18.0919 25.3086 18.0919 25.4241C16.9259 25.4513 15.7621 25.5177 14.5972 25.5395C14.5917 25.656 14.5873 25.7737 14.5829 25.8902C13.6929 25.8859 12.8052 25.9534 11.9152 25.9567C11.9152 26.0721 11.9163 26.1886 11.9174 26.3052C10.7812 26.3117 9.64726 26.388 8.51217 26.4119C8.48567 26.5274 8.45917 26.6417 8.43157 26.7572C8.13344 26.7637 7.83421 26.7757 7.53609 26.7866C7.53498 26.9271 7.53278 27.0687 7.53057 27.2114C8.58836 27.3116 9.64725 27.1874 10.7073 27.2135C10.705 27.0926 10.7028 26.9728 10.7017 26.853C11.2991 26.8356 11.8953 26.7931 12.4927 26.7833C12.4927 26.6679 12.4927 26.5524 12.4916 26.437C13.662 26.4021 14.8324 26.3673 16.0017 26.3302C16.0017 26.2115 16.0006 26.0939 16.0006 25.9763C17.1479 25.9686 18.2929 25.9 19.4401 25.8815C19.439 25.7628 19.4379 25.6452 19.4368 25.5264C20.4692 25.4894 21.506 25.5493 22.534 25.4371C22.5318 25.3195 22.5296 25.2008 22.5274 25.0832C23.5575 25.0799 24.5866 25.0265 25.6168 25.0036C25.6157 24.8871 25.6135 24.7717 25.6135 24.6551C26.0673 24.6518 26.5211 24.6148 26.9749 24.5909C26.9661 24.3218 26.9617 24.0528 26.9628 23.7838C26.6967 23.7947 26.4317 23.8034 26.1656 23.8077ZM8.9715 24.7085C8.9715 24.8424 8.9715 24.9775 8.9715 25.1126C8.07713 25.0908 7.18275 25.1017 6.28948 25.1169C6.28948 25.2247 6.28948 25.3326 6.28948 25.4415C7.43009 25.4644 8.57069 25.4654 9.71019 25.4284C9.70357 25.2857 9.69694 25.1431 9.69032 25.0004C10.1452 25.0211 10.6013 25.0178 11.0573 25.0167C11.0562 24.9013 11.0562 24.7858 11.0573 24.6704C10.3617 24.6606 9.66603 24.6834 8.9715 24.7085Z" fill="white"/>
<path d="M34.984 4.61491C36.139 4.59422 37.2928 4.58986 38.4478 4.60837C38.4688 4.74016 38.4909 4.87195 38.5129 5.00483C38.6388 5.02225 38.7647 5.04077 38.8917 5.0582C38.8928 5.75744 38.9712 6.4545 38.9657 7.15483C39.0838 7.15374 39.202 7.15374 39.3212 7.15374C39.3223 7.76803 39.3952 8.38013 39.3974 8.99442C39.5144 8.99333 39.6315 8.99333 39.7496 8.99224C39.764 9.5793 39.7883 10.1653 39.8059 10.7523C39.9274 10.7534 40.0488 10.7556 40.1703 10.7578C40.1924 11.6226 40.2509 12.4863 40.2785 13.35C40.3967 13.3489 40.5159 13.3478 40.6363 13.3456C40.6396 13.6397 40.6484 13.9338 40.6572 14.2289C40.8196 14.2289 40.9819 14.23 41.1453 14.2311C41.1552 13.6462 41.1795 13.0624 41.1773 12.4775C41.2955 12.4775 41.4136 12.4775 41.5328 12.4775C41.5351 11.75 41.6201 11.0246 41.6168 10.2971C41.7327 10.2949 41.8497 10.2938 41.9679 10.2916C41.9701 9.67841 42.0441 9.06739 42.0452 8.45311C42.1633 8.4542 42.2815 8.45637 42.4007 8.45746C42.4107 7.61881 42.4979 6.78234 42.5067 5.94368C42.6249 5.94477 42.743 5.94695 42.8623 5.94913C42.8645 5.50911 42.9108 5.07127 42.9506 4.63343C44.2414 4.57461 45.5354 4.57134 46.8262 4.63016C46.8792 9.80693 46.8527 14.9837 46.8582 20.1605C46.8892 20.9044 46.8748 21.6483 46.8063 22.39C46.1041 22.439 45.4007 22.4118 44.6974 22.415C44.6963 22.292 44.6963 22.1689 44.6963 22.0458C44.5406 22.0447 44.3838 22.0436 44.2292 22.0425C44.2116 18.6825 44.2701 15.3181 44.2016 11.9602C44.11 11.9471 43.9278 11.9188 43.8361 11.9057C43.7445 12.3752 43.7213 12.8544 43.7357 13.3314C43.6186 13.338 43.5016 13.3445 43.3845 13.35C43.3569 14.1821 43.2807 15.0109 43.2642 15.8431C43.1471 15.8431 43.0301 15.8431 42.9142 15.8441C42.8799 16.4323 42.8523 17.0215 42.8479 17.6108C42.7276 17.6086 42.6072 17.6075 42.4879 17.6053C42.4714 18.3296 42.3985 19.0517 42.3919 19.776C42.2726 19.7749 42.1556 19.7727 42.0374 19.7716C42.0297 20.4948 41.9657 21.2148 41.9403 21.9369C41.8001 21.9456 41.662 21.9565 41.524 21.9685C41.5196 22.1112 41.5163 22.2538 41.5152 22.3965C41.1033 22.4074 40.6926 22.4161 40.2807 22.4194C40.2796 22.2952 40.2774 22.1711 40.2763 22.0469C40.1272 22.0262 39.9782 22.0055 39.8302 21.9848C39.8137 21.4261 39.7651 20.8695 39.7562 20.3108C39.6359 20.313 39.5155 20.3151 39.3963 20.3173C39.3897 19.703 39.3245 19.092 39.3234 18.4788C39.2042 18.4788 39.086 18.4799 38.969 18.481C38.9634 17.7839 38.8839 17.0912 38.8685 16.3942C38.7514 16.3942 38.6344 16.3942 38.5174 16.3942C38.5163 15.7821 38.4467 15.1721 38.4368 14.56C38.3175 14.56 38.1994 14.5589 38.0823 14.5589C38.079 13.9719 38.0536 13.3859 38.0437 12.7989C37.8714 12.7923 37.6992 12.7869 37.528 12.7803C37.5545 15.8409 37.5269 18.9014 37.549 21.9609C37.4033 21.963 37.2586 21.9674 37.114 21.9717C37.1118 22.1166 37.1096 22.2615 37.1084 22.4074C36.4051 22.4129 35.7017 22.4183 34.9984 22.4085C34.8648 21.6287 34.9156 20.8379 34.9056 20.0516C34.9078 15.622 34.9023 11.1923 34.9101 6.76273C34.9134 6.04715 34.8637 5.32613 34.984 4.61491Z" fill="white"/>
<path d="M51.2349 4.61195C52.4451 4.54224 53.6564 4.55422 54.8665 4.6163C54.8632 4.73393 54.861 4.85047 54.8588 4.9681C55.1514 4.98879 55.4429 5.0182 55.7355 5.04761C55.7322 5.17395 55.73 5.30029 55.7278 5.42773C55.8791 5.42881 56.0325 5.4299 56.1849 5.43208C56.1849 5.57258 56.1849 5.71309 56.186 5.8525C56.3229 5.85141 56.461 5.85032 56.6001 5.85032C56.6045 6.02023 56.61 6.19014 56.6155 6.36114C56.7403 6.35787 56.8651 6.35569 56.9921 6.35351C57.0042 6.65412 57.0263 6.95473 57.0484 7.25533C57.1709 7.25316 57.2924 7.25098 57.4161 7.2488C57.5364 11.4235 57.5706 15.6081 57.4139 19.7818C57.2913 19.7796 57.1698 19.7774 57.0495 19.7763C57.0241 20.0736 56.9976 20.3721 56.9821 20.6705C56.8585 20.6672 56.7348 20.6651 56.6111 20.6629C56.5935 20.8295 56.5769 20.9962 56.5614 21.1628C56.4289 21.1617 56.2975 21.1617 56.1672 21.1606C56.1661 21.2957 56.1661 21.4307 56.1661 21.5658C56.006 21.581 55.847 21.5952 55.688 21.6094C55.6858 21.7346 55.6836 21.8599 55.6814 21.9851C55.4076 22.0134 55.1349 22.0439 54.861 22.0668C54.8632 22.1823 54.8654 22.2988 54.8687 22.4153C53.5482 22.4883 52.2265 22.472 50.9081 22.3827C50.9059 22.2574 50.9048 22.1322 50.9037 22.0069C50.7292 22.0004 50.5548 21.9938 50.3814 21.9884C50.3814 21.8566 50.3836 21.7259 50.3858 21.5952C50.2357 21.5952 50.0866 21.5952 49.9386 21.5941C49.9375 21.4503 49.9375 21.3055 49.9375 21.1617C49.8039 21.1628 49.6703 21.165 49.5378 21.1672C49.5224 20.9994 49.508 20.8328 49.4948 20.6662C49.3689 20.6683 49.2452 20.6716 49.1216 20.6749C49.1039 20.3764 49.0763 20.0791 49.052 19.7818C48.9294 19.7839 48.8069 19.7872 48.6854 19.7894C48.5496 15.6059 48.5573 11.4148 48.6711 7.23028C48.7914 7.23137 48.9129 7.23137 49.0343 7.23246C49.0564 6.9373 49.0862 6.64432 49.1116 6.34915C49.2375 6.35024 49.3645 6.35024 49.4915 6.35133C49.4959 6.18578 49.5003 6.02023 49.5069 5.85576C49.646 5.85576 49.7863 5.85685 49.9265 5.85903C49.9265 5.71635 49.9276 5.57258 49.9287 5.4299C50.0789 5.4299 50.229 5.42881 50.3792 5.4299C50.377 5.30029 50.3737 5.17177 50.3726 5.04325C50.6619 5.01276 50.9512 4.98335 51.2416 4.96265C51.2382 4.84611 51.236 4.72849 51.2349 4.61195ZM52.2011 7.23028C52.2022 7.35554 52.2033 7.4797 52.2044 7.60496C52.0542 7.6104 51.9052 7.61476 51.7572 7.6202C51.7384 7.78576 51.7219 7.95131 51.7042 8.11577C51.5805 8.11468 51.458 8.1125 51.3354 8.11033C51.2051 9.83664 51.2957 11.5684 51.2736 13.2969C51.3012 15.1681 51.2062 17.0436 51.3431 18.9115C51.4779 18.9126 51.6137 18.9137 51.7495 18.9159C51.7506 19.0673 51.7517 19.2208 51.7528 19.3733C51.9074 19.3733 52.0631 19.3755 52.2199 19.3766C52.221 19.5106 52.2221 19.6445 52.2243 19.7785C52.7775 19.8112 53.3306 19.8144 53.8838 19.7796C53.8838 19.6456 53.886 19.5106 53.8882 19.3766C54.0428 19.3744 54.1985 19.3733 54.3542 19.3733C54.3542 19.2208 54.3553 19.0694 54.3564 18.917C54.4933 18.9159 54.6314 18.9148 54.7694 18.9148C54.8533 15.4306 54.7926 11.942 54.797 8.45559C54.6766 8.45777 54.5563 8.45994 54.437 8.46212C54.4138 8.18221 54.3818 7.90447 54.3509 7.62565C54.2007 7.61802 54.0517 7.61149 53.9037 7.60496C53.9037 7.4797 53.9037 7.35445 53.9059 7.23028C53.3373 7.21068 52.7686 7.21177 52.2011 7.23028Z" fill="white"/>
<path d="M59.2912 4.63807C60.7653 4.5542 62.2426 4.63044 63.7178 4.60648C63.7178 4.72302 63.7178 4.83847 63.7178 4.95501C64.4245 4.95174 65.1278 5.00838 65.8312 5.05957C65.829 5.1772 65.8268 5.29592 65.8268 5.41464C66.1139 5.4484 66.402 5.4887 66.6924 5.51702C66.6957 5.65425 66.7002 5.79149 66.7057 5.92981C66.8437 5.93526 66.9817 5.93961 67.1208 5.94397C67.1496 6.22497 67.1904 6.5038 67.2268 6.78371C67.3472 6.7848 67.4698 6.78589 67.5923 6.78698C67.6243 7.19759 67.6685 7.6082 67.6862 8.01991C67.8043 8.01773 67.9236 8.01555 68.0428 8.01446C68.0594 9.3269 68.1157 10.6382 68.0252 11.9496C67.9037 11.9474 67.7834 11.9452 67.6652 11.9431C67.6409 12.2513 67.61 12.5584 67.5879 12.8678C67.462 12.8765 67.3373 12.8852 67.2136 12.8939C67.2103 13.0431 67.2081 13.1934 67.207 13.3426C67.069 13.3437 66.9309 13.3437 66.7951 13.3437C66.7918 13.4864 66.7885 13.628 66.7852 13.7707C66.645 13.775 66.5058 13.7783 66.3678 13.7816C66.1547 14.4993 66.2916 15.2443 66.327 15.9751C66.4429 15.974 66.5588 15.9729 66.6759 15.9719C66.7024 16.548 66.7642 17.122 66.783 17.6982C66.9011 17.696 67.0204 17.6949 67.1407 17.6938C67.1496 18.136 67.1838 18.5771 67.2125 19.0182C67.3306 19.0161 67.4499 19.015 67.5691 19.0128C67.5813 19.4528 67.6122 19.8907 67.6464 20.3296C67.7646 20.3285 67.8838 20.3274 68.0031 20.3263C68.0219 21.0136 68.1676 21.7063 67.9931 22.387C67.1639 22.3946 66.3336 22.4229 65.5055 22.3739C65.469 22.0875 65.4226 21.8021 65.384 21.5168C65.267 21.5189 65.151 21.5211 65.0351 21.5233C65.0207 21.0833 64.9898 20.6454 64.96 20.2065C64.8396 20.2076 64.7193 20.2087 64.6011 20.2098C64.5746 19.6478 64.5194 19.089 64.4896 18.527C64.3704 18.5096 64.2533 18.4911 64.1363 18.4747C64.123 18.0391 64.0822 17.6056 64.0579 17.171C63.9386 17.1732 63.8194 17.1754 63.7012 17.1786C63.6869 16.6232 63.6195 16.071 63.6052 15.5166C63.4639 15.5155 63.3225 15.5144 63.1823 15.5133C63.1801 15.3641 63.179 15.2138 63.1779 15.0646C62.7682 15.0635 62.3586 15.0766 61.9511 15.1049C61.7999 17.5206 62.0704 19.9614 61.7888 22.3641C61.0998 22.4044 60.4097 22.4066 59.7207 22.4088C59.7185 22.2857 59.7174 22.1626 59.7163 22.0396C59.5639 22.0341 59.4116 22.0276 59.2603 22.0221C59.2647 16.2278 59.2007 10.4313 59.2912 4.63807ZM61.9114 7.61038C61.939 9.19838 61.9037 10.7875 61.9324 12.3755C62.6633 12.431 63.3976 12.4147 64.1308 12.394C64.1275 12.2709 64.1252 12.1467 64.1241 12.0237C64.2754 12.0215 64.4278 12.0193 64.5802 12.016C64.5813 11.8777 64.5835 11.7383 64.5846 11.6C64.7182 11.6011 64.8529 11.6022 64.9876 11.6022C64.9898 11.4192 64.992 11.2373 64.9942 11.0543C65.1146 11.0554 65.2349 11.0565 65.3564 11.0587C65.3807 10.3714 65.3796 9.68305 65.363 8.99579C65.2449 8.99688 65.1278 8.99906 65.0119 9.00015C64.9898 8.69845 64.9589 8.39784 64.939 8.09615C64.7966 8.09724 64.6552 8.09724 64.5139 8.09724C64.5128 7.95238 64.5139 7.80643 64.515 7.66266C63.6493 7.58315 62.7793 7.58642 61.9114 7.61038Z" fill="white"/>
<path d="M70.2299 4.60077C72.5917 4.60839 74.9524 4.60404 77.3131 4.60948C77.3165 4.75761 77.3209 4.90573 77.3264 5.05495C77.4677 5.05822 77.6102 5.06039 77.7526 5.06257C77.7128 5.89142 77.7636 6.72136 77.7073 7.54912C75.9859 7.71576 74.2425 7.44674 72.531 7.69507C72.5564 8.96176 72.5442 10.2295 72.5266 11.4973C73.6705 11.6847 74.8343 11.5561 75.9881 11.5823C75.9881 11.7315 75.9892 11.8796 75.9926 12.0288C76.135 12.031 76.2796 12.0332 76.4254 12.0343C76.3878 12.8675 76.4364 13.7007 76.3967 14.5328C75.1092 14.6548 73.8107 14.4707 72.5299 14.6613C72.5685 16.2221 72.5255 17.784 72.5222 19.3458C74.1033 19.544 75.7044 19.3796 77.2933 19.4319C77.4379 20.4001 77.4909 21.4217 77.2579 22.3791C74.9458 22.4053 72.6337 22.3857 70.3216 22.4096C70.3216 22.2844 70.3216 22.1613 70.3227 22.0371C70.1659 22.036 70.0102 22.036 69.8545 22.036C69.86 16.3474 69.8501 10.6587 69.8556 4.96999C69.9826 4.97108 70.1096 4.97326 70.2376 4.97653C70.2343 4.85128 70.2321 4.72602 70.2299 4.60077Z" fill="white"/>
<path d="M79.1633 4.6197C80.0113 4.59573 80.8615 4.59355 81.7106 4.63603C81.8199 7.07248 81.747 9.52091 81.7989 11.9628C82.8313 11.9846 83.8648 12.0205 84.8983 11.965C84.895 11.8386 84.8939 11.7134 84.8917 11.5881C85.0187 11.5903 85.1468 11.5914 85.2759 11.5925C85.3047 9.26714 85.1832 6.93198 85.3367 4.61316C86.1902 4.60554 87.0459 4.5794 87.8983 4.63821C87.9569 10.5534 87.9767 16.4741 87.8884 22.3882C87.0481 22.4274 86.2079 22.422 85.3676 22.398C85.149 19.9431 85.33 17.4641 85.2737 14.9994C85.1468 15.0005 85.022 15.0026 84.8972 15.0048C84.8983 14.8763 84.9005 14.7467 84.9027 14.6182C83.8659 14.6204 82.828 14.6182 81.7912 14.6291C81.7283 17.2158 81.8906 19.8124 81.7007 22.3926C80.8626 22.4122 80.0234 22.4111 79.1854 22.3969C79.0418 21.5855 79.1092 20.7621 79.0992 19.9431C79.1048 15.1878 79.0948 10.4314 79.097 5.67509C79.0915 5.3222 79.1324 4.9704 79.1633 4.6197Z" fill="white"/>
<path d="M91.9636 4.634C93.2897 4.54251 94.6203 4.52508 95.9475 4.60786C95.9442 4.72658 95.9419 4.8453 95.9408 4.96401C96.2279 4.98471 96.5161 5.01629 96.8054 5.04679C96.8021 5.17531 96.801 5.30492 96.801 5.43453C96.9456 5.43453 97.0925 5.43453 97.2404 5.43453C97.2393 5.58048 97.2404 5.72752 97.2415 5.87346C97.3707 5.87237 97.5021 5.87237 97.6335 5.87237C97.6457 6.03575 97.66 6.19912 97.6755 6.3625C97.8036 6.36032 97.9328 6.35814 98.063 6.35596C98.0829 6.65439 98.1138 6.95282 98.1392 7.25125C98.2574 7.24798 98.3777 7.2458 98.4992 7.24363C98.593 11.4216 98.6472 15.6051 98.4904 19.782C98.3667 19.7798 98.243 19.7777 98.1216 19.7766C98.0951 20.0707 98.0675 20.3658 98.0498 20.6621C97.925 20.6588 97.8014 20.6577 97.6799 20.6555C97.6644 20.8265 97.6501 20.9975 97.6379 21.1696C97.5065 21.1674 97.3763 21.1653 97.246 21.1642C97.2471 21.2938 97.2482 21.4245 97.2504 21.5552C97.0825 21.5715 96.9158 21.5889 96.7502 21.6064C96.7513 21.7316 96.7535 21.8569 96.7579 21.9832C96.5967 21.9854 96.4377 21.9887 96.2798 21.993C96.2732 22.1204 96.2688 22.2479 96.2666 22.3753C94.8378 22.4973 93.4057 22.4614 91.9758 22.3906C91.9747 22.2631 91.9747 22.1346 91.9758 22.0072C91.7991 22.0006 91.6247 21.9952 91.4513 21.9897C91.4524 21.8601 91.4546 21.7294 91.459 21.5998C91.3078 21.5998 91.1576 21.5998 91.0074 21.5998C91.0063 21.4561 91.0052 21.3123 91.0063 21.1696C90.865 21.1707 90.7248 21.1729 90.5867 21.174C90.5801 21.0051 90.5757 20.8352 90.5735 20.6664C90.4465 20.6686 90.3217 20.6719 90.197 20.6751C90.1815 20.3756 90.1539 20.0783 90.1318 19.7798C90.0093 19.782 89.8878 19.7842 89.7674 19.7864C89.6206 17.6266 89.6879 15.4613 89.6736 13.2983C89.6902 11.2528 89.6294 9.20629 89.7509 7.16303C89.869 7.16412 89.9883 7.16521 90.1086 7.16629C90.1285 6.88093 90.1594 6.59666 90.1881 6.31239C90.3162 6.30913 90.4454 6.30695 90.5746 6.30368C90.5746 6.15338 90.5757 6.00307 90.579 5.85386C90.7181 5.85386 90.8584 5.85386 90.9997 5.85604C90.9986 5.71009 90.9997 5.56523 91.003 5.42037C91.1488 5.41819 91.2956 5.41711 91.4425 5.41602C91.4391 5.28423 91.4369 5.15135 91.4369 5.01847C91.6136 5.01194 91.7925 5.0054 91.9725 4.99996C91.9681 4.87797 91.9647 4.75599 91.9636 4.634ZM93.2754 7.22947C93.2765 7.35472 93.2776 7.48106 93.2798 7.60631C93.1197 7.61067 92.9596 7.61394 92.8017 7.61721C92.7918 7.78167 92.7829 7.94613 92.7752 8.1106C92.6515 8.10842 92.529 8.10515 92.4075 8.10297C92.3148 9.07015 92.3379 10.0406 92.3424 11.011C92.3876 13.6468 92.2551 16.2891 92.4152 18.9216C92.5378 18.9183 92.6615 18.9161 92.7862 18.9129C92.7862 19.0795 92.7884 19.2462 92.7918 19.4139C92.9552 19.4172 93.1186 19.4193 93.2842 19.4226C93.2809 19.5489 93.2776 19.6742 93.2765 19.8005C93.8407 19.8245 94.4049 19.8212 94.9692 19.7864C94.9681 19.6513 94.9681 19.5174 94.9692 19.3823C95.1238 19.3801 95.2794 19.3779 95.4362 19.3769C95.4627 19.1067 95.4914 18.8377 95.5124 18.5687C95.6284 18.5709 95.7465 18.5731 95.8658 18.5752C95.9651 15.2054 95.8989 11.8312 95.8702 8.46022C95.7476 8.46239 95.6261 8.46457 95.5069 8.46784C95.4881 8.19664 95.4627 7.92762 95.4384 7.65751C95.2828 7.65424 95.1282 7.64988 94.9758 7.64661C94.9747 7.50938 94.9758 7.37323 94.978 7.236C94.4105 7.20986 93.8429 7.20877 93.2754 7.22947Z" fill="white"/>
<path d="M100.365 4.61968C101.217 4.59354 102.069 4.59463 102.92 4.62295C103.086 9.2399 102.916 13.8677 103.007 18.4879C103.126 18.4869 103.245 18.4869 103.366 18.4858C103.38 18.7831 103.402 19.0794 103.424 19.3756C103.581 19.3876 103.739 19.3996 103.898 19.4116C103.894 19.5379 103.893 19.6632 103.892 19.7895C104.45 19.8145 105.009 19.8167 105.567 19.7808C105.568 19.6425 105.57 19.5052 105.574 19.368C105.721 19.3647 105.87 19.3636 106.019 19.3625C106.036 19.0608 106.064 18.7591 106.088 18.4575C106.204 18.4585 106.321 18.4607 106.439 18.4618C106.477 14.6345 106.432 10.8072 106.447 6.9788C106.459 6.18916 106.39 5.39299 106.529 4.60988C107.387 4.60335 108.247 4.56849 109.106 4.63058C109.12 9.66794 109.213 14.7107 109.066 19.7459C108.942 19.7503 108.82 19.7557 108.7 19.7623C108.692 19.9442 108.686 20.126 108.683 20.309C108.559 20.3047 108.437 20.3014 108.316 20.2981C108.294 20.5715 108.263 20.8449 108.238 21.1183C108.11 21.1172 107.983 21.1161 107.857 21.1161C107.846 21.2609 107.836 21.4058 107.827 21.5507C107.669 21.567 107.513 21.5833 107.358 21.6008C107.358 21.7249 107.36 21.8502 107.362 21.9754C107.086 22.0016 106.81 22.0332 106.535 22.0571C106.535 22.1748 106.537 22.2924 106.54 22.4111C105.219 22.4862 103.899 22.4634 102.579 22.3915C102.578 22.2641 102.579 22.1366 102.58 22.0092C102.406 22.0027 102.232 21.9961 102.06 21.9907C102.061 21.8589 102.062 21.7271 102.066 21.5964C101.918 21.5964 101.77 21.5953 101.624 21.5953C101.623 21.4494 101.622 21.3034 101.624 21.1586C101.49 21.1586 101.359 21.1597 101.229 21.1607C101.214 20.993 101.201 20.8264 101.189 20.6586C101.062 20.6608 100.937 20.6619 100.813 20.6652C100.785 20.2546 100.733 19.8472 100.711 19.4377C100.592 19.4366 100.474 19.4344 100.358 19.4333C100.253 14.8839 100.317 10.3334 100.297 5.78291C100.286 5.39299 100.328 5.00634 100.365 4.61968Z" fill="white"/>
<path d="M113.15 4.62539C114.452 4.53608 115.759 4.53499 117.061 4.6243C117.057 4.74738 117.053 4.87045 117.051 4.99462C117.226 4.99788 117.402 5.00333 117.579 5.00769C117.578 5.13512 117.578 5.26364 117.579 5.39107C117.837 5.42919 118.096 5.4782 118.355 5.51741C118.391 5.77554 118.436 6.0315 118.473 6.28963C118.603 6.28854 118.734 6.28745 118.866 6.28636C118.869 6.45954 118.873 6.63271 118.879 6.80589C119.002 6.80371 119.127 6.80044 119.253 6.79826C119.267 7.09452 119.293 7.39077 119.318 7.68702C119.44 7.68484 119.563 7.68266 119.689 7.68048C119.712 8.11615 119.733 8.5529 119.735 8.98856C119.604 8.98747 119.473 8.98638 119.345 8.98421C119.346 9.10401 119.348 9.22382 119.352 9.34363C118.594 9.36323 117.839 9.47433 117.079 9.42423C117.074 9.24778 117.071 9.07134 117.07 8.8949C116.945 8.89707 116.823 8.90034 116.701 8.90361C116.682 8.61389 116.653 8.32526 116.626 8.03664C116.496 8.03882 116.366 8.04208 116.237 8.04426C116.236 7.89723 116.235 7.7491 116.236 7.60206C116.088 7.60097 115.943 7.59989 115.798 7.59989C115.8 7.47354 115.802 7.34829 115.807 7.22195C115.34 7.21214 114.874 7.21214 114.408 7.22195C114.408 7.34938 114.411 7.47681 114.415 7.60424C114.269 7.60424 114.123 7.60424 113.981 7.60533C113.975 7.77088 113.971 7.93752 113.97 8.10308C113.841 8.10199 113.714 8.09981 113.589 8.09872C113.576 8.65855 113.578 9.21729 113.597 9.77711C113.721 9.77385 113.846 9.77058 113.973 9.7684C113.975 9.94376 113.981 10.1202 113.986 10.2966C114.12 10.2966 114.253 10.2966 114.389 10.2966C114.39 10.4393 114.394 10.5831 114.399 10.7258C114.538 10.7334 114.678 10.7399 114.82 10.7465C114.824 10.8848 114.832 11.0231 114.841 11.1614C114.984 11.1647 115.129 11.1669 115.276 11.1691C115.276 11.3074 115.278 11.4446 115.281 11.5829C115.431 11.5851 115.583 11.5873 115.735 11.5884C115.733 11.7278 115.732 11.8683 115.733 12.0077C115.883 12.0088 116.035 12.011 116.189 12.0121C116.187 12.1395 116.186 12.268 116.187 12.3965C116.349 12.4107 116.514 12.4238 116.679 12.439C116.676 12.5708 116.675 12.7026 116.674 12.8355C116.825 12.8355 116.978 12.8377 117.133 12.8387C117.132 12.9782 117.131 13.1165 117.132 13.2559C117.278 13.257 117.424 13.2581 117.574 13.2613C117.575 13.4029 117.576 13.5456 117.579 13.6883C117.723 13.6894 117.867 13.6916 118.014 13.6937C118.015 13.8375 118.017 13.9813 118.021 14.1261C118.161 14.1261 118.302 14.1261 118.446 14.1272C118.446 14.2764 118.447 14.4267 118.45 14.5759C118.581 14.5727 118.712 14.5705 118.846 14.5683C118.857 14.7371 118.87 14.906 118.883 15.0748C119.008 15.0715 119.133 15.0693 119.26 15.0661C119.278 15.3623 119.308 15.6575 119.336 15.9537C119.455 15.9516 119.575 15.9483 119.698 15.9461C119.812 17.3653 119.815 18.7899 119.676 20.2069C119.546 20.208 119.417 20.2102 119.291 20.2123C119.283 20.3844 119.276 20.5576 119.272 20.7308C119.14 20.7286 119.011 20.7275 118.883 20.7253C118.882 20.8724 118.882 21.0205 118.882 21.1686C118.735 21.1686 118.589 21.1697 118.446 21.1697C118.447 21.2982 118.449 21.4268 118.452 21.5564C118.281 21.5716 118.111 21.588 117.942 21.6043C117.943 21.7263 117.947 21.8483 117.951 21.9702C117.675 21.9964 117.401 22.0302 117.129 22.0563C117.1 22.1739 117.073 22.2926 117.048 22.4124C115.754 22.48 114.46 22.4615 113.166 22.3939C113.167 22.2719 113.169 22.15 113.173 22.028C112.991 22.0225 112.81 22.0171 112.631 22.0116C112.631 21.8853 112.632 21.759 112.636 21.6337C112.368 21.5967 112.105 21.5498 111.841 21.5128C111.836 21.3756 111.832 21.2383 111.83 21.1011C111.688 21.0978 111.548 21.0946 111.409 21.0924C111.382 20.807 111.344 20.5228 111.312 20.2385C111.188 20.2396 111.067 20.2407 110.945 20.2428C110.929 19.9444 110.901 19.6471 110.88 19.3497C110.757 19.3519 110.636 19.3552 110.516 19.3574C110.488 18.6548 110.37 17.9502 110.491 17.2498C110.794 17.2313 111.095 17.2041 111.4 17.1845C111.396 17.0658 111.394 16.9481 111.392 16.8305C111.95 16.7978 112.51 16.7739 113.067 16.8316C113.078 17.3838 113.139 17.9327 113.17 18.4828C113.292 18.4806 113.414 18.4773 113.538 18.4762C113.55 18.645 113.564 18.815 113.58 18.986C113.711 18.9838 113.845 18.9827 113.978 18.9805C113.977 19.1243 113.977 19.268 113.978 19.4118C114.144 19.4151 114.312 19.4183 114.48 19.4216C114.476 19.548 114.474 19.6732 114.472 19.7996C115.036 19.8202 115.6 19.817 116.165 19.7854C116.162 19.658 116.16 19.5316 116.161 19.4053C116.316 19.3955 116.473 19.3846 116.631 19.3759C116.639 19.2212 116.65 19.0666 116.664 18.9119C116.788 18.913 116.915 18.9141 117.042 18.9162C117.059 18.4686 117.077 18.022 117.087 17.5744C116.972 17.57 116.858 17.5646 116.746 17.5602C116.714 17.1485 116.673 16.7379 116.625 16.3273C116.491 16.3273 116.359 16.3284 116.228 16.3284C116.226 16.1825 116.225 16.0365 116.226 15.8917C116.078 15.8906 115.933 15.8906 115.788 15.8906C115.787 15.7544 115.787 15.6183 115.788 15.4821C115.639 15.4712 115.491 15.4614 115.345 15.4516C115.333 15.322 115.322 15.1935 115.313 15.0639C115.162 15.0465 115.012 15.0301 114.864 15.0138C114.862 14.8842 114.861 14.7546 114.862 14.625C114.709 14.625 114.559 14.6239 114.409 14.6239C114.408 14.4823 114.409 14.3407 114.411 14.2002C114.261 14.2002 114.111 14.2002 113.963 14.1991C113.958 14.063 113.956 13.9268 113.956 13.7918C113.688 13.7569 113.423 13.7122 113.157 13.6774C113.156 13.5445 113.155 13.4116 113.156 13.2788C113.001 13.2766 112.849 13.2755 112.696 13.2744C112.696 13.1285 112.696 12.9825 112.698 12.8366C112.551 12.8366 112.404 12.8366 112.259 12.8377C112.257 12.6863 112.256 12.5349 112.256 12.3846C112.12 12.3824 111.986 12.3813 111.854 12.3813C111.82 12.1155 111.777 11.8509 111.742 11.5862C111.617 11.5884 111.492 11.5917 111.368 11.5938C111.355 11.4174 111.343 11.2409 111.333 11.0656C111.208 11.0678 111.084 11.0699 110.963 11.0721C110.865 9.64968 110.844 8.22288 110.955 6.80044C111.079 6.80262 111.202 6.80589 111.328 6.80807C111.332 6.63598 111.336 6.4628 111.343 6.28963C111.48 6.29072 111.618 6.29289 111.757 6.29507C111.757 6.14586 111.759 5.99555 111.762 5.84634C111.901 5.84416 112.041 5.84198 112.182 5.84089C112.183 5.70039 112.186 5.5588 112.192 5.4183C112.338 5.41503 112.486 5.41394 112.635 5.41176C112.632 5.2778 112.63 5.14383 112.631 5.00986C112.806 5.00551 112.981 5.00115 113.159 4.99679C113.155 4.87372 113.152 4.74956 113.15 4.62539Z" fill="white"/>
<path d="M121.567 4.62736C124.033 4.58706 126.502 4.58706 128.967 4.63063C129.073 5.60325 129.029 6.58785 128.943 7.56156C127.345 7.63344 125.747 7.5572 124.151 7.59532C124.189 8.92301 124.2 10.2507 124.15 11.5773C125.313 11.623 126.477 11.5708 127.642 11.5958C127.775 12.5804 127.761 13.5835 127.647 14.5692C126.489 14.5834 125.332 14.5518 124.176 14.5855C124.216 16.1964 124.096 17.8073 124.176 19.4181C125.773 19.4432 127.372 19.3996 128.969 19.4399C129.086 20.4169 129.055 21.4069 128.952 22.385C126.499 22.4318 124.045 22.4362 121.593 22.3796C121.499 21.8263 121.48 21.2643 121.497 20.7044C121.492 15.6943 121.496 10.6842 121.494 5.67404C121.49 5.32333 121.534 4.97589 121.567 4.62736Z" fill="white"/>
<path d="M35.3362 25.0581C36.0771 24.995 36.8236 24.9928 37.56 25.1071C37.5611 25.2542 37.5633 25.4023 37.5656 25.5504C37.7014 25.5537 37.8361 25.557 37.9719 25.5602C38.0028 26.107 38.0161 26.6548 38.0006 27.2027C37.7025 27.2103 37.4043 27.2245 37.1073 27.2354C37.1073 27.1058 37.1095 26.9751 37.1117 26.8454C36.9914 26.8465 36.8721 26.8487 36.7529 26.8509C36.7275 26.5525 36.6944 26.2551 36.669 25.9567C36.4051 25.9665 36.1423 25.973 35.8795 25.9752C35.7249 27.4009 35.8276 28.8386 35.8099 30.2687C36.1169 30.273 36.4261 30.2785 36.7341 30.2839C36.7396 29.869 36.754 29.454 36.7595 29.0401C37.1747 28.9911 37.5943 28.9791 38.0127 29.0063C38.0359 29.5683 38.0083 30.1293 37.9973 30.6913C37.8736 30.6902 37.7499 30.6902 37.6274 30.6902C37.6252 30.8536 37.6219 31.018 37.6197 31.1814C37.4518 31.1847 37.2851 31.1879 37.1173 31.1923C37.1184 31.3164 37.1195 31.4428 37.1206 31.568C36.5574 31.5768 35.9932 31.5724 35.4301 31.5528C35.429 31.4145 35.429 31.2772 35.4279 31.1389C35.2744 31.1378 35.122 31.1367 34.9697 31.1367C34.9674 30.981 34.9663 30.8263 34.9652 30.6717C34.8305 30.6684 34.698 30.6651 34.5644 30.663C34.5081 29.2133 34.5324 27.7614 34.528 26.3118C34.6461 26.3118 34.7632 26.3128 34.8824 26.3139C34.8935 26.0264 34.9111 25.7378 34.9288 25.4513C35.0646 25.4502 35.2004 25.4502 35.3373 25.4513C35.3362 25.3195 35.3362 25.1888 35.3362 25.0581Z" fill="white"/>
<path d="M39.3331 25.074C40.0729 24.9814 40.8215 24.9803 41.5613 25.0805C41.5746 25.2319 41.5878 25.3833 41.6011 25.5347C41.7258 25.5336 41.8517 25.5314 41.9765 25.5303C42.035 27.2752 42.0769 29.0222 41.9864 30.767C41.8616 30.7638 41.7369 30.7605 41.6132 30.7583C41.6121 30.8988 41.6121 31.0393 41.611 31.1809C41.463 31.1831 41.3162 31.1863 41.1693 31.1885C41.1461 31.3138 41.1241 31.439 41.102 31.5654C40.5399 31.5763 39.9779 31.5708 39.417 31.5425C39.4148 31.4042 39.4115 31.2669 39.4093 31.1297C39.258 31.1254 39.1067 31.1232 38.9555 31.121C38.9588 30.974 38.9621 30.8269 38.9654 30.681C38.8318 30.6625 38.6971 30.645 38.5635 30.6309C38.4873 29.0897 38.5337 27.5442 38.5524 26.0019C38.6772 25.9987 38.8031 25.9965 38.929 25.9943C38.9345 25.8168 38.94 25.6393 38.9455 25.4617C39.0758 25.4639 39.2072 25.4661 39.3386 25.4693C39.3364 25.3365 39.3342 25.2047 39.3331 25.074ZM39.8576 25.9725C39.7383 27.3993 39.7803 28.8359 39.8377 30.266C40.2507 30.2791 40.6647 30.266 41.0766 30.229C41.1285 28.9536 41.0777 27.6782 41.1097 26.4028C40.9805 26.393 40.8513 26.3832 40.7221 26.3744C40.7188 26.2318 40.7155 26.0902 40.7133 25.9486C40.4273 25.9562 40.1424 25.9671 39.8576 25.9725Z" fill="white"/>
<path d="M42.8861 25.0335C43.1776 25.0357 43.4691 25.0411 43.7617 25.0466C43.8831 26.7794 43.7794 28.521 43.8125 30.2571C44.6793 30.2484 45.5416 30.3301 46.4073 30.3464C46.3565 28.5733 46.479 26.8012 46.4017 25.0313C46.7098 25.0378 47.019 25.052 47.327 25.0749C47.295 26.7979 47.3635 28.5232 47.348 30.2517C48.0878 30.2898 48.8309 30.3007 49.5696 30.378C49.5696 28.6288 49.5895 26.8785 49.5784 25.1293C50.5932 24.9867 51.6211 25.0422 52.6425 25.0683C52.6359 25.3613 52.6259 25.6543 52.6105 25.9462C52.0407 25.9571 51.471 25.9615 50.9023 25.9734C50.8692 26.408 50.8284 26.8426 50.8217 27.2793C51.1044 27.288 51.3871 27.2968 51.6697 27.3022C51.6697 27.4198 51.6697 27.5386 51.6697 27.6562C51.842 27.654 52.0142 27.6518 52.1865 27.6497C52.1898 27.9535 52.1909 28.2563 52.192 28.5602C51.7603 28.5678 51.3285 28.5798 50.8968 28.5809C50.8328 29.1407 50.8085 29.7049 50.8814 30.2669C51.4544 30.2669 52.0286 30.2713 52.6005 30.3094C52.6513 30.7265 52.6248 31.1448 52.5685 31.5597C51.7139 31.5772 50.8582 31.5576 50.0035 31.5652C50.0013 31.4312 49.9991 31.2972 49.998 31.1633C49.6822 31.1295 49.3664 31.1045 49.0495 31.0968C49.0473 31.2515 49.0462 31.4062 49.0451 31.5608C48.1894 31.5641 47.3337 31.5663 46.4779 31.5554C46.4746 31.4051 46.4724 31.2548 46.4702 31.1045C46.1511 31.1045 45.8331 31.1121 45.5151 31.1252C45.5151 31.2711 45.5151 31.4171 45.5162 31.5641C44.6583 31.5695 43.8003 31.563 42.9424 31.5663C42.8386 29.3912 42.9258 27.2107 42.8861 25.0335Z" fill="white"/>
<path d="M53.5485 25.1089C54.3998 25.0076 55.2588 24.9967 56.1113 25.1034C56.1135 25.2537 56.1157 25.4029 56.1201 25.5532C56.2515 25.5587 56.384 25.563 56.5165 25.5685C56.5584 26.1109 56.5662 26.6533 56.5474 27.1968C56.1378 27.2229 55.7281 27.2218 55.3196 27.1913C55.3008 26.7829 55.2478 26.3777 55.2103 25.9715C54.9486 25.9726 54.6869 25.9693 54.4263 25.9628C54.243 27.3917 54.4462 28.8283 54.3722 30.2617C54.6758 30.2748 54.9795 30.2933 55.2842 30.3107C55.3174 29.8783 55.2942 29.4448 55.2136 29.0189C55.0678 29.0179 54.9221 29.0179 54.7785 29.0168C54.7785 28.7227 54.7829 28.4297 54.7874 28.1367C55.3759 28.0975 55.9655 28.1008 56.554 28.1509C56.5662 29.2836 56.5916 30.4174 56.5331 31.5491C55.6773 31.5186 54.8227 31.5894 53.9681 31.5687C53.9681 31.4412 53.9703 31.3149 53.9714 31.1886C53.8201 31.1788 53.6699 31.169 53.5198 31.1602C53.5043 30.9958 53.4889 30.8324 53.4745 30.669C53.3519 30.6701 53.2294 30.6723 53.1079 30.6745C53.0704 29.1083 53.0792 27.541 53.0958 25.9748C53.2117 25.9748 53.3277 25.9737 53.4458 25.9737C53.4756 25.6839 53.5165 25.3975 53.5485 25.1089Z" fill="white"/>
<path d="M57.0633 25.1093C58.0725 24.9851 59.0917 25.0548 60.1064 25.0483C60.1053 25.3478 60.1031 25.6484 60.1031 25.9479C59.5422 25.9708 58.9813 25.9839 58.4215 25.986C58.3431 26.5295 58.3331 27.0774 58.4226 27.6198C58.8488 27.6252 59.275 27.6383 59.7023 27.647C59.6957 27.9509 59.6802 28.2548 59.6625 28.5586C59.2441 28.5717 58.8278 28.588 58.4104 28.5902C58.3265 29.1446 58.3232 29.7044 58.3938 30.2599C58.9614 30.2534 59.5278 30.2926 60.0943 30.3231C60.113 30.7359 60.1086 31.1476 60.0799 31.5604C59.0851 31.5571 58.088 31.6028 57.0942 31.531C57.0357 29.3918 57.1042 27.2495 57.0633 25.1093Z" fill="white"/>
</svg>
