<svg width="114" height="66" viewBox="0 0 114 66" fill="none" xmlns="http://www.w3.org/2000/svg">
<g clip-path="url(#clip0_0_410)">
<path opacity="0.97" d="M55.3235 0.420898H55.6123C54.2365 3.57149 57.7635 3.41855 56.0152 0.420898H57.8167C56.5929 3.66325 60.0819 3.36502 58.212 0.420898H58.5312C59.413 0.680898 60.2947 0.948546 61.1765 1.21619C61.0017 2.29443 60.8496 3.38031 60.6976 4.46619C61.5262 3.2809 62.3395 2.0956 63.1757 0.925604C63.0312 2.40149 62.864 3.87737 62.75 5.35325C63.1376 4.68031 63.9054 3.32678 64.2931 2.65384C64.9392 2.95972 65.5853 3.25796 66.239 3.56384C65.7677 4.63443 65.304 5.69737 64.8479 6.76796C65.9501 5.97266 67.0523 5.17737 68.1849 4.42796C67.6757 5.77384 67.0219 7.05855 66.3758 8.34325C67.2804 7.71619 68.1849 7.08913 69.0895 6.45443C69.3099 6.91325 69.7508 7.8309 69.9713 8.28208C69.2263 8.92443 68.4814 9.56678 67.7441 10.2168C69.0819 10.0638 70.4121 9.89561 71.7576 9.74266C70.739 10.6297 69.6976 11.4862 68.6866 12.3733C69.7052 12.2433 70.7314 12.1133 71.75 11.9756C71.8336 12.6715 71.9172 13.3597 72.0008 14.048C70.9898 14.3233 69.9865 14.5985 68.9831 14.8891C70.2905 15.2868 71.6056 15.6615 72.913 16.0668C71.5295 16.4109 70.1537 16.7474 68.7778 17.0915C69.8876 17.3209 70.9974 17.5197 72.1148 17.7109C71.9552 18.5062 71.7956 19.3091 71.636 20.1121C70.549 19.8903 69.4544 19.6762 68.3522 19.4774C69.5228 20.3797 70.7086 21.2515 71.8792 22.1462C70.5262 21.9856 69.1655 21.8097 67.8125 21.6338C68.5194 22.2303 69.2339 22.8191 69.9485 23.408C69.6824 24.0962 69.424 24.7844 69.1655 25.465C68.1773 24.8685 67.1816 24.2874 66.1782 23.7215C66.9079 24.968 67.6529 26.1991 68.3674 27.4533C67.1968 26.788 66.0414 26.0997 64.886 25.4268C65.3268 26.2756 65.7753 27.1321 66.2314 27.9809C65.8209 28.3403 65.0076 29.0515 64.5971 29.4033C63.9358 28.4627 63.2669 27.5144 62.5675 26.5968C62.8108 28.0115 63.0844 29.4262 63.3353 30.8409C62.4155 29.7703 61.5338 28.6844 60.6292 27.6062C60.8192 28.6768 61.0245 29.755 61.2297 30.8333C60.4696 30.8715 59.717 30.9097 58.9645 30.948C58.7441 30.0838 58.516 29.2197 58.288 28.3556C57.8091 29.6403 57.3606 30.9327 56.8437 32.2021C56.6385 30.8562 56.4409 29.518 56.2508 28.1721C55.8632 29.0974 55.4831 30.0227 55.1182 30.9556C54.6697 30.9327 53.7652 30.8944 53.3167 30.8791C53.4231 29.8009 53.5295 28.7227 53.6208 27.6444C52.739 28.6921 51.8724 29.7627 50.9755 30.8103C51.1503 29.4262 51.3403 28.0421 51.5 26.6503C50.8691 27.545 50.261 28.455 49.6528 29.365C49.0447 28.9291 48.4366 28.5009 47.8285 28.065C48.3606 27.1627 48.8851 26.2603 49.4096 25.3503C48.2238 26.0385 47.0532 26.7497 45.8674 27.4303C46.5515 26.1838 47.266 24.945 47.9653 23.7062C46.9696 24.2797 45.989 24.8762 45.0084 25.4803C44.712 24.7921 44.4155 24.1038 44.1191 23.4156C44.8792 22.8268 45.6317 22.238 46.3843 21.6415C45.054 21.7715 43.7238 21.9244 42.3936 22.0391C43.511 21.1827 44.636 20.3491 45.7382 19.485C44.6816 19.6838 43.625 19.9056 42.576 20.1274C42.4012 19.3397 42.2263 18.5597 42.0439 17.7721C43.1461 17.5503 44.2483 17.3209 45.3429 17.0456C43.9822 16.7474 42.6216 16.4568 41.261 16.1662C42.5152 15.7303 43.777 15.325 45.0388 14.9044C44.0507 14.6062 43.0625 14.308 42.0743 14.025C42.2339 13.3291 42.386 12.6333 42.5456 11.9374C43.5262 12.1209 44.5143 12.3044 45.4949 12.488C44.5067 11.5474 43.5034 10.6297 42.5152 9.69678C43.8074 9.88031 45.1072 10.0715 46.4071 10.2474C45.6241 9.56678 44.826 8.90149 44.0355 8.24384C44.4307 7.64737 44.8336 7.05855 45.2441 6.46972C45.5937 6.97443 46.3007 7.99149 46.6503 8.50384C48.5583 7.31855 50.413 5.59796 48.0566 3.66325C48.6039 3.30384 49.1664 2.96737 49.7289 2.62325C50.1317 3.28855 50.9451 4.61149 51.3479 5.27678C51.2871 3.87737 51.1883 2.47796 51.1123 1.07855C51.8192 2.10325 52.5034 3.1356 53.1875 4.1756C53.3167 3.96913 53.5827 3.57149 53.7196 3.37266C53.5219 2.66149 53.3167 1.94266 53.1191 1.23149C53.6664 1.02502 54.7686 0.619722 55.3235 0.420898ZM54.2213 4.40502C53.1495 7.02031 55.5971 9.47502 55.5819 12.1515C53.2407 10.2627 53.7652 5.9956 50.1849 5.52913C49.5084 8.98561 53.3699 10.2015 54.1909 13.1074C51.576 11.9756 50.299 8.54972 47.0912 8.81737C47.2888 9.6509 47.4789 10.4844 47.6765 11.3256C49.4172 12.0674 51.1655 12.7862 52.9214 13.505C52.663 14.4991 52.4121 15.5009 52.1841 16.5103C49.6376 16.6709 46.6807 16.0285 44.7956 18.2462C47.5929 20.5327 50.375 17.5885 53.2787 17.2368C51.8192 20.0127 47.2812 19.3244 46.7719 22.9874C50.0633 23.5303 51.6064 20.1427 54.0692 18.6668C53.8488 20.9074 51.7964 22.1233 50.3522 23.5685C50.3294 24.5091 50.3218 25.4497 50.3066 26.398C51.1199 26.0309 51.9409 25.6638 52.7542 25.2891C53.6056 23.4462 53.6968 20.8538 55.8403 19.9974C55.2854 21.9627 54.5101 23.8668 53.6664 25.725C53.9096 27.8585 55.2778 28.1874 56.5321 26.5356C56.4789 24.3485 56.38 22.1233 56.9577 19.9821C58.4932 22.5438 56.3724 26.5891 59.6562 28.0956C59.8463 27.5068 60.2263 26.3291 60.4164 25.7403C59.6182 23.8668 58.8581 21.9703 58.3412 19.9974C61.0625 21.3891 60.4392 25.6791 63.761 26.4744C63.7762 25.488 63.7914 24.5015 63.799 23.5227C62.3395 22.0774 60.4468 20.8233 59.9831 18.6821C62.5903 19.9744 63.9662 23.4844 67.288 23.0103C67.0827 22.4138 66.6875 21.2285 66.4898 20.6321C64.5515 19.7756 62.6056 18.9344 60.7356 17.925C63.6013 16.5562 66.3226 20.8462 69.1807 18.4068C68.7398 17.9633 67.8581 17.0762 67.4172 16.6327C65.4105 16.6097 63.4037 16.6097 61.4045 16.518C62.4459 14.3997 65.4104 15.738 67.3108 15.4168C67.9417 14.7133 68.565 14.0021 69.1883 13.2909C66.353 11.8685 63.7077 14.0556 60.9941 14.6521C61.891 12.4956 64.5591 12.358 66.4062 11.4097C66.6951 10.5762 66.9763 9.75031 67.2652 8.92443C66.6343 8.93972 65.38 8.97796 64.7491 8.99325C63.2897 10.538 61.929 12.3121 59.8539 13.0385C61.0017 10.3468 64.4983 8.93208 63.9434 5.56737C60.3631 6.03384 61.0169 10.4844 58.3944 12.1285C58.6072 9.49031 61.0017 7.02031 59.9071 4.38208C56.5397 4.1756 57.9079 8.98561 57.6419 11.1344C57.353 11.1115 56.7905 11.0809 56.5017 11.0656C56.304 8.93208 57.5887 4.05325 54.2213 4.40502ZM44.8412 13.3444C46.3539 15.845 50.0405 16.235 52.1309 14.308C49.7973 13.4591 47.3192 12.0827 44.8412 13.3444Z" fill="white"/>
<path opacity="0.97" d="M17.7545 36.64C21.6008 34.6135 24.5425 40.9529 20.4377 42.3064C16.6979 44.0652 14.1058 38.1464 17.7545 36.64ZM18.4234 37.2517C15.7477 38.0547 16.9031 42.4823 19.6928 41.6029C22.8094 41.2664 21.3651 36.0588 18.4234 37.2517Z" fill="white"/>
<path opacity="0.97" d="M24.596 36.0027C25.2953 37.0427 25.2801 38.2969 25.3713 39.4898C26.5723 38.2127 27.8494 36.9816 29.4001 36.1404C28.6703 37.2263 27.857 38.251 27.0284 39.2604C27.9634 40.3998 28.8908 41.5392 29.7193 42.7627C28.3359 42.021 27.15 40.981 25.9718 39.9639C25.4625 40.9427 24.9533 41.9292 24.4136 42.8927C24.368 40.591 24.3375 38.2892 24.596 36.0027Z" fill="white"/>
<path opacity="0.97" d="M35.952 42.7007C36.9326 40.3913 37.7459 37.9519 39.4106 36.0325C40.4824 38.2272 41.4706 40.4601 42.4208 42.716C40.6268 40.4907 37.7383 40.4372 35.952 42.7007ZM38.9621 38.1966C36.4385 41.3778 42.4284 39.726 38.9621 38.1966V38.1966Z" fill="white"/>
<path opacity="0.97" d="M44.4378 42.9154C43.6017 40.7207 43.6017 38.1743 44.4302 35.9796C44.5291 36.7366 44.7343 38.2354 44.8407 38.9925C45.9353 38.9925 47.0223 39.0001 48.1169 39.0001C48.1777 38.2584 48.3069 36.7672 48.3677 36.0254C49.7892 37.7996 48.8998 40.2772 49.1431 42.3648C48.9074 42.3878 48.4286 42.4337 48.1853 42.449C48.1853 41.8066 48.1777 40.5066 48.1701 39.8566C47.0603 39.8566 45.9505 39.8566 44.8407 39.8566C44.7419 40.6213 44.5367 42.1507 44.4378 42.9154Z" fill="white"/>
<path opacity="0.97" d="M52.7325 36.64C56.6244 34.5676 59.6117 41.037 55.4082 42.3141C51.7291 43.9812 49.1598 38.2229 52.7325 36.64ZM53.4318 37.3206C50.7789 38.0318 51.9571 42.4365 54.6556 41.5953C57.9242 41.3965 56.3659 35.9823 53.4318 37.3206Z" fill="white"/>
<path opacity="0.97" d="M59.4552 36.0027C60.641 37.4404 61.7052 38.9698 62.8226 40.4686C63.5752 38.8857 64.2897 37.211 65.7035 36.1022C65.8328 38.1822 65.8252 40.2698 65.848 42.3498C65.6123 42.3727 65.1486 42.411 64.913 42.4263C64.8902 41.2563 64.8598 40.0786 64.8294 38.9086C64.0312 39.8951 63.2635 40.8969 62.4806 41.891C61.7356 40.7745 61.0059 39.658 60.2458 38.5569C60.223 39.8492 60.2002 41.1416 60.1926 42.4416L59.3868 42.4569C59.3564 40.3004 59.3488 38.1516 59.4552 36.0027Z" fill="white"/>
<path opacity="0.97" d="M70.16 36.039C71.9995 37.8361 72.676 40.3978 73.6794 42.6919C72.4708 41.5143 70.9961 40.8414 69.301 40.8337C68.6625 41.4837 68.024 42.1184 67.3703 42.7455C68.1152 40.4361 69.0806 38.2031 70.16 36.039ZM70.1144 38.1343C69.0046 38.6084 69.2934 40.8031 70.6921 40.3902C71.9083 40.0537 71.361 37.7519 70.1144 38.1343Z" fill="white"/>
<path opacity="0.97" d="M77.6316 39.4209C77.3047 36.3009 81.6071 35.5132 83.363 37.5015C81.5767 37.2338 78.4905 36.7444 78.4677 39.4285C78.3765 42.1662 81.5843 41.5315 83.3402 41.3862C81.5691 43.3515 77.2287 42.5638 77.6316 39.4209Z" fill="white"/>
<path opacity="0.97" d="M87.0151 36.5142C89.3487 36.4225 91.6824 36.4913 94.0236 36.5831C94.5861 37.5389 95.1562 38.4872 95.7263 39.4431C96.5244 38.2195 97.3074 36.9654 98.44 36.0325C97.5734 38.1354 96.2812 40.1007 96.0607 42.4178C95.9239 42.4178 95.6427 42.4101 95.5058 42.4101C95.3006 40.2689 94.1832 38.426 92.9898 36.6978C92.3361 36.8584 91.021 37.1795 90.3597 37.3401C90.3293 39.1907 90.3141 41.0489 90.1317 42.8919C88.9079 41.3242 89.516 39.206 89.3487 37.3707C88.7634 37.1566 87.5928 36.7284 87.0151 36.5142Z" fill="white"/>
<path opacity="0.97" d="M1.99687 48.8941C2.36173 46.0035 6.05599 45.797 7.88031 47.4411C6.02558 47.3952 3.09146 46.5999 2.85582 49.3376C2.85582 52.1976 6.01038 51.4788 7.86511 51.3105C5.89636 53.7958 1.33555 52.2205 1.99687 48.8941Z" fill="white"/>
<path opacity="0.97" d="M10.2447 46.733C13.9009 44.4083 17.3748 50.4036 13.4981 52.2006C10.0851 54.3647 6.65685 48.66 10.2447 46.733ZM10.9896 47.3753C8.31395 48.4383 10.1307 52.713 12.7759 51.4818C15.7557 50.763 13.7489 45.8536 10.9896 47.3753Z" fill="white"/>
<path opacity="0.97" d="M17.1383 46.0062C18.4229 47.3138 19.3959 48.8891 20.3689 50.4262C21.243 48.8509 22.1856 47.2986 23.379 45.9374C23.5234 48.2697 23.5843 50.6097 23.3638 52.9421C22.3756 51.7033 22.6949 50.0591 22.5049 48.6138C21.8055 49.6768 21.1138 50.7397 20.4221 51.8103C19.6392 50.885 18.8562 49.9597 18.0581 49.0421C18.0125 50.1433 17.9821 51.2444 17.9593 52.3456C17.716 52.3456 17.2371 52.3456 16.9939 52.338C17.0015 50.2274 16.9939 48.1168 17.1383 46.0062Z" fill="white"/>
<path opacity="0.97" d="M26.0684 45.9605C27.2922 47.314 28.2348 48.8817 29.109 50.4799C30.0667 48.9352 31.0093 47.3599 32.2559 46.0293C32.4003 48.117 32.4003 50.2123 32.4231 52.3076C32.1875 52.3229 31.7238 52.3458 31.4882 52.3535C31.4654 51.237 31.435 50.1205 31.397 49.004C30.6064 49.9293 29.8311 50.8699 29.0481 51.8105C28.3488 50.7705 27.6495 49.7382 26.9198 48.7211C26.8742 49.9523 26.8285 51.1911 26.7905 52.4223L25.9772 52.4911C25.9468 50.3117 25.924 48.1323 26.0684 45.9605Z" fill="white"/>
<path opacity="0.97" d="M34.7024 46.3944L35.5082 46.3179C35.5766 48.0844 35.6982 49.8509 35.9338 51.6021C39.6813 52.5121 38.9592 48.4362 39.1796 45.9968C40.5478 48.0079 40.525 52.5503 37.2945 52.6497C33.9879 52.5809 34.8088 48.635 34.7024 46.3944Z" fill="white"/>
<path opacity="0.97" d="M42.3071 46.073C43.8426 47.3807 45.1196 48.9483 46.4499 50.4625C46.5335 48.9636 46.6019 47.4648 46.7691 45.9736C48.1982 47.8625 47.2632 50.4701 47.4381 52.6648C45.743 51.5789 44.5419 49.9272 43.2877 48.3825C43.2041 49.8813 43.1281 51.3878 42.9685 52.8866C41.5242 50.9289 42.4136 48.3136 42.3071 46.073Z" fill="white"/>
<path opacity="0.97" d="M50.6233 52.7972C49.2855 51.0001 49.2931 47.8189 50.6081 46.0066C50.7905 48.2625 50.7829 50.5336 50.6233 52.7972Z" fill="white"/>
<path opacity="0.97" d="M52.0111 46.3725C54.3143 46.3802 56.6175 46.449 58.9207 46.5637C59.4832 47.5119 60.0533 48.4525 60.6234 49.4008C61.4672 48.1849 62.3033 46.9461 63.4511 45.9902C62.4553 48.2461 61.2619 50.4255 60.5626 52.8114C60.1825 50.5555 59.1868 48.5061 57.9173 46.6325C56.9976 46.9537 56.0778 47.2672 55.158 47.5731C55.196 49.1637 55.2188 50.7466 55.2493 52.3372C54.9984 52.3296 54.4967 52.3296 54.2459 52.3296C54.2763 50.7772 54.2915 49.2249 54.3219 47.6725C53.5466 47.2443 52.7712 46.8161 52.0111 46.3725Z" fill="white"/>
<path opacity="0.97" d="M67.5954 48.5983C68.0363 45.8836 71.6318 45.8836 73.2965 47.4513C71.1909 47.176 68.8421 46.9695 67.8691 49.3401C68.69 51.8636 71.1453 51.6572 73.266 51.3436C71.2061 53.9666 66.4628 51.986 67.5954 48.5983Z" fill="white"/>
<path opacity="0.97" d="M75.6179 46.7453C77.3738 45.9195 80.1863 46.4089 80.5132 48.68C81.2961 51.1577 78.362 53.4747 76.1424 52.3047C73.6643 51.6395 73.4135 47.9153 75.6179 46.7453ZM75.0706 49.3606C74.7665 50.9206 76.6365 51.3718 77.5638 52.1136C78.6052 51.28 80.1103 50.4083 79.6086 48.81C79.0537 46.3936 74.9946 46.8142 75.0706 49.3606Z" fill="white"/>
<path opacity="0.97" d="M82.4912 52.3744C82.7193 50.2715 81.8831 47.8244 83.221 45.9968C83.3958 47.9009 83.3958 49.8126 83.4034 51.7244C84.4828 51.7626 85.5546 51.8009 86.634 51.8315L86.6188 52.5885C85.2429 52.5274 83.8671 52.4662 82.4912 52.3744Z" fill="white"/>
<path opacity="0.97" d="M93.9336 46.4326C95.4843 46.4326 97.035 46.4403 98.5781 46.5856C97.225 47.465 94.861 46.7309 94.5417 48.7956C95.8188 48.9638 97.187 48.9256 98.3424 49.6138C97.111 49.7591 95.8796 49.8738 94.6482 49.9732C94.6102 52.3744 97.4151 51.5561 98.9657 52.1144C97.3162 52.5885 95.5907 52.5732 93.8956 52.3591C93.9336 50.3785 93.9336 48.4056 93.9336 46.4326Z" fill="white"/>
<path opacity="0.97" d="M99.8626 49.4775C99.7334 46.7704 102.569 46.0745 104.712 46.4569C104.955 46.7322 105.442 47.2904 105.685 47.5733C104.089 47.4892 101.596 46.4875 100.965 48.6516C100.091 50.831 102.386 51.8481 104.165 51.7181C104.446 50.8081 104.781 49.9057 105.305 49.1028C105.358 50.1045 105.396 51.1063 105.412 52.1157C103.192 53.1328 99.8626 52.391 99.8626 49.4775Z" fill="white"/>
<path opacity="0.97" d="M107.579 46.426C109.137 46.4337 110.695 46.4413 112.246 46.5943C110.87 47.489 108.369 46.6784 108.248 48.919C109.35 48.9572 110.452 48.9878 111.562 49.0107C111.554 49.2019 111.547 49.5919 111.539 49.7907C110.46 49.829 109.38 49.8749 108.301 49.9207C108.187 52.2913 110.817 51.5878 112.314 52.1001C110.809 52.7578 109.152 52.5054 107.571 52.4137C107.586 50.4178 107.594 48.4219 107.579 46.426Z" fill="white"/>
<path opacity="0.23" d="M55.6173 0.420959H56.0202C57.7685 3.41861 54.2414 3.57155 55.6173 0.420959Z" fill="white"/>
<path opacity="0.23" d="M57.8225 0.420898H58.2178C60.0877 3.36502 56.5987 3.66325 57.8225 0.420898Z" fill="white"/>
<path opacity="0.51" d="M45.2389 6.47066C46.0067 5.37713 46.9568 4.42889 48.0514 3.66418C50.4078 5.59889 48.5531 7.31948 46.6452 8.50477C46.2955 7.99242 45.5886 6.97536 45.2389 6.47066Z" fill="white"/>
<path opacity="0.88" d="M31.0361 36.4614L32.1383 36.4691C32.1459 38.1591 32.1535 39.8414 32.1611 41.5314C33.0809 41.5697 34.0007 41.6003 34.928 41.6385L34.9812 42.5638C33.6738 42.5638 32.3664 42.5638 31.0666 42.5638C31.0361 40.5297 31.0361 38.4955 31.0361 36.4614Z" fill="white"/>
<path opacity="0.75" d="M84.8759 36.3614L85.9249 36.3231C85.9705 38.4031 85.9781 40.4831 85.9553 42.5631L84.8607 42.5325C84.8531 40.4755 84.8607 38.4184 84.8759 36.3614Z" fill="white"/>
<path opacity="0.75" d="M88.1247 46.3393L89.2117 46.324C89.2269 47.9987 89.2345 49.6811 89.2345 51.3558C90.4887 51.524 91.7429 51.7152 92.9896 51.9599C91.4465 52.6711 89.7362 52.587 88.0867 52.6099C88.0867 50.5146 88.1019 48.427 88.1247 46.3393Z" fill="white"/>
</g>
<defs>
<clipPath id="clip0_0_410">
<rect width="112.5" height="65" fill="white" transform="translate(0.777863 0.421143)"/>
</clipPath>
</defs>
</svg>
