<svg width="27" height="27" viewBox="0 0 27 27" fill="none" xmlns="http://www.w3.org/2000/svg">
<path d="M13.8173 22.8136H4.5178C3.92576 22.8136 3.44613 22.3337 3.44613 21.7419V4.46838C3.44613 3.87643 3.92584 3.39673 4.5178 3.39673H21.7915C22.3833 3.39673 22.863 3.87643 22.863 4.46838V21.7419C22.863 22.3338 22.3832 22.8136 21.7915 22.8136H16.8435V15.2943H19.3674L19.7453 12.3639H16.8435V10.4931C16.8435 9.64464 17.0791 9.06647 18.2957 9.06647L19.8475 9.06579V6.44482C19.5791 6.4091 18.658 6.32932 17.5863 6.32932C15.349 6.32932 13.8173 7.69496 13.8173 10.2028V12.3639H11.287V15.2943H13.8173V22.8136Z" fill="white"/>
</svg>
