<svg width="27" height="27" viewBox="0 0 27 27" fill="none" xmlns="http://www.w3.org/2000/svg">
<path fill-rule="evenodd" clip-rule="evenodd" d="M21.3536 16.6968L18.6136 16.384C17.9556 16.3085 17.3084 16.535 16.8445 16.9989L14.8597 18.9837C11.8069 17.4304 9.3043 14.9385 7.75095 11.875L9.74657 9.87934C10.2104 9.41549 10.437 8.76826 10.3614 8.11024L10.0486 5.39187C9.91917 4.30237 9.00226 3.48254 7.90197 3.48254H6.03579C4.81684 3.48254 3.80284 4.49654 3.87835 5.71549C4.45007 14.9277 11.8177 22.2846 21.0192 22.8563C22.2381 22.9318 23.2521 21.9178 23.2521 20.6989V18.8327C23.2629 17.7432 22.4431 16.8263 21.3536 16.6968Z" fill="white"/>
</svg>
