<svg width="21" height="21" viewBox="0 0 21 21" fill="none" xmlns="http://www.w3.org/2000/svg">
<path d="M9.00212 13.6674H12.3354C12.5716 13.6674 12.7696 13.5874 12.9296 13.4274C13.0896 13.2674 13.1693 13.0696 13.1688 12.8341V11.1674H11.5021V12.0007H9.83545V8.6674H11.5021V9.50073H13.1688V7.83407C13.1688 7.59795 13.0888 7.40018 12.9288 7.24073C12.7688 7.08129 12.571 7.00129 12.3354 7.00073H9.00212C8.766 7.00073 8.56823 7.08073 8.40878 7.24073C8.24934 7.40073 8.16934 7.59851 8.16878 7.83407V12.8341C8.16878 13.0702 8.24878 13.2682 8.40878 13.4282C8.56878 13.5882 8.76656 13.668 9.00212 13.6674ZM10.6688 18.6674C9.516 18.6674 8.43267 18.4485 7.41878 18.0107C6.40489 17.573 5.52295 16.9793 4.77295 16.2299C4.02295 15.4799 3.42934 14.598 2.99212 13.5841C2.55489 12.5702 2.336 11.4868 2.33545 10.3341C2.33545 9.18129 2.55434 8.09795 2.99212 7.08407C3.42989 6.07018 4.0235 5.18823 4.77295 4.43823C5.52295 3.68823 6.40489 3.09462 7.41878 2.6574C8.43267 2.22018 9.516 2.00129 10.6688 2.00073C11.8216 2.00073 12.9049 2.21962 13.9188 2.6574C14.9327 3.09518 15.8146 3.68879 16.5646 4.43823C17.3146 5.18823 17.9085 6.07018 18.3463 7.08407C18.7841 8.09795 19.0027 9.18129 19.0021 10.3341C19.0021 11.4868 18.7832 12.5702 18.3454 13.5841C17.9077 14.598 17.3141 15.4799 16.5646 16.2299C15.8146 16.9799 14.9327 17.5738 13.9188 18.0116C12.9049 18.4493 11.8216 18.668 10.6688 18.6674ZM10.6688 17.0007C12.5299 17.0007 14.1063 16.3549 15.3979 15.0632C16.6896 13.7716 17.3354 12.1952 17.3354 10.3341C17.3354 8.47295 16.6896 6.89657 15.3979 5.6049C14.1063 4.31323 12.5299 3.6674 10.6688 3.6674C8.80767 3.6674 7.23128 4.31323 5.93962 5.6049C4.64795 6.89657 4.00212 8.47295 4.00212 10.3341C4.00212 12.1952 4.64795 13.7716 5.93962 15.0632C7.23128 16.3549 8.80767 17.0007 10.6688 17.0007Z" fill="white"/>
</svg>
