<svg width="27" height="27" viewBox="0 0 27 27" fill="none" xmlns="http://www.w3.org/2000/svg">
<path fill-rule="evenodd" clip-rule="evenodd" d="M6.28207 8.55447H6.25467C4.88471 8.55447 3.99652 7.65817 3.99652 6.52206C3.99652 5.36383 4.91097 4.48633 6.30833 4.48633C7.70454 4.48633 8.56305 5.36162 8.59045 6.51874C8.59045 7.65486 7.70454 8.55447 6.28207 8.55447ZM23.4185 21.7454H19.1271V15.678C19.1271 14.0899 18.4558 13.0057 16.9797 13.0057C15.8506 13.0057 15.2227 13.7373 14.9305 14.4424C14.834 14.6653 14.8357 14.9652 14.8375 15.2744C14.8377 15.3163 14.838 15.3585 14.838 15.4006V21.7454H10.5865C10.5865 21.7454 10.6413 10.9976 10.5865 10.0206H14.838V11.8607C15.0892 11.0562 16.4477 9.9079 18.6157 9.9079C21.3054 9.9079 23.4185 11.5944 23.4185 15.226V21.7454ZM8.26962 10.0201H4.4851V21.7449H8.26962V10.0201Z" fill="white"/>
</svg>
