<svg width="42" height="40" viewBox="0 0 42 40" fill="none" xmlns="http://www.w3.org/2000/svg">
<path d="M40.6977 6.72412L21.5962 0.420561C21.2694 0.312719 20.9161 0.312719 20.5894 0.420561L1.48783 6.72412C1.17088 6.82872 0.895204 7.02941 0.699863 7.29775C0.504522 7.56609 0.39942 7.88848 0.399445 8.21924V23.9781C0.399445 24.3961 0.567151 24.7969 0.865671 25.0925C1.16419 25.388 1.56907 25.554 1.99124 25.554C2.41341 25.554 2.81829 25.388 3.11681 25.0925C3.41533 24.7969 3.58303 24.3961 3.58303 23.9781V10.4058L10.2666 12.6101C8.49085 15.4502 7.92618 18.8719 8.69655 22.1239C9.46692 25.3759 11.5094 28.1923 14.3754 29.9547C10.7939 31.3454 7.69783 33.8609 5.4335 37.3003C5.31574 37.4736 5.23394 37.6683 5.19286 37.8732C5.15178 38.078 5.15224 38.2889 5.19421 38.4936C5.23618 38.6982 5.31883 38.8926 5.43735 39.0654C5.55586 39.2381 5.70788 39.3859 5.88458 39.5C6.06127 39.6141 6.25911 39.6922 6.46659 39.73C6.67407 39.7677 6.88706 39.7642 7.09317 39.7198C7.29929 39.6753 7.49442 39.5907 7.66722 39.4709C7.84002 39.3511 7.98705 39.1985 8.09975 39.022C11.0983 34.4676 15.8339 31.8576 21.0928 31.8576C26.3517 31.8576 31.0873 34.4676 34.0858 39.022C34.3193 39.3655 34.6799 39.6043 35.0898 39.6866C35.4997 39.769 35.9258 39.6884 36.2761 39.4622C36.6264 39.236 36.8727 38.8824 36.9618 38.4779C37.0508 38.0733 36.9755 37.6503 36.7521 37.3003C34.4877 33.8609 31.3798 31.3454 27.8102 29.9547C30.6735 28.1924 32.714 25.3778 33.4842 22.1282C34.2544 18.8786 33.6916 15.4592 31.919 12.6199L40.6977 9.72422C41.0148 9.61967 41.2905 9.41901 41.4859 9.15066C41.6813 8.88232 41.7865 8.5599 41.7865 8.22909C41.7865 7.89828 41.6813 7.57586 41.4859 7.30752C41.2905 7.03917 41.0148 6.83851 40.6977 6.73397V6.72412ZM30.6436 19.2505C30.644 20.7453 30.2864 22.2189 29.6002 23.5505C28.9139 24.882 27.9186 26.0335 26.6958 26.9104C25.473 27.7874 24.0576 28.3648 22.5657 28.5954C21.0738 28.8259 19.548 28.703 18.1134 28.2367C16.6789 27.7703 15.3764 26.9739 14.3129 25.9128C13.2494 24.8516 12.4552 23.556 11.9955 22.1321C11.5358 20.7082 11.4236 19.1967 11.6681 17.7216C11.9127 16.2465 12.507 14.8499 13.4024 13.6462L20.5894 16.01C20.9161 16.1179 21.2694 16.1179 21.5962 16.01L28.7831 13.6462C29.9925 15.2694 30.6445 17.2335 30.6436 19.2505ZM21.0928 12.8622L7.02529 8.21924L21.0928 3.57628L35.1603 8.21924L21.0928 12.8622Z" fill="#FFF7E6"/>
</svg>
