<svg width="27" height="27" viewBox="0 0 27 27" fill="none" xmlns="http://www.w3.org/2000/svg">
<path fill-rule="evenodd" clip-rule="evenodd" d="M8.22518 3.4707H19.0124C19.6056 3.4707 20.0911 3.95613 20.0911 4.54942V6.70685C20.0911 7.30015 19.6056 7.78557 19.0124 7.78557H8.22518C7.63189 7.78557 7.14646 7.30015 7.14646 6.70685V4.54942C7.14646 3.95613 7.63189 3.4707 8.22518 3.4707ZM6.06415 8.8659H21.1662C22.9569 8.8659 24.4023 10.3114 24.4023 12.1021V16.4169C24.4023 17.6035 23.4315 18.5744 22.2449 18.5744H20.0875V20.7318C20.0875 21.9184 19.1166 22.8892 17.93 22.8892H9.30031C8.11372 22.8892 7.14287 21.9184 7.14287 20.7318V18.5744H4.98544C3.79885 18.5744 2.828 17.6035 2.828 16.4169V12.1021C2.828 10.3114 4.27348 8.8659 6.06415 8.8659ZM10.3849 20.7308H16.8572C17.4505 20.7308 17.9359 20.2454 17.9359 19.6521V15.3372H9.30619V19.6521C9.30619 20.2454 9.79161 20.7308 10.3849 20.7308ZM21.1678 13.1791C20.5745 13.1791 20.0891 12.6937 20.0891 12.1004C20.0891 11.5071 20.5745 11.0217 21.1678 11.0217C21.7611 11.0217 22.2465 11.5071 22.2465 12.1004C22.2465 12.6937 21.7611 13.1791 21.1678 13.1791Z" fill="white"/>
</svg>
