<svg width="27" height="27" viewBox="0 0 27 27" fill="none" xmlns="http://www.w3.org/2000/svg">
<path d="M23.6359 7.47704C22.9225 7.80194 22.1543 8.02165 21.3486 8.11983C22.1714 7.61494 22.8028 6.81438 23.1003 5.86071C22.3299 6.3282 21.4785 6.66829 20.569 6.85061C19.8442 6.05706 18.8082 5.56152 17.6617 5.56152C15.4632 5.56152 13.6796 7.39055 13.6796 9.64616C13.6796 9.96638 13.7138 10.2773 13.7822 10.5764C10.4714 10.4058 7.53667 8.78131 5.57071 6.30716C5.22766 6.91255 5.03163 7.61494 5.03163 8.36292C5.03163 9.77939 5.73482 11.0299 6.80385 11.7627C6.15195 11.7428 5.53651 11.557 4.99858 11.2531V11.3034C4.99858 13.2832 6.37191 14.9346 8.19541 15.3085C7.86148 15.4044 7.50932 15.4523 7.14576 15.4523C6.88933 15.4523 6.6386 15.4278 6.39584 15.3798C6.903 17.002 8.3732 18.1836 10.1169 18.2151C8.75386 19.3114 7.03521 19.9647 5.16953 19.9647C4.84814 19.9647 4.53017 19.946 4.21903 19.9086C5.98213 21.0656 8.07688 21.7423 10.3255 21.7423C17.6537 21.7423 21.6597 15.5189 21.6597 10.1207C21.6597 9.94301 21.6563 9.76537 21.6495 9.59123C22.4279 9.01505 23.1037 8.2963 23.6359 7.47704Z" fill="white"/>
</svg>
